999
DXF generated by OpenJsCad
  0
SECTION
  2
HEADER
  0
ENDSEC
  0
SECTION
  2
TABLES
  0
TABLE
  2
LTYPE
  70
1
  0
LTYPE
  2
CONTINUOUS
  3
Solid Line
  72
65
  73
0
  40
0.0
  0
ENDTAB
  0
TABLE
  2
LAYER
  70
1
  0
LAYER
  2
OpenJsCad
  62
7
  6
continuous
  0
ENDTAB
  0
TABLE
  2
STYLE
  70
0
  0
ENDTAB
  0
TABLE
  2
VIEW
  70
0
  0
ENDTAB
  0
ENDSEC
  0
SECTION
  2
BLOCKS
  0
ENDSEC
  0
SECTION
  2
ENTITIES
  0
LWPOLYLINE
  8
OpenJsCad
  90
457
  70
1
 10
31.667349733732777
 20
-9.477933527815228
 30
0.0
 10
31.976228942117956
 20
-8.568004722033198
 30
0.0
 10
32.16369610384658
 20
-7.625543656398133
 30
0.0
 10
31.486476614196164
 20
-7.028878229962151
 30
0.0
 10
30.571310721415557
 20
-6.354610294890315
 30
0.0
 10
29.78895868864631
 20
-5.877403092389345
 30
0.0
 10
29.165373962809714
 20
-5.568100867879595
 30
0.0
 10
28.722367945749493
 20
-5.394651723475533
 30
0.0
 10
28.216956911498816
 20
-5.246076355783762
 30
0.0
 10
27.768675556526627
 20
-5.021254698231774
 30
0.0
 10
27.573446025612164
 20
-4.778493887731326
 30
0.0
 10
27.870668860977286
 20
-2.5208623136106394
 30
0.0
 10
28.12207722810392
 20
-2.336902497904211
 30
0.0
 10
28.61327189304137
 20
-2.2357652047966665
 30
0.0
 10
29.13991559870711
 20
-2.223062421262169
 30
0.0
 10
29.612718493715757
 20
-2.170181807444792
 30
0.0
 10
30.295108391676425
 20
-2.0328144039437053
 30
0.0
 10
31.174312737845245
 20
-1.7743552486116803
 30
0.0
 10
32.23280849212474
 20
-1.359924798765092
 30
0.0
 10
33.041380663155046
 20
-0.958867555355508
 30
0.0
 10
33.10422816311423
 20
2.5069251350982487e-16
 30
0.0
 10
33.041380663155046
 20
0.958867555355509
 30
0.0
 10
32.23280849211956
 20
1.359924798767666
 30
0.0
 10
31.174312737845337
 20
1.774355248612281
 30
0.0
 10
30.295108391676422
 20
2.0328144039437728
 30
0.0
 10
29.612718493715764
 20
2.1701818074448544
 30
0.0
 10
29.139915598707333
 20
2.2230624212622825
 30
0.0
 10
28.613271893041393
 20
2.2357652047971213
 30
0.0
 10
28.12207722810393
 20
2.3369024979045383
 30
0.0
 10
27.870668860977307
 20
2.5208623136106922
 30
0.0
 10
27.573446025612128
 20
4.778493887731371
 30
0.0
 10
27.76867555652653
 20
5.021254698232086
 30
0.0
 10
28.216956911498677
 20
5.246076355784195
 30
0.0
 10
28.722367945749248
 20
5.394651723475585
 30
0.0
 10
29.165373962809692
 20
5.568100867879654
 30
0.0
 10
29.7889586886463
 20
5.877403092389412
 30
0.0
 10
30.57131072141532
 20
6.354610294890874
 30
0.0
 10
31.486476614200505
 20
7.028878229965979
 30
0.0
 10
32.16369610384658
 20
7.6255436563981345
 30
0.0
 10
31.976228942117956
 20
8.5680047220332
 30
0.0
 10
31.667349733732785
 20
9.47793352781523
 30
0.0
 10
30.782527738539596
 20
9.656051199843457
 30
0.0
 10
29.652836859178606
 20
9.782401414182642
 30
0.0
 10
28.736696522847556
 20
9.804498958032761
 30
0.0
 10
28.042005196606233
 20
9.760570178986946
 30
0.0
 10
27.57162615960069
 20
9.689278535775427
 30
0.0
 10
27.05963968074075
 20
9.565243061447777
 30
0.0
 10
26.55900581051593
 20
9.535803650722631
 30
0.0
 10
26.268551671924865
 20
9.648425914202086
 30
0.0
 10
25.39713841087556
 20
11.752203627459012
 30
0.0
 10
25.52288453567797
 20
12.0372216846996
 30
0.0
 10
25.89770294716342
 20
12.370406482269454
 30
0.0
 10
26.347438383245873
 20
12.64472926834197
 30
0.0
 10
26.7304573943975
 20
12.926926670779858
 30
0.0
 10
27.252740679566767
 20
13.38708528084404
 30
0.0
 10
27.884924400800642
 20
14.050519648286652
 30
0.0
 10
28.594393388881358
 20
14.938674823095356
 30
0.0
 10
29.09410880808195
 20
15.690286669774968
 30
0.0
 10
28.669102561933187
 20
16.55211408155711
 30
0.0
 10
28.135241252726438
 20
17.351093993380072
 30
0.0
 10
27.23446859011049
 20
17.294133669029016
 30
0.0
 10
26.110569152188738
 20
17.123793089559154
 30
0.0
 10
25.219926275623024
 20
16.908023110832435
 30
0.0
 10
24.56027558695268
 20
16.68579182293595
 30
0.0
 10
24.12437596198384
 20
16.495186330365343
 30
0.0
 10
23.661937742366547
 20
16.24286541077232
 30
0.0
 10
23.185982037773606
 20
16.084855543404604
 30
0.0
 10
22.876276097264913
 20
16.118465233518325
 30
0.0
 10
21.490057784193485
 20
17.92502011141009
 30
0.0
 10
21.53775111228392
 20
18.232871905804213
 30
0.0
 10
21.81356332495665
 20
18.65171385005134
 30
0.0
 10
22.17697443612492
 20
19.033089409973982
 30
0.0
 10
22.47390432872659
 20
19.404803783822803
 30
0.0
 10
22.85929343045817
 20
19.984459730613594
 30
0.0
 10
23.298226564287802
 20
20.788909307233272
 30
0.0
 10
23.75364950857929
 20
21.83042541435819
 30
0.0
 10
24.04180607733465
 20
22.685762576031347
 30
0.0
 10
23.40822422008476
 20
23.408224220084755
 30
0.0
 10
22.685762576031355
 20
24.041806077334645
 30
0.0
 10
21.83042541435271
 20
23.75364950857744
 30
0.0
 10
20.78890930723292
 20
23.298226564288285
 30
0.0
 10
19.98445973061355
 20
22.859293430458205
 30
0.0
 10
19.40480378382277
 20
22.473904328726633
 30
0.0
 10
19.033089409974068
 20
22.176974436125153
 30
0.0
 10
18.651713850051042
 20
21.813563324956984
 30
0.0
 10
18.232871905804
 20
21.537751112284152
 30
0.0
 10
17.92502011141008
 20
21.49005778419353
 30
0.0
 10
16.118465233518275
 20
22.876276097264913
 30
0.0
 10
16.084855543404323
 20
23.185982037773755
 30
0.0
 10
16.242865410771923
 20
23.661937742366746
 30
0.0
 10
16.49518633036514
 20
24.1243759619837
 30
0.0
 10
16.6857918229359
 20
24.560275586952706
 30
0.0
 10
16.90802311083239
 20
25.219926275623056
 30
0.0
 10
17.123793089558596
 20
26.110569152188955
 30
0.0
 10
17.294133669029385
 20
27.23446859011626
 30
0.0
 10
17.35109399338008
 20
28.135241252726434
 30
0.0
 10
16.552114081557114
 20
28.669102561933187
 30
0.0
 10
15.690286669774968
 20
29.09410880808195
 30
0.0
 10
14.938674823090535
 20
28.594393388878157
 30
0.0
 10
14.050519648286176
 20
27.884924400801015
 30
0.0
 10
13.38708528084398
 20
27.2527406795668
 30
0.0
 10
12.926926670779809
 20
26.730457394397536
 30
0.0
 10
12.644729268341985
 20
26.34743838324612
 30
0.0
 10
12.37040648226907
 20
25.897702947163665
 30
0.0
 10
12.037221684699324
 20
25.52288453567814
 30
0.0
 10
11.752203627458979
 20
25.397138410875602
 30
0.0
 10
9.648425914202031
 20
26.268551671924854
 30
0.0
 10
9.535803650722313
 20
26.559005810516005
 30
0.0
 10
9.565243061447331
 20
27.059639680740844
 30
0.0
 10
9.68927853577526
 20
27.571626159600505
 30
0.0
 10
9.760570178986884
 20
28.042005196606244
 30
0.0
 10
9.804498958032699
 20
28.736696522847577
 30
0.0
 10
9.782401414182038
 20
29.652836859178674
 30
0.0
 10
9.656051199842313
 20
30.78252773854527
 30
0.0
 10
9.47793352781523
 20
31.667349733732777
 30
0.0
 10
8.5680047220332
 20
31.976228942117956
 30
0.0
 10
7.6255436563981345
 20
32.16369610384658
 30
0.0
 10
7.028878229962153
 20
31.486476614196164
 30
0.0
 10
6.354610294890317
 20
30.571310721415557
 30
0.0
 10
5.877403092389347
 20
29.78895868864631
 30
0.0
 10
5.568100867879597
 20
29.165373962809714
 30
0.0
 10
5.394651723475535
 20
28.722367945749493
 30
0.0
 10
5.246076355783764
 20
28.216956911498816
 30
0.0
 10
5.021254698231775
 20
27.768675556526627
 30
0.0
 10
4.778493887731328
 20
27.573446025612164
 30
0.0
 10
2.520862313610641
 20
27.870668860977286
 30
0.0
 10
2.336902497904213
 20
28.12207722810392
 30
0.0
 10
2.2357652047966683
 20
28.61327189304137
 30
0.0
 10
2.2230624212621706
 20
29.13991559870711
 30
0.0
 10
2.1701818074447936
 20
29.612718493715757
 30
0.0
 10
2.032814403943707
 20
30.295108391676425
 30
0.0
 10
1.7743552486116823
 20
31.174312737845245
 30
0.0
 10
1.359924798765094
 20
32.23280849212474
 30
0.0
 10
0.95886755535551
 20
33.041380663155046
 30
0.0
 10
-3.803406192310326e-15
 20
33.10422816311423
 30
0.0
 10
-0.9588675553555126
 20
33.041380663155046
 30
0.0
 10
-1.3599247987676695
 20
32.23280849211956
 30
0.0
 10
-1.7743552486122847
 20
31.174312737845337
 30
0.0
 10
-2.0328144039437763
 20
30.295108391676425
 30
0.0
 10
-2.170181807444858
 20
29.612718493715764
 30
0.0
 10
-2.223062421262286
 20
29.139915598707333
 30
0.0
 10
-2.235765204797125
 20
28.613271893041397
 30
0.0
 10
-2.336902497904541
 20
28.12207722810393
 30
0.0
 10
-2.520862313610696
 20
27.87066886097731
 30
0.0
 10
-4.778493887731374
 20
27.573446025612128
 30
0.0
 10
-5.02125469823209
 20
27.76867555652653
 30
0.0
 10
-5.246076355784199
 20
28.216956911498677
 30
0.0
 10
-5.394651723475588
 20
28.722367945749248
 30
0.0
 10
-5.568100867879657
 20
29.165373962809692
 30
0.0
 10
-5.877403092389415
 20
29.7889586886463
 30
0.0
 10
-6.354610294890877
 20
30.57131072141532
 30
0.0
 10
-7.028878229965983
 20
31.486476614200505
 30
0.0
 10
-7.625543656398138
 20
32.16369610384658
 30
0.0
 10
-8.568004722033193
 20
31.976228942117956
 30
0.0
 10
-9.477933527815226
 20
31.66734973373278
 30
0.0
 10
-9.656051199843452
 20
30.782527738539592
 30
0.0
 10
-9.782401414182635
 20
29.652836859178606
 30
0.0
 10
-9.804498958032758
 20
28.736696522847556
 30
0.0
 10
-9.76057017898694
 20
28.042005196606233
 30
0.0
 10
-9.689278535775424
 20
27.57162615960069
 30
0.0
 10
-9.565243061447772
 20
27.05963968074075
 30
0.0
 10
-9.535803650722627
 20
26.55900581051593
 30
0.0
 10
-9.648425914202083
 20
26.26855167192486
 30
0.0
 10
-11.752203627459009
 20
25.39713841087556
 30
0.0
 10
-12.037221684699595
 20
25.52288453567797
 30
0.0
 10
-12.370406482269447
 20
25.897702947163417
 30
0.0
 10
-12.644729268341965
 20
26.347438383245873
 30
0.0
 10
-12.926926670779853
 20
26.7304573943975
 30
0.0
 10
-13.387085280844035
 20
27.252740679566767
 30
0.0
 10
-14.050519648286647
 20
27.884924400800642
 30
0.0
 10
-14.938674823095353
 20
28.594393388881358
 30
0.0
 10
-15.690286669774965
 20
29.09410880808195
 30
0.0
 10
-16.55211408155711
 20
28.669102561933187
 30
0.0
 10
-17.351093993380072
 20
28.135241252726438
 30
0.0
 10
-17.294133669029016
 20
27.23446859011049
 30
0.0
 10
-17.123793089559154
 20
26.110569152188738
 30
0.0
 10
-16.908023110832435
 20
25.219926275623024
 30
0.0
 10
-16.68579182293595
 20
24.56027558695268
 30
0.0
 10
-16.495186330365343
 20
24.12437596198384
 30
0.0
 10
-16.24286541077232
 20
23.661937742366547
 30
0.0
 10
-16.084855543404604
 20
23.185982037773606
 30
0.0
 10
-16.118465233518325
 20
22.876276097264913
 30
0.0
 10
-17.92502011141009
 20
21.490057784193485
 30
0.0
 10
-18.232871905804213
 20
21.53775111228392
 30
0.0
 10
-18.65171385005134
 20
21.81356332495665
 30
0.0
 10
-19.033089409973982
 20
22.17697443612492
 30
0.0
 10
-19.404803783822803
 20
22.47390432872659
 30
0.0
 10
-19.984459730613594
 20
22.85929343045817
 30
0.0
 10
-20.788909307233272
 20
23.298226564287802
 30
0.0
 10
-21.83042541435819
 20
23.75364950857929
 30
0.0
 10
-22.685762576031347
 20
24.04180607733465
 30
0.0
 10
-23.40822422008476
 20
23.408224220084755
 30
0.0
 10
-24.04180607733465
 20
22.685762576031347
 30
0.0
 10
-23.753649508577443
 20
21.830425414352703
 30
0.0
 10
-23.298226564288292
 20
20.788909307232913
 30
0.0
 10
-22.859293430458212
 20
19.984459730613548
 30
0.0
 10
-22.47390432872664
 20
19.404803783822764
 30
0.0
 10
-22.176974436125157
 20
19.033089409974064
 30
0.0
 10
-21.813563324956988
 20
18.65171385005104
 30
0.0
 10
-21.53775111228416
 20
18.232871905803997
 30
0.0
 10
-21.490057784193535
 20
17.925020111410078
 30
0.0
 10
-22.876276097264917
 20
16.118465233518272
 30
0.0
 10
-23.18598203777376
 20
16.084855543404316
 30
0.0
 10
-23.66193774236675
 20
16.242865410771916
 30
0.0
 10
-24.124375961983702
 20
16.495186330365136
 30
0.0
 10
-24.56027558695271
 20
16.685791822935897
 30
0.0
 10
-25.219926275623063
 20
16.90802311083238
 30
0.0
 10
-26.11056915218896
 20
17.123793089558593
 30
0.0
 10
-27.234468590116265
 20
17.294133669029378
 30
0.0
 10
-28.135241252726438
 20
17.351093993380072
 30
0.0
 10
-28.66910256193318
 20
16.55211408155712
 30
0.0
 10
-29.09410880808194
 20
15.690286669774975
 30
0.0
 10
-28.59439338887815
 20
14.938674823090544
 30
0.0
 10
-27.88492440080101
 20
14.050519648286185
 30
0.0
 10
-27.25274067956679
 20
13.387085280843989
 30
0.0
 10
-26.730457394397533
 20
12.926926670779816
 30
0.0
 10
-26.34743838324612
 20
12.644729268341992
 30
0.0
 10
-25.89770294716366
 20
12.370406482269077
 30
0.0
 10
-25.522884535678138
 20
12.03722168469933
 30
0.0
 10
-25.397138410875595
 20
11.752203627458986
 30
0.0
 10
-26.26855167192485
 20
9.648425914202038
 30
0.0
 10
-26.559005810516002
 20
9.53580365072232
 30
0.0
 10
-27.05963968074084
 20
9.565243061447338
 30
0.0
 10
-27.5716261596005
 20
9.689278535775268
 30
0.0
 10
-28.04200519660624
 20
9.76057017898689
 30
0.0
 10
-28.736696522847573
 20
9.804498958032708
 30
0.0
 10
-29.65283685917867
 20
9.782401414182047
 30
0.0
 10
-30.782527738545266
 20
9.656051199842322
 30
0.0
 10
-31.667349733732774
 20
9.477933527815239
 30
0.0
 10
-31.976228942117956
 20
8.568004722033201
 30
0.0
 10
-32.16369610384658
 20
7.625543656398136
 30
0.0
 10
-31.486476614196164
 20
7.028878229962155
 30
0.0
 10
-30.571310721415557
 20
6.3546102948903185
 30
0.0
 10
-29.78895868864631
 20
5.877403092389349
 30
0.0
 10
-29.165373962809714
 20
5.568100867879599
 30
0.0
 10
-28.722367945749493
 20
5.394651723475537
 30
0.0
 10
-28.216956911498816
 20
5.2460763557837655
 30
0.0
 10
-27.768675556526627
 20
5.021254698231777
 30
0.0
 10
-27.573446025612164
 20
4.778493887731329
 30
0.0
 10
-27.870668860977286
 20
2.520862313610643
 30
0.0
 10
-28.12207722810392
 20
2.3369024979042146
 30
0.0
 10
-28.61327189304137
 20
2.23576520479667
 30
0.0
 10
-29.13991559870711
 20
2.2230624212621724
 30
0.0
 10
-29.612718493715757
 20
2.1701818074447954
 30
0.0
 10
-30.295108391676425
 20
2.032814403943709
 30
0.0
 10
-31.174312737845245
 20
1.774355248611684
 30
0.0
 10
-32.23280849212474
 20
1.359924798765096
 30
0.0
 10
-33.041380663155046
 20
0.958867555355512
 30
0.0
 10
-33.10422816311423
 20
-2.0270493529100753e-15
 30
0.0
 10
-33.041380663155046
 20
-0.9588675553555108
 30
0.0
 10
-32.23280849211956
 20
-1.3599247987676677
 30
0.0
 10
-31.174312737845337
 20
-1.7743552486122829
 30
0.0
 10
-30.295108391676425
 20
-2.0328144039437746
 30
0.0
 10
-29.612718493715764
 20
-2.1701818074448562
 30
0.0
 10
-29.139915598707333
 20
-2.2230624212622843
 30
0.0
 10
-28.613271893041397
 20
-2.235765204797123
 30
0.0
 10
-28.12207722810393
 20
-2.33690249790454
 30
0.0
 10
-27.87066886097731
 20
-2.520862313610694
 30
0.0
 10
-27.573446025612128
 20
-4.778493887731373
 30
0.0
 10
-27.76867555652653
 20
-5.021254698232088
 30
0.0
 10
-28.216956911498677
 20
-5.246076355784197
 30
0.0
 10
-28.722367945749248
 20
-5.394651723475587
 30
0.0
 10
-29.165373962809692
 20
-5.5681008678796555
 30
0.0
 10
-29.7889586886463
 20
-5.877403092389414
 30
0.0
 10
-30.57131072141532
 20
-6.354610294890875
 30
0.0
 10
-31.486476614200505
 20
-7.028878229965981
 30
0.0
 10
-32.16369610384658
 20
-7.625543656398136
 30
0.0
 10
-31.976228942117956
 20
-8.568004722033205
 30
0.0
 10
-31.66734973373278
 20
-9.477933527815237
 30
0.0
 10
-30.782527738539592
 20
-9.656051199843462
 30
0.0
 10
-29.652836859178606
 20
-9.782401414182646
 30
0.0
 10
-28.736696522847556
 20
-9.804498958032768
 30
0.0
 10
-28.042005196606233
 20
-9.760570178986951
 30
0.0
 10
-27.571626159600687
 20
-9.689278535775435
 30
0.0
 10
-27.059639680740748
 20
-9.565243061447783
 30
0.0
 10
-26.55900581051593
 20
-9.535803650722636
 30
0.0
 10
-26.26855167192486
 20
-9.648425914202091
 30
0.0
 10
-25.397138410875556
 20
-11.75220362745902
 30
0.0
 10
-25.522884535677967
 20
-12.037221684699606
 30
0.0
 10
-25.897702947163417
 20
-12.370406482269459
 30
0.0
 10
-26.34743838324587
 20
-12.644729268341976
 30
0.0
 10
-26.730457394397497
 20
-12.926926670779864
 30
0.0
 10
-27.252740679566767
 20
-13.387085280844046
 30
0.0
 10
-27.88492440080064
 20
-14.050519648286658
 30
0.0
 10
-28.594393388881354
 20
-14.938674823095363
 30
0.0
 10
-29.094108808081945
 20
-15.690286669774975
 30
0.0
 10
-28.66910256193319
 20
-16.55211408155711
 30
0.0
 10
-28.13524125272644
 20
-17.35109399338007
 30
0.0
 10
-27.234468590110495
 20
-17.294133669029016
 30
0.0
 10
-26.11056915218874
 20
-17.123793089559154
 30
0.0
 10
-25.219926275623024
 20
-16.908023110832435
 30
0.0
 10
-24.560275586952685
 20
-16.68579182293595
 30
0.0
 10
-24.124375961983844
 20
-16.495186330365343
 30
0.0
 10
-23.661937742366547
 20
-16.24286541077232
 30
0.0
 10
-23.18598203777361
 20
-16.084855543404604
 30
0.0
 10
-22.876276097264913
 20
-16.118465233518325
 30
0.0
 10
-21.49005778419349
 20
-17.92502011141009
 30
0.0
 10
-21.53775111228392
 20
-18.232871905804213
 30
0.0
 10
-21.813563324956654
 20
-18.65171385005134
 30
0.0
 10
-22.176974436124922
 20
-19.033089409973982
 30
0.0
 10
-22.473904328726594
 20
-19.404803783822803
 30
0.0
 10
-22.859293430458173
 20
-19.984459730613594
 30
0.0
 10
-23.298226564287805
 20
-20.788909307233272
 30
0.0
 10
-23.753649508579294
 20
-21.83042541435819
 30
0.0
 10
-24.041806077334652
 20
-22.685762576031347
 30
0.0
 10
-23.40822422008477
 20
-23.408224220084744
 30
0.0
 10
-22.68576257603136
 20
-24.041806077334634
 30
0.0
 10
-21.830425414352717
 20
-23.75364950857743
 30
0.0
 10
-20.788909307232927
 20
-23.298226564288278
 30
0.0
 10
-19.98445973061356
 20
-22.859293430458198
 30
0.0
 10
-19.40480378382278
 20
-22.47390432872663
 30
0.0
 10
-19.033089409974075
 20
-22.176974436125143
 30
0.0
 10
-18.65171385005105
 20
-21.813563324956977
 30
0.0
 10
-18.232871905804007
 20
-21.53775111228415
 30
0.0
 10
-17.925020111410088
 20
-21.490057784193528
 30
0.0
 10
-16.118465233518286
 20
-22.876276097264906
 30
0.0
 10
-16.08485554340433
 20
-23.18598203777375
 30
0.0
 10
-16.24286541077193
 20
-23.66193774236674
 30
0.0
 10
-16.49518633036515
 20
-24.12437596198369
 30
0.0
 10
-16.68579182293591
 20
-24.560275586952695
 30
0.0
 10
-16.9080231108324
 20
-25.21992627562305
 30
0.0
 10
-17.123793089558607
 20
-26.110569152188948
 30
0.0
 10
-17.294133669029396
 20
-27.234468590116254
 30
0.0
 10
-17.35109399338009
 20
-28.135241252726427
 30
0.0
 10
-16.552114081557107
 20
-28.669102561933187
 30
0.0
 10
-15.690286669774965
 20
-29.09410880808195
 30
0.0
 10
-14.938674823090532
 20
-28.594393388878157
 30
0.0
 10
-14.050519648286175
 20
-27.88492440080102
 30
0.0
 10
-13.387085280843976
 20
-27.2527406795668
 30
0.0
 10
-12.926926670779805
 20
-26.730457394397536
 30
0.0
 10
-12.644729268341981
 20
-26.34743838324612
 30
0.0
 10
-12.370406482269068
 20
-25.897702947163665
 30
0.0
 10
-12.03722168469932
 20
-25.52288453567814
 30
0.0
 10
-11.752203627458977
 20
-25.397138410875602
 30
0.0
 10
-9.648425914202027
 20
-26.268551671924854
 30
0.0
 10
-9.53580365072231
 20
-26.559005810516005
 30
0.0
 10
-9.565243061447328
 20
-27.059639680740844
 30
0.0
 10
-9.689278535775257
 20
-27.571626159600505
 30
0.0
 10
-9.76057017898688
 20
-28.042005196606244
 30
0.0
 10
-9.804498958032696
 20
-28.736696522847577
 30
0.0
 10
-9.782401414182035
 20
-29.652836859178674
 30
0.0
 10
-9.65605119984231
 20
-30.78252773854527
 30
0.0
 10
-9.477933527815226
 20
-31.667349733732777
 30
0.0
 10
-8.568004722033203
 20
-31.976228942117956
 30
0.0
 10
-7.625543656398139
 20
-32.16369610384658
 30
0.0
 10
-7.0288782299621575
 20
-31.486476614196164
 30
0.0
 10
-6.35461029489032
 20
-30.571310721415557
 30
0.0
 10
-5.8774030923893505
 20
-29.78895868864631
 30
0.0
 10
-5.5681008678796005
 20
-29.165373962809714
 30
0.0
 10
-5.394651723475539
 20
-28.722367945749493
 30
0.0
 10
-5.246076355783767
 20
-28.216956911498816
 30
0.0
 10
-5.021254698231779
 20
-27.768675556526627
 30
0.0
 10
-4.778493887731331
 20
-27.573446025612164
 30
0.0
 10
-2.5208623136106447
 20
-27.870668860977286
 30
0.0
 10
-2.3369024979042163
 20
-28.12207722810392
 30
0.0
 10
-2.235765204796672
 20
-28.61327189304137
 30
0.0
 10
-2.223062421262174
 20
-29.13991559870711
 30
0.0
 10
-2.170181807444797
 20
-29.612718493715757
 30
0.0
 10
-2.032814403943711
 20
-30.295108391676425
 30
0.0
 10
-1.774355248611686
 20
-31.174312737845245
 30
0.0
 10
-1.359924798765098
 20
-32.23280849212474
 30
0.0
 10
-0.9588675553555142
 20
-33.041380663155046
 30
0.0
 10
1.2685190389311577e-14
 20
-33.10422816311423
 30
0.0
 10
0.9588675553555224
 20
-33.041380663155046
 30
0.0
 10
1.3599247987676792
 20
-32.23280849211956
 30
0.0
 10
1.7743552486122944
 20
-31.174312737845334
 30
0.0
 10
2.032814403943785
 20
-30.295108391676422
 30
0.0
 10
2.170181807444867
 20
-29.612718493715764
 30
0.0
 10
2.223062421262295
 20
-29.139915598707336
 30
0.0
 10
2.2357652047971337
 20
-28.613271893041393
 30
0.0
 10
2.33690249790455
 20
-28.122077228103926
 30
0.0
 10
2.520862313610704
 20
-27.870668860977307
 30
0.0
 10
4.778493887731383
 20
-27.573446025612125
 30
0.0
 10
5.021254698232098
 20
-27.768675556526528
 30
0.0
 10
5.246076355784207
 20
-28.216956911498674
 30
0.0
 10
5.394651723475597
 20
-28.722367945749248
 30
0.0
 10
5.568100867879666
 20
-29.16537396280969
 30
0.0
 10
5.877403092389424
 20
-29.788958688646296
 30
0.0
 10
6.354610294890884
 20
-30.571310721415315
 30
0.0
 10
7.028878229965992
 20
-31.486476614200505
 30
0.0
 10
7.625543656398147
 20
-32.163696103846576
 30
0.0
 10
8.568004722033205
 20
-31.976228942117956
 30
0.0
 10
9.477933527815237
 20
-31.66734973373278
 30
0.0
 10
9.656051199843462
 20
-30.782527738539592
 30
0.0
 10
9.782401414182646
 20
-29.652836859178606
 30
0.0
 10
9.804498958032768
 20
-28.736696522847556
 30
0.0
 10
9.760570178986951
 20
-28.042005196606233
 30
0.0
 10
9.689278535775435
 20
-27.571626159600687
 30
0.0
 10
9.565243061447783
 20
-27.059639680740748
 30
0.0
 10
9.535803650722636
 20
-26.55900581051593
 30
0.0
 10
9.648425914202091
 20
-26.26855167192486
 30
0.0
 10
11.75220362745902
 20
-25.397138410875556
 30
0.0
 10
12.037221684699606
 20
-25.522884535677967
 30
0.0
 10
12.370406482269459
 20
-25.897702947163417
 30
0.0
 10
12.644729268341976
 20
-26.34743838324587
 30
0.0
 10
12.926926670779864
 20
-26.730457394397497
 30
0.0
 10
13.387085280844046
 20
-27.252740679566767
 30
0.0
 10
14.050519648286658
 20
-27.88492440080064
 30
0.0
 10
14.938674823095363
 20
-28.594393388881354
 30
0.0
 10
15.690286669774975
 20
-29.094108808081945
 30
0.0
 10
16.552114081557132
 20
-28.669102561933173
 30
0.0
 10
17.351093993380093
 20
-28.135241252726424
 30
0.0
 10
17.294133669029037
 20
-27.234468590110477
 30
0.0
 10
17.12379308955917
 20
-26.110569152188724
 30
0.0
 10
16.908023110832456
 20
-25.21992627562301
 30
0.0
 10
16.685791822935972
 20
-24.56027558695267
 30
0.0
 10
16.495186330365364
 20
-24.12437596198383
 30
0.0
 10
16.24286541077234
 20
-23.661937742366533
 30
0.0
 10
16.084855543404622
 20
-23.185982037773595
 30
0.0
 10
16.118465233518343
 20
-22.876276097264896
 30
0.0
 10
17.925020111410113
 20
-21.49005778419347
 30
0.0
 10
18.232871905804235
 20
-21.537751112283907
 30
0.0
 10
18.651713850051358
 20
-21.813563324956636
 30
0.0
 10
19.033089409974
 20
-22.1769744361249
 30
0.0
 10
19.40480378382282
 20
-22.473904328726572
 30
0.0
 10
19.984459730613615
 20
-22.859293430458152
 30
0.0
 10
20.78890930723329
 20
-23.298226564287788
 30
0.0
 10
21.830425414358206
 20
-23.753649508579272
 30
0.0
 10
22.685762576031365
 20
-24.04180607733463
 30
0.0
 10
23.408224220084744
 20
-23.40822422008477
 30
0.0
 10
24.041806077334634
 20
-22.68576257603136
 30
0.0
 10
23.75364950857743
 20
-21.830425414352717
 30
0.0
 10
23.298226564288278
 20
-20.788909307232927
 30
0.0
 10
22.859293430458198
 20
-19.98445973061356
 30
0.0
 10
22.47390432872663
 20
-19.40480378382278
 30
0.0
 10
22.176974436125143
 20
-19.033089409974075
 30
0.0
 10
21.813563324956977
 20
-18.65171385005105
 30
0.0
 10
21.53775111228415
 20
-18.232871905804007
 30
0.0
 10
21.490057784193528
 20
-17.925020111410088
 30
0.0
 10
22.876276097264906
 20
-16.118465233518286
 30
0.0
 10
23.18598203777375
 20
-16.08485554340433
 30
0.0
 10
23.66193774236674
 20
-16.24286541077193
 30
0.0
 10
24.12437596198369
 20
-16.49518633036515
 30
0.0
 10
24.560275586952695
 20
-16.68579182293591
 30
0.0
 10
25.21992627562305
 20
-16.9080231108324
 30
0.0
 10
26.110569152188948
 20
-17.123793089558607
 30
0.0
 10
27.234468590116254
 20
-17.294133669029396
 30
0.0
 10
28.135241252726427
 20
-17.35109399338009
 30
0.0
 10
28.669102561933187
 20
-16.55211408155711
 30
0.0
 10
29.09410880808195
 20
-15.690286669774967
 30
0.0
 10
28.594393388878157
 20
-14.938674823090535
 30
0.0
 10
27.88492440080102
 20
-14.050519648286175
 30
0.0
 10
27.2527406795668
 20
-13.387085280843978
 30
0.0
 10
26.730457394397536
 20
-12.926926670779805
 30
0.0
 10
26.34743838324612
 20
-12.644729268341985
 30
0.0
 10
25.897702947163665
 20
-12.37040648226907
 30
0.0
 10
25.52288453567814
 20
-12.03722168469932
 30
0.0
 10
25.397138410875602
 20
-11.752203627458977
 30
0.0
 10
26.268551671924854
 20
-9.648425914202027
 30
0.0
 10
26.559005810516005
 20
-9.535803650722311
 30
0.0
 10
27.059639680740844
 20
-9.565243061447331
 30
0.0
 10
27.571626159600505
 20
-9.689278535775259
 30
0.0
 10
28.042005196606244
 20
-9.760570178986882
 30
0.0
 10
28.736696522847577
 20
-9.804498958032697
 30
0.0
 10
29.652836859178674
 20
-9.782401414182036
 30
0.0
 10
30.78252773854527
 20
-9.656051199842311
 30
0.0
 10
31.667349733732777
 20
-9.477933527815228
 30
0.0
  0
LWPOLYLINE
  8
OpenJsCad
  90
31
  70
1
 10
0.41582338163551874
 20
-1.9562952014676114
 30
0.0
 10
1.2246467991473532e-16
 20
-2
 30
0.0
 10
-0.41582338163551785
 20
-1.9562952014676114
 30
0.0
 10
-0.8134732861516002
 20
-1.827090915285202
 30
0.0
 10
-1.1755705045849467
 20
-1.6180339887498945
 30
0.0
 10
-1.486289650954788
 20
-1.338261212717717
 30
0.0
 10
-1.7320508075688772
 20
-1.0000000000000002
 30
0.0
 10
-1.9021130325903073
 20
-0.6180339887498946
 30
0.0
 10
-1.9890437907365468
 20
-0.20905692653530608
 30
0.0
 10
-1.9890437907365466
 20
0.20905692653530836
 30
0.0
 10
-1.902113032590307
 20
0.618033988749895
 30
0.0
 10
-1.7320508075688767
 20
1.0000000000000009
 30
0.0
 10
-1.486289650954788
 20
1.338261212717717
 30
0.0
 10
-1.175570504584946
 20
1.618033988749895
 30
0.0
 10
-0.8134732861516005
 20
1.8270909152852017
 30
0.0
 10
-0.41582338163551824
 20
1.9562952014676114
 30
0.0
 10
1.0106430996148606e-15
 20
2
 30
0.0
 10
0.4158233816355185
 20
1.9562952014676114
 30
0.0
 10
0.8134732861516
 20
1.827090915285202
 30
0.0
 10
1.1755705045849465
 20
1.618033988749895
 30
0.0
 10
1.486289650954789
 20
1.3382612127177158
 30
0.0
 10
1.7320508075688774
 20
0.9999999999999997
 30
0.0
 10
1.9021130325903073
 20
0.6180339887498948
 30
0.0
 10
1.9890437907365468
 20
0.20905692653530678
 30
0.0
 10
1.9890437907365466
 20
-0.2090569265353068
 30
0.0
 10
1.902113032590307
 20
-0.6180339887498948
 30
0.0
 10
1.7320508075688772
 20
-1.0000000000000002
 30
0.0
 10
1.4862896509547885
 20
-1.3382612127177165
 30
0.0
 10
1.1755705045849463
 20
-1.618033988749895
 30
0.0
 10
0.8134732861516004
 20
-1.8270909152852017
 30
0.0
 10
0.41582338163551874
 20
-1.9562952014676114
 30
0.0
  0
LWPOLYLINE
  8
OpenJsCad
  90
229
  70
1
 10
28.908264411386597
 20
5.409238575089372
 30
0.0
 10
28.61865418009465
 20
4.613541004171724
 30
0.0
 10
28.471615212130537
 20
3.779641578381499
 30
0.0
 10
28.908022441344983
 20
3.2797006347076385
 30
0.0
 10
30.007682325386632
 20
2.392966048474426
 30
0.0
 10
30.858032304349603
 20
1.923901530707663
 30
0.0
 10
31.35917583721576
 20
1.7525003477700496
 30
0.0
 10
31.446265802514446
 20
1.7388908869047492
 30
0.0
 10
31.705553576775984
 20
1.7439522167197854
 30
0.0
 10
32.6861322144129
 20
1.5451382157093896
 30
0.0
 10
33.154228163114226
 20
1.1385562939891836
 30
0.0
 10
33.15422816311422
 20
-1.1385562939891605
 30
0.0
 10
32.686132214413
 20
-1.545138215709939
 30
0.0
 10
31.705553576775984
 20
-1.7439522167197963
 30
0.0
 10
31.44626580251446
 20
-1.738890886904766
 30
0.0
 10
31.35917583721574
 20
-1.7525003477700343
 30
0.0
 10
30.85803230434957
 20
-1.9239015307076544
 30
0.0
 10
30.00768232538669
 20
-2.3929660484743827
 30
0.0
 10
28.90802244134499
 20
-3.2797006347076323
 30
0.0
 10
28.47161521213054
 20
-3.7796415783815043
 30
0.0
 10
28.618654180094648
 20
-4.61354100417172
 30
0.0
 10
28.908264411386593
 20
-5.409238575089367
 30
0.0
 10
29.53617463011841
 20
-5.623996518095676
 30
0.0
 10
30.931875318337738
 20
-5.842101254167094
 30
0.0
 10
31.902832261110614
 20
-5.823148053085523
 30
0.0
 10
32.422535882983794
 20
-5.7210140653151225
 30
0.0
 10
32.50476273577981
 20
-5.689255221506937
 30
0.0
 10
32.726781870273506
 20
-5.555228094179418
 30
0.0
 10
33.67539488138061
 20
-5.2371167508639855
 30
0.0
 10
34.28406882522464
 20
-5.355179049442518
 30
0.0
 10
35.422625119213805
 20
-7.327216397909096
 30
0.0
 10
35.22053309709037
 20
-7.913374645189394
 30
0.0
 10
34.4707340869933
 20
-8.575841939510466
 30
0.0
 10
34.24365362268458
 20
-8.701102586444478
 30
0.0
 10
34.17503623075382
 20
-8.75643370793497
 30
0.0
 10
33.82673379181824
 20
-9.155443253030738
 30
0.0
 10
33.324841366812194
 20
-9.986840030912063
 30
0.0
 10
32.815875264826055
 20
-11.304604651025187
 30
0.0
 10
32.6879059897681
 20
-11.955769823245953
 30
0.0
 10
33.232195184266374
 20
-12.604428426199485
 30
0.0
 10
33.880853787219905
 20
-13.148717620697763
 30
0.0
 10
34.532018959440656
 20
-13.020748345639806
 30
0.0
 10
35.84978357955372
 20
-12.511782243653693
 30
0.0
 10
36.681180357435125
 20
-12.00988981864758
 30
0.0
 10
37.080189902530876
 20
-11.661587379712014
 30
0.0
 10
37.135521024021386
 20
-11.592969987781292
 30
0.0
 10
37.260781670955396
 20
-11.365889523472562
 30
0.0
 10
37.92324896527688
 20
-10.61609051337585
 30
0.0
 10
38.50940721255674
 20
-10.41399849125203
 30
0.0
 10
40.48144456102331
 20
-11.552554785241211
 30
0.0
 10
40.59950685960239
 20
-12.161228729085428
 30
0.0
 10
40.281395516286445
 20
-13.109841740192353
 30
0.0
 10
40.14736838895894
 20
-13.33186087468604
 30
0.0
 10
40.11560954515071
 20
-13.41408772748207
 30
0.0
 10
40.01347555738031
 20
-13.933791349355264
 30
0.0
 10
39.99452235629875
 20
-14.90474829212805
 30
0.0
 10
40.21262709237018
 20
-16.300448980347433
 30
0.0
 10
40.42738503537649
 20
-16.92835919907926
 30
0.0
 10
41.22308260629413
 20
-17.217969430371205
 30
0.0
 10
42.056982032084356
 20
-17.36500839833532
 30
0.0
 10
42.55692297575822
 20
-16.928601169120874
 30
0.0
 10
43.44365756199143
 20
-15.828941285079226
 30
0.0
 10
43.91272207975819
 20
-14.978591306116254
 30
0.0
 10
44.084123262695805
 20
-14.4774477732501
 30
0.0
 10
44.09773272356111
 20
-14.390357807951409
 30
0.0
 10
44.09267139374607
 20
-14.131070033689875
 30
0.0
 10
44.291485394756464
 20
-13.150491396052955
 30
0.0
 10
44.698067316476674
 20
-12.682395447351631
 30
0.0
 10
46.97517990445502
 20
-12.682395447351642
 30
0.0
 10
47.3817618261758
 20
-13.150491396052855
 30
0.0
 10
47.580575827185655
 20
-14.131070033689875
 30
0.0
 10
47.57551449737062
 20
-14.390357807951396
 30
0.0
 10
47.58912395823589
 20
-14.477447773250116
 30
0.0
 10
47.76052514117351
 20
-14.978591306116286
 30
0.0
 10
48.22958965894024
 20
-15.828941285079168
 30
0.0
 10
49.11632424517349
 20
-16.928601169120867
 30
0.0
 10
49.61626518884736
 20
-17.365008398335316
 30
0.0
 10
50.45016461463757
 20
-17.21796943037121
 30
0.0
 10
51.24586218555522
 20
-16.928359199079264
 30
0.0
 10
51.46062012856153
 20
-16.300448980347443
 30
0.0
 10
51.67872486463295
 20
-14.90474829212812
 30
0.0
 10
51.65977166355138
 20
-13.933791349355243
 30
0.0
 10
51.55763767578098
 20
-13.414087727482066
 30
0.0
 10
51.52587883197279
 20
-13.331860874686045
 30
0.0
 10
51.391851704645276
 20
-13.109841740192348
 30
0.0
 10
51.07374036132984
 20
-12.161228729085241
 30
0.0
 10
51.191802659908376
 20
-11.552554785241217
 30
0.0
 10
53.16384000837495
 20
-10.413998491252052
 30
0.0
 10
53.74999825565525
 20
-10.616090513375491
 30
0.0
 10
54.41246554997632
 20
-11.365889523472559
 30
0.0
 10
54.537726196910334
 20
-11.592969987781277
 30
0.0
 10
54.593057318400824
 20
-11.661587379712037
 30
0.0
 10
54.99206686349659
 20
-12.009889818647613
 30
0.0
 10
55.82346364137791
 20
-12.511782243653666
 30
0.0
 10
57.141228261491044
 20
-13.020748345639804
 30
0.0
 10
57.79239343371181
 20
-13.148717620697763
 30
0.0
 10
58.44105203666534
 20
-12.604428426199483
 30
0.0
 10
58.98534123116362
 20
-11.955769823245951
 30
0.0
 10
58.857371956105666
 20
-11.304604651025201
 30
0.0
 10
58.34840585411955
 20
-9.986840030912129
 30
0.0
 10
57.846513429113436
 20
-9.155443253030729
 30
0.0
 10
57.498210990177874
 20
-8.756433707934976
 30
0.0
 10
57.42959359824715
 20
-8.701102586444472
 30
0.0
 10
57.202513133938425
 20
-8.575841939510457
 30
0.0
 10
56.45271412384171
 20
-7.9133746451889655
 30
0.0
 10
56.25062210171789
 20
-7.327216397909113
 30
0.0
 10
57.38917839570707
 20
-5.355179049442544
 30
0.0
 10
57.99785233955129
 20
-5.237116750863459
 30
0.0
 10
58.94646535065821
 20
-5.555228094179409
 30
0.0
 10
59.1684844851519
 20
-5.689255221506917
 30
0.0
 10
59.250711337947926
 20
-5.721014065315145
 30
0.0
 10
59.770414959821125
 20
-5.823148053085546
 30
0.0
 10
60.741371902593905
 20
-5.842101254167103
 30
0.0
 10
62.13707259081329
 20
-5.623996518095675
 30
0.0
 10
62.76498280954512
 20
-5.409238575089362
 30
0.0
 10
63.05459304083706
 20
-4.613541004171726
 30
0.0
 10
63.20163200880118
 20
-3.7796415783815016
 30
0.0
 10
62.76522477958673
 20
-3.2797006347076403
 30
0.0
 10
61.66556489554508
 20
-2.392966048474428
 30
0.0
 10
60.81521491658211
 20
-1.9239015307076648
 30
0.0
 10
60.314071383715955
 20
-1.7525003477700514
 30
0.0
 10
60.22698141841727
 20
-1.738890886904751
 30
0.0
 10
59.96769364415573
 20
-1.7439522167197872
 30
0.0
 10
58.98711500651881
 20
-1.5451382157093914
 30
0.0
 10
58.51901905781749
 20
-1.1385562939891853
 30
0.0
 10
58.5190190578175
 20
1.1385562939891591
 30
0.0
 10
58.987115006518714
 20
1.5451382157099376
 30
0.0
 10
59.96769364415573
 20
1.7439522167197945
 30
0.0
 10
60.22698141841725
 20
1.7388908869047641
 30
0.0
 10
60.31407138371597
 20
1.7525003477700327
 30
0.0
 10
60.81521491658214
 20
1.9239015307076526
 30
0.0
 10
61.665564895545025
 20
2.3929660484743804
 30
0.0
 10
62.765224779586724
 20
3.2797006347076305
 30
0.0
 10
63.20163200880117
 20
3.7796415783815016
 30
0.0
 10
63.05459304083706
 20
4.613541004171724
 30
0.0
 10
62.76498280954512
 20
5.40923857508937
 30
0.0
 10
62.1370725908133
 20
5.623996518095678
 30
0.0
 10
60.741371902593976
 20
5.842101254167096
 30
0.0
 10
59.770414959821096
 20
5.823148053085526
 30
0.0
 10
59.25071133794792
 20
5.721014065315127
 30
0.0
 10
59.1684844851519
 20
5.689255221506941
 30
0.0
 10
58.9464653506582
 20
5.55522809417942
 30
0.0
 10
57.997852339551095
 20
5.237116750863987
 30
0.0
 10
57.38917839570707
 20
5.355179049442519
 30
0.0
 10
56.25062210171791
 20
7.327216397909099
 30
0.0
 10
56.452714123841346
 20
7.9133746451893945
 30
0.0
 10
57.20251313393841
 20
8.575841939510468
 30
0.0
 10
57.42959359824713
 20
8.701102586444481
 30
0.0
 10
57.498210990177895
 20
8.756433707934974
 30
0.0
 10
57.846513429113465
 20
9.15544325303074
 30
0.0
 10
58.34840585411952
 20
9.986840030912065
 30
0.0
 10
58.85737195610566
 20
11.30460465102519
 30
0.0
 10
58.985341231163616
 20
11.955769823245955
 30
0.0
 10
58.44105203666535
 20
12.604428426199478
 30
0.0
 10
57.792393433711815
 20
13.148717620697756
 30
0.0
 10
57.141228261491065
 20
13.020748345639802
 30
0.0
 10
55.823463641378
 20
12.511782243653688
 30
0.0
 10
54.99206686349659
 20
12.009889818647576
 30
0.0
 10
54.59305731840084
 20
11.66158737971201
 30
0.0
 10
54.537726196910334
 20
11.59296998778129
 30
0.0
 10
54.41246554997632
 20
11.365889523472557
 30
0.0
 10
53.74999825565483
 20
10.616090513375847
 30
0.0
 10
53.163840008374976
 20
10.413998491252029
 30
0.0
 10
51.191802659908404
 20
11.55255478524121
 30
0.0
 10
51.07374036132933
 20
12.161228729085426
 30
0.0
 10
51.391851704645276
 20
13.10984174019235
 30
0.0
 10
51.52587883197278
 20
13.331860874686036
 30
0.0
 10
51.55763767578101
 20
13.414087727482068
 30
0.0
 10
51.65977166355141
 20
13.933791349355262
 30
0.0
 10
51.67872486463297
 20
14.904748292128044
 30
0.0
 10
51.460620128561544
 20
16.30044898034743
 30
0.0
 10
51.245862185555225
 20
16.92835919907926
 30
0.0
 10
50.450164614637586
 20
17.217969430371205
 30
0.0
 10
49.61626518884736
 20
17.36500839833532
 30
0.0
 10
49.1163242451735
 20
16.928601169120874
 30
0.0
 10
48.229589658940284
 20
15.828941285079225
 30
0.0
 10
47.760525141173524
 20
14.978591306116254
 30
0.0
 10
47.58912395823591
 20
14.477447773250098
 30
0.0
 10
47.57551449737061
 20
14.390357807951407
 30
0.0
 10
47.58057582718565
 20
14.131070033689873
 30
0.0
 10
47.38176182617525
 20
13.150491396052953
 30
0.0
 10
46.97517990445504
 20
12.682395447351631
 30
0.0
 10
44.698067316476696
 20
12.682395447351642
 30
0.0
 10
44.291485394755924
 20
13.150491396052855
 30
0.0
 10
44.092671393746066
 20
14.131070033689875
 30
0.0
 10
44.097732723561094
 20
14.390357807951396
 30
0.0
 10
44.084123262695826
 20
14.477447773250116
 30
0.0
 10
43.912722079758204
 20
14.978591306116286
 30
0.0
 10
43.44365756199148
 20
15.828941285079168
 30
0.0
 10
42.556922975758226
 20
16.928601169120867
 30
0.0
 10
42.056982032084356
 20
17.365008398335316
 30
0.0
 10
41.223082606294135
 20
17.21796943037121
 30
0.0
 10
40.42738503537649
 20
16.92835919907926
 30
0.0
 10
40.21262709237018
 20
16.30044898034744
 30
0.0
 10
39.99452235629876
 20
14.904748292128119
 30
0.0
 10
40.01347555738033
 20
13.933791349355243
 30
0.0
 10
40.11560954515073
 20
13.414087727482066
 30
0.0
 10
40.14736838895892
 20
13.331860874686043
 30
0.0
 10
40.28139551628644
 20
13.109841740192346
 30
0.0
 10
40.59950685960187
 20
12.16122872908524
 30
0.0
 10
40.48144456102334
 20
11.552554785241213
 30
0.0
 10
38.50940721255676
 20
10.41399849125205
 30
0.0
 10
37.923248965276464
 20
10.61609051337549
 30
0.0
 10
37.26078167095539
 20
11.365889523472555
 30
0.0
 10
37.13552102402137
 20
11.592969987781274
 30
0.0
 10
37.08018990253088
 20
11.661587379712037
 30
0.0
 10
36.68118035743512
 20
12.00988981864761
 30
0.0
 10
35.849783579553794
 20
12.511782243653665
 30
0.0
 10
34.53201895944066
 20
13.0207483456398
 30
0.0
 10
33.880853787219905
 20
13.14871762069776
 30
0.0
 10
33.23219518426638
 20
12.604428426199492
 30
0.0
 10
32.6879059897681
 20
11.955769823245959
 30
0.0
 10
32.815875264826055
 20
11.304604651025207
 30
0.0
 10
33.324841366812166
 20
9.986840030912138
 30
0.0
 10
33.826733791818285
 20
9.155443253030736
 30
0.0
 10
34.17503623075385
 20
8.756433707934983
 30
0.0
 10
34.24365362268457
 20
8.701102586444478
 30
0.0
 10
34.4707340869933
 20
8.575841939510465
 30
0.0
 10
35.22053309709001
 20
7.9133746451889735
 30
0.0
 10
35.422625119213826
 20
7.327216397909119
 30
0.0
 10
34.28406882522465
 20
5.355179049442551
 30
0.0
 10
33.67539488138043
 20
5.237116750863468
 30
0.0
 10
32.726781870273506
 20
5.555228094179418
 30
0.0
 10
32.50476273577982
 20
5.689255221506924
 30
0.0
 10
32.42253588298379
 20
5.721014065315151
 30
0.0
 10
31.902832261110596
 20
5.823148053085555
 30
0.0
 10
30.931875318337813
 20
5.842101254167114
 30
0.0
 10
29.536174630118428
 20
5.623996518095684
 30
0.0
 10
28.908264411386597
 20
5.409238575089372
 30
0.0
  0
LWPOLYLINE
  8
OpenJsCad
  90
31
  70
1
 10
44.92864261098676
 20
1.782013048376736
 30
0.0
 10
45.31898552026082
 20
1.9318516525781366
 30
0.0
 10
45.731951697979966
 20
1.9972590695091477
 30
0.0
 10
46.14949254054632
 20
1.9753766811902758
 30
0.0
 10
46.55335950955646
 20
1.8671608529944033
 30
0.0
 10
46.92590168049591
 20
1.6773411358908485
 30
0.0
 10
47.25083717283895
 20
1.4142135623730954
 30
0.0
 10
47.513964746356706
 20
1.089278070030054
 30
0.0
 10
47.70378446346026
 20
0.7167358990905998
 30
0.0
 10
47.81200029165613
 20
0.31286893008046046
 30
0.0
 10
47.833882679975005
 20
-0.10467191248588775
 30
0.0
 10
47.768475263043996
 20
-0.5176380902050426
 30
0.0
 10
47.61863665884259
 20
-0.907980999479094
 30
0.0
 10
47.3909155333798
 20
-1.258640782099675
 30
0.0
 10
47.09526439256553
 20
-1.5542919229139418
 30
0.0
 10
46.74460460994495
 20
-1.782013048376736
 30
0.0
 10
46.3542617006709
 20
-1.9318516525781368
 30
0.0
 10
45.94129552295175
 20
-1.9972590695091479
 30
0.0
 10
45.523754680385395
 20
-1.9753766811902755
 30
0.0
 10
45.119887711375256
 20
-1.8671608529944037
 30
0.0
 10
44.7473455404358
 20
-1.6773411358908477
 30
0.0
 10
44.422410048092765
 20
-1.414213562373095
 30
0.0
 10
44.15928247457501
 20
-1.0892780700300542
 30
0.0
 10
43.969462757471454
 20
-0.7167358990906005
 30
0.0
 10
43.86124692927558
 20
-0.3128689300804619
 30
0.0
 10
43.83936454095671
 20
0.10467191248588753
 30
0.0
 10
43.90477195788772
 20
0.5176380902050417
 30
0.0
 10
44.054610562089124
 20
0.9079809994790935
 30
0.0
 10
44.28233168755192
 20
1.258640782099675
 30
0.0
 10
44.57798282836618
 20
1.5542919229139418
 30
0.0
 10
44.92864261098676
 20
1.782013048376736
 30
0.0
  0
ENDSEC
  0
EOF
