999
DXF generated by OpenJsCad
  0
SECTION
  2
HEADER
  0
ENDSEC
  0
SECTION
  2
TABLES
  0
TABLE
  2
LTYPE
  70
1
  0
LTYPE
  2
CONTINUOUS
  3
Solid Line
  72
65
  73
0
  40
0.0
  0
ENDTAB
  0
TABLE
  2
LAYER
  70
1
  0
LAYER
  2
OpenJsCad
  62
7
  6
continuous
  0
ENDTAB
  0
TABLE
  2
STYLE
  70
0
  0
ENDTAB
  0
TABLE
  2
VIEW
  70
0
  0
ENDTAB
  0
ENDSEC
  0
SECTION
  2
BLOCKS
  0
ENDSEC
  0
SECTION
  2
ENTITIES
  0
LWPOLYLINE
  8
OpenJsCad
  90
381
  70
1
 10
26.280794545155107
 20
-9.523883451586096
 30
0.0
 10
26.640300848151124
 20
-8.6559584591345
 30
0.0
 10
26.85960765010154
 20
-7.74247988739117
 30
0.0
 10
26.27070284635001
 20
-7.135165080233106
 30
0.0
 10
25.356220508541686
 20
-6.371034733203745
 30
0.0
 10
24.586432704391544
 20
-5.8541151922644525
 30
0.0
 10
24.000595778963696
 20
-5.544169757986571
 30
0.0
 10
23.63098394965083
 20
-5.395723708360466
 30
0.0
 10
23.17568411102707
 20
-5.2661851615271535
 30
0.0
 10
22.637821596318798
 20
-4.996843000825778
 30
0.0
 10
22.408655494354424
 20
-4.701930900309027
 30
0.0
 10
22.764874383891094
 20
-2.452853346940511
 30
0.0
 10
23.073957149384828
 20
-2.2431914920514777
 30
0.0
 10
23.668726103827414
 20
-2.153240532685363
 30
0.0
 10
24.14177159461666
 20
-2.170737441279176
 30
0.0
 10
24.539165685466823
 20
-2.1437731950436536
 30
0.0
 10
25.192108117402064
 20
-2.0300311359673224
 30
0.0
 10
26.08395674757863
 20
-1.7762889517015832
 30
0.0
 10
27.189810397138167
 20
-1.3321483892987869
 30
0.0
 10
27.93756274457033
 20
-0.9365392769371835
 30
0.0
 10
28.011269984173577
 20
-6.116123309172532e-17
 30
0.0
 10
27.93756274457033
 20
0.936539276937184
 30
0.0
 10
27.18981039713753
 20
1.332148389299128
 30
0.0
 10
26.083956747578398
 20
1.776288951701775
 30
0.0
 10
25.19210811740213
 20
2.030031135967422
 30
0.0
 10
24.53916568546687
 20
2.143773195043757
 30
0.0
 10
24.141771594616802
 20
2.170737441279251
 30
0.0
 10
23.668726103827417
 20
2.153240532685565
 30
0.0
 10
23.07395714938482
 20
2.243191492051523
 30
0.0
 10
22.764874383891154
 20
2.4528533469406164
 30
0.0
 10
22.40865549435433
 20
4.701930900309109
 30
0.0
 10
22.637821596318787
 20
4.996843000825823
 30
0.0
 10
23.175684111027003
 20
5.2661851615273445
 30
0.0
 10
23.63098394965067
 20
5.395723708360494
 30
0.0
 10
24.00059577896362
 20
5.544169757986656
 30
0.0
 10
24.58643270439145
 20
5.854115192264526
 30
0.0
 10
25.356220508541846
 20
6.371034733204
 30
0.0
 10
26.27070284635051
 20
7.135165080233627
 30
0.0
 10
26.85960765010154
 20
7.742479887391169
 30
0.0
 10
26.640300848151124
 20
8.655958459134501
 30
0.0
 10
26.280794545155114
 20
9.52388345158609
 30
0.0
 10
25.44738986370472
 20
9.669061892863164
 30
0.0
 10
24.25841356254907
 20
9.749737097881868
 30
0.0
 10
23.331804464143122
 20
9.71546387255219
 30
0.0
 10
22.6756710802557
 20
9.621868691197067
 30
0.0
 10
22.289394430288276
 20
9.524711685749468
 30
0.0
 10
21.844908275873465
 20
9.361892041050062
 30
0.0
 10
21.251453010956368
 20
9.263646772452677
 30
0.0
 10
20.892708756526186
 20
9.36753521855753
 30
0.0
 10
19.858921274746674
 20
11.396457390757543
 30
0.0
 10
19.985738338427453
 20
11.747751685729936
 30
0.0
 10
20.41404468295316
 20
12.17011996046022
 30
0.0
 10
20.807030948946252
 20
12.434013827208174
 30
0.0
 10
21.112680335631794
 20
12.689410746603121
 30
0.0
 10
21.574065954525462
 20
13.16521993745859
 30
0.0
 10
22.146440738952442
 20
13.894717148814422
 30
0.0
 10
22.78003586221242
 20
14.904038878094434
 30
0.0
 10
23.15244701695013
 20
15.663611175312264
 30
0.0
 10
22.66159345122129
 20
16.464611394680045
 30
0.0
 10
22.051479066597466
 20
17.178963557195875
 30
0.0
 10
21.214001508021703
 20
17.059500250038198
 30
0.0
 10
20.058287839711646
 20
16.768813046508523
 30
0.0
 10
19.187621227693203
 20
16.449879313674398
 30
0.0
 10
18.59252379901862
 20
16.158108640354822
 30
0.0
 10
18.255176039780327
 20
15.946340787850007
 30
0.0
 10
17.882758623451352
 20
15.654136328299233
 30
0.0
 10
17.34870858423581
 20
15.377311763143853
 30
0.0
 10
16.97541922801093
 20
15.365257475526354
 30
0.0
 10
15.365257475526228
 20
16.97541922801094
 30
0.0
 10
15.377311763143814
 20
17.348708584235837
 30
0.0
 10
15.654136328299064
 20
17.882758623451465
 30
0.0
 10
15.946340787849858
 20
18.255176039780256
 30
0.0
 10
16.158108640354712
 20
18.592523799018643
 30
0.0
 10
16.449879313674277
 20
19.187621227693203
 30
0.0
 10
16.768813046508505
 20
20.058287839711944
 30
0.0
 10
17.0595002500383
 20
21.214001508022417
 30
0.0
 10
17.17896355719588
 20
22.051479066597462
 30
0.0
 10
16.46461139468005
 20
22.66159345122129
 30
0.0
 10
15.663611175312262
 20
23.152447016950127
 30
0.0
 10
14.904038878093784
 20
22.7800358622121
 30
0.0
 10
13.894717148814129
 20
22.146440738952364
 30
0.0
 10
13.165219937458549
 20
21.574065954525576
 30
0.0
 10
12.689410746603064
 20
21.112680335631886
 30
0.0
 10
12.434013827208195
 20
20.80703094894641
 30
0.0
 10
12.170119960460056
 20
20.414044682953282
 30
0.0
 10
11.747751685729895
 20
19.98573833842747
 30
0.0
 10
11.396457390757496
 20
19.858921274746784
 30
0.0
 10
9.367535218557409
 20
20.892708756526158
 30
0.0
 10
9.263646772452635
 20
21.251453010956382
 30
0.0
 10
9.361892041049868
 20
21.84490827587352
 30
0.0
 10
9.52471168574935
 20
22.289394430288162
 30
0.0
 10
9.621868691196953
 20
22.675671080255682
 30
0.0
 10
9.715463872552077
 20
23.331804464143083
 30
0.0
 10
9.749737097881754
 20
24.258413562549343
 30
0.0
 10
9.669061892863036
 20
25.447389863705432
 30
0.0
 10
9.523883451586089
 20
26.280794545155107
 30
0.0
 10
8.655958459134501
 20
26.640300848151124
 30
0.0
 10
7.7424798873911715
 20
26.85960765010154
 30
0.0
 10
7.135165080233108
 20
26.27070284635001
 30
0.0
 10
6.3710347332037465
 20
25.356220508541686
 30
0.0
 10
5.854115192264454
 20
24.586432704391544
 30
0.0
 10
5.544169757986573
 20
24.000595778963696
 30
0.0
 10
5.395723708360467
 20
23.63098394965083
 30
0.0
 10
5.266185161527155
 20
23.17568411102707
 30
0.0
 10
4.99684300082578
 20
22.637821596318798
 30
0.0
 10
4.701930900309029
 20
22.408655494354424
 30
0.0
 10
2.4528533469405125
 20
22.764874383891094
 30
0.0
 10
2.243191492051479
 20
23.073957149384828
 30
0.0
 10
2.1532405326853645
 20
23.668726103827414
 30
0.0
 10
2.170737441279177
 20
24.14177159461666
 30
0.0
 10
2.143773195043655
 20
24.539165685466823
 30
0.0
 10
2.0300311359673238
 20
25.192108117402064
 30
0.0
 10
1.7762889517015847
 20
26.08395674757863
 30
0.0
 10
1.3321483892987884
 20
27.189810397138167
 30
0.0
 10
0.9365392769371852
 20
27.93756274457033
 30
0.0
 10
1.8375180724919756e-15
 20
28.01126998417358
 30
0.0
 10
-0.9365392769371813
 20
27.937562744570332
 30
0.0
 10
-1.3321483892991253
 20
27.18981039713753
 30
0.0
 10
-1.7762889517017733
 20
26.0839567475784
 30
0.0
 10
-2.0300311359674192
 20
25.19210811740213
 30
0.0
 10
-2.1437731950437553
 20
24.53916568546687
 30
0.0
 10
-2.170737441279249
 20
24.141771594616806
 30
0.0
 10
-2.153240532685563
 20
23.668726103827417
 30
0.0
 10
-2.2431914920515212
 20
23.073957149384825
 30
0.0
 10
-2.4528533469406146
 20
22.764874383891158
 30
0.0
 10
-4.701930900309106
 20
22.40865549435433
 30
0.0
 10
-4.996843000825821
 20
22.63782159631879
 30
0.0
 10
-5.266185161527344
 20
23.175684111027007
 30
0.0
 10
-5.395723708360491
 20
23.63098394965067
 30
0.0
 10
-5.544169757986655
 20
24.00059577896362
 30
0.0
 10
-5.8541151922645245
 20
24.586432704391452
 30
0.0
 10
-6.371034733203998
 20
25.35622050854185
 30
0.0
 10
-7.135165080233627
 20
26.270702846350513
 30
0.0
 10
-7.742479887391169
 20
26.859607650101545
 30
0.0
 10
-8.655958459134498
 20
26.640300848151124
 30
0.0
 10
-9.523883451586087
 20
26.28079454515511
 30
0.0
 10
-9.66906189286316
 20
25.44738986370472
 30
0.0
 10
-9.749737097881866
 20
24.25841356254907
 30
0.0
 10
-9.71546387255219
 20
23.331804464143122
 30
0.0
 10
-9.621868691197063
 20
22.675671080255697
 30
0.0
 10
-9.524711685749464
 20
22.289394430288276
 30
0.0
 10
-9.36189204105006
 20
21.844908275873465
 30
0.0
 10
-9.263646772452676
 20
21.251453010956368
 30
0.0
 10
-9.367535218557526
 20
20.892708756526186
 30
0.0
 10
-11.396457390757542
 20
19.858921274746674
 30
0.0
 10
-11.747751685729932
 20
19.985738338427453
 30
0.0
 10
-12.170119960460216
 20
20.41404468295316
 30
0.0
 10
-12.43401382720817
 20
20.807030948946252
 30
0.0
 10
-12.68941074660312
 20
21.112680335631794
 30
0.0
 10
-13.165219937458588
 20
21.574065954525462
 30
0.0
 10
-13.894717148814419
 20
22.146440738952442
 30
0.0
 10
-14.90403887809443
 20
22.78003586221242
 30
0.0
 10
-15.66361117531226
 20
23.15244701695013
 30
0.0
 10
-16.464611394680045
 20
22.661593451221293
 30
0.0
 10
-17.17896355719587
 20
22.051479066597466
 30
0.0
 10
-17.059500250038198
 20
21.214001508021703
 30
0.0
 10
-16.76881304650852
 20
20.05828783971165
 30
0.0
 10
-16.449879313674394
 20
19.187621227693207
 30
0.0
 10
-16.15810864035482
 20
18.592523799018622
 30
0.0
 10
-15.946340787850001
 20
18.25517603978033
 30
0.0
 10
-15.654136328299229
 20
17.882758623451355
 30
0.0
 10
-15.377311763143847
 20
17.34870858423581
 30
0.0
 10
-15.365257475526349
 20
16.97541922801093
 30
0.0
 10
-16.975419228010935
 20
15.36525747552623
 30
0.0
 10
-17.348708584235833
 20
15.377311763143817
 30
0.0
 10
-17.882758623451465
 20
15.654136328299066
 30
0.0
 10
-18.255176039780252
 20
15.94634078784986
 30
0.0
 10
-18.59252379901864
 20
16.158108640354715
 30
0.0
 10
-19.187621227693203
 20
16.44987931367428
 30
0.0
 10
-20.05828783971194
 20
16.768813046508505
 30
0.0
 10
-21.214001508022413
 20
17.059500250038305
 30
0.0
 10
-22.05147906659746
 20
17.178963557195882
 30
0.0
 10
-22.661593451221286
 20
16.46461139468005
 30
0.0
 10
-23.152447016950127
 20
15.663611175312264
 30
0.0
 10
-22.7800358622121
 20
14.904038878093786
 30
0.0
 10
-22.146440738952364
 20
13.89471714881413
 30
0.0
 10
-21.574065954525572
 20
13.16521993745855
 30
0.0
 10
-21.112680335631886
 20
12.689410746603066
 30
0.0
 10
-20.80703094894641
 20
12.434013827208197
 30
0.0
 10
-20.414044682953282
 20
12.170119960460058
 30
0.0
 10
-19.98573833842747
 20
11.747751685729897
 30
0.0
 10
-19.85892127474678
 20
11.396457390757496
 30
0.0
 10
-20.892708756526158
 20
9.36753521855741
 30
0.0
 10
-21.251453010956382
 20
9.263646772452637
 30
0.0
 10
-21.84490827587352
 20
9.36189204104987
 30
0.0
 10
-22.289394430288162
 20
9.524711685749352
 30
0.0
 10
-22.675671080255682
 20
9.621868691196953
 30
0.0
 10
-23.331804464143083
 20
9.715463872552077
 30
0.0
 10
-24.258413562549343
 20
9.749737097881757
 30
0.0
 10
-25.447389863705432
 20
9.669061892863038
 30
0.0
 10
-26.280794545155107
 20
9.523883451586093
 30
0.0
 10
-26.640300848151124
 20
8.655958459134503
 30
0.0
 10
-26.85960765010154
 20
7.742479887391173
 30
0.0
 10
-26.27070284635001
 20
7.13516508023311
 30
0.0
 10
-25.356220508541686
 20
6.371034733203747
 30
0.0
 10
-24.586432704391544
 20
5.854115192264455
 30
0.0
 10
-24.000595778963696
 20
5.544169757986574
 30
0.0
 10
-23.63098394965083
 20
5.395723708360468
 30
0.0
 10
-23.17568411102707
 20
5.266185161527156
 30
0.0
 10
-22.637821596318798
 20
4.9968430008257805
 30
0.0
 10
-22.408655494354424
 20
4.70193090030903
 30
0.0
 10
-22.764874383891094
 20
2.452853346940514
 30
0.0
 10
-23.073957149384828
 20
2.2431914920514804
 30
0.0
 10
-23.668726103827414
 20
2.1532405326853663
 30
0.0
 10
-24.14177159461666
 20
2.170737441279179
 30
0.0
 10
-24.539165685466823
 20
2.1437731950436567
 30
0.0
 10
-25.192108117402064
 20
2.0300311359673255
 30
0.0
 10
-26.08395674757863
 20
1.7762889517015863
 30
0.0
 10
-27.189810397138167
 20
1.3321483892987902
 30
0.0
 10
-27.93756274457033
 20
0.936539276937187
 30
0.0
 10
-28.01126998417358
 20
-8.820622963909527e-15
 30
0.0
 10
-27.937562744570332
 20
-0.9365392769371929
 30
0.0
 10
-27.18981039713753
 20
-1.3321483892991368
 30
0.0
 10
-26.083956747578398
 20
-1.776288951701784
 30
0.0
 10
-25.192108117402135
 20
-2.03003113596743
 30
0.0
 10
-24.53916568546687
 20
-2.143773195043765
 30
0.0
 10
-24.141771594616806
 20
-2.170737441279258
 30
0.0
 10
-23.66872610382742
 20
-2.153240532685573
 30
0.0
 10
-23.07395714938482
 20
-2.24319149205153
 30
0.0
 10
-22.764874383891158
 20
-2.4528533469406244
 30
0.0
 10
-22.40865549435433
 20
-4.701930900309116
 30
0.0
 10
-22.637821596318787
 20
-4.99684300082583
 30
0.0
 10
-23.175684111027007
 20
-5.266185161527353
 30
0.0
 10
-23.630983949650673
 20
-5.395723708360501
 30
0.0
 10
-24.00059577896362
 20
-5.544169757986665
 30
0.0
 10
-24.58643270439145
 20
-5.854115192264534
 30
0.0
 10
-25.356220508541846
 20
-6.371034733204007
 30
0.0
 10
-26.27070284635051
 20
-7.135165080233637
 30
0.0
 10
-26.85960765010154
 20
-7.7424798873911795
 30
0.0
 10
-26.640300848151124
 20
-8.655958459134498
 30
0.0
 10
-26.28079454515511
 20
-9.523883451586087
 30
0.0
 10
-25.44738986370472
 20
-9.66906189286316
 30
0.0
 10
-24.25841356254907
 20
-9.749737097881866
 30
0.0
 10
-23.331804464143122
 20
-9.71546387255219
 30
0.0
 10
-22.675671080255697
 20
-9.621868691197063
 30
0.0
 10
-22.289394430288276
 20
-9.524711685749464
 30
0.0
 10
-21.844908275873465
 20
-9.36189204105006
 30
0.0
 10
-21.251453010956368
 20
-9.263646772452676
 30
0.0
 10
-20.892708756526186
 20
-9.367535218557526
 30
0.0
 10
-19.858921274746674
 20
-11.396457390757542
 30
0.0
 10
-19.985738338427453
 20
-11.747751685729932
 30
0.0
 10
-20.41404468295316
 20
-12.170119960460216
 30
0.0
 10
-20.807030948946252
 20
-12.43401382720817
 30
0.0
 10
-21.112680335631794
 20
-12.68941074660312
 30
0.0
 10
-21.574065954525462
 20
-13.165219937458588
 30
0.0
 10
-22.146440738952442
 20
-13.894717148814419
 30
0.0
 10
-22.78003586221242
 20
-14.90403887809443
 30
0.0
 10
-23.15244701695013
 20
-15.66361117531226
 30
0.0
 10
-22.661593451221293
 20
-16.464611394680045
 30
0.0
 10
-22.051479066597466
 20
-17.17896355719587
 30
0.0
 10
-21.214001508021703
 20
-17.059500250038198
 30
0.0
 10
-20.05828783971165
 20
-16.76881304650852
 30
0.0
 10
-19.187621227693207
 20
-16.449879313674394
 30
0.0
 10
-18.592523799018622
 20
-16.15810864035482
 30
0.0
 10
-18.25517603978033
 20
-15.946340787850001
 30
0.0
 10
-17.882758623451355
 20
-15.654136328299229
 30
0.0
 10
-17.34870858423581
 20
-15.377311763143847
 30
0.0
 10
-16.97541922801093
 20
-15.365257475526349
 30
0.0
 10
-15.36525747552623
 20
-16.975419228010935
 30
0.0
 10
-15.377311763143817
 20
-17.348708584235833
 30
0.0
 10
-15.654136328299066
 20
-17.882758623451465
 30
0.0
 10
-15.94634078784986
 20
-18.255176039780252
 30
0.0
 10
-16.158108640354715
 20
-18.59252379901864
 30
0.0
 10
-16.44987931367428
 20
-19.187621227693203
 30
0.0
 10
-16.768813046508505
 20
-20.05828783971194
 30
0.0
 10
-17.059500250038305
 20
-21.214001508022413
 30
0.0
 10
-17.178963557195882
 20
-22.05147906659746
 30
0.0
 10
-16.46461139468005
 20
-22.661593451221286
 30
0.0
 10
-15.663611175312264
 20
-23.152447016950127
 30
0.0
 10
-14.904038878093786
 20
-22.7800358622121
 30
0.0
 10
-13.894717148814133
 20
-22.146440738952364
 30
0.0
 10
-13.16521993745855
 20
-21.574065954525572
 30
0.0
 10
-12.689410746603068
 20
-21.112680335631886
 30
0.0
 10
-12.434013827208199
 20
-20.80703094894641
 30
0.0
 10
-12.170119960460058
 20
-20.414044682953282
 30
0.0
 10
-11.747751685729897
 20
-19.98573833842747
 30
0.0
 10
-11.396457390757496
 20
-19.85892127474678
 30
0.0
 10
-9.367535218557412
 20
-20.892708756526158
 30
0.0
 10
-9.263646772452638
 20
-21.251453010956382
 30
0.0
 10
-9.361892041049872
 20
-21.84490827587352
 30
0.0
 10
-9.524711685749352
 20
-22.289394430288162
 30
0.0
 10
-9.621868691196955
 20
-22.675671080255682
 30
0.0
 10
-9.715463872552078
 20
-23.331804464143083
 30
0.0
 10
-9.749737097881757
 20
-24.258413562549343
 30
0.0
 10
-9.66906189286304
 20
-25.447389863705432
 30
0.0
 10
-9.523883451586093
 20
-26.280794545155107
 30
0.0
 10
-8.655958459134505
 20
-26.640300848151124
 30
0.0
 10
-7.742479887391175
 20
-26.85960765010154
 30
0.0
 10
-7.135165080233111
 20
-26.27070284635001
 30
0.0
 10
-6.371034733203749
 20
-25.356220508541686
 30
0.0
 10
-5.854115192264457
 20
-24.586432704391544
 30
0.0
 10
-5.544169757986576
 20
-24.000595778963696
 30
0.0
 10
-5.39572370836047
 20
-23.63098394965083
 30
0.0
 10
-5.266185161527158
 20
-23.17568411102707
 30
0.0
 10
-4.996843000825782
 20
-22.637821596318798
 30
0.0
 10
-4.701930900309032
 20
-22.408655494354424
 30
0.0
 10
-2.452853346940515
 20
-22.764874383891094
 30
0.0
 10
-2.243191492051482
 20
-23.073957149384828
 30
0.0
 10
-2.1532405326853676
 20
-23.668726103827414
 30
0.0
 10
-2.1707374412791802
 20
-24.14177159461666
 30
0.0
 10
-2.143773195043658
 20
-24.539165685466823
 30
0.0
 10
-2.030031135967327
 20
-25.192108117402064
 30
0.0
 10
-1.776288951701588
 20
-26.08395674757863
 30
0.0
 10
-1.3321483892987918
 20
-27.189810397138167
 30
0.0
 10
-0.9365392769371886
 20
-27.93756274457033
 30
0.0
 10
-5.3902317512924765e-15
 20
-28.01126998417358
 30
0.0
 10
0.9365392769371778
 20
-27.937562744570332
 30
0.0
 10
1.3321483892991217
 20
-27.189810397137528
 30
0.0
 10
1.7762889517017697
 20
-26.0839567475784
 30
0.0
 10
2.0300311359674166
 20
-25.19210811740213
 30
0.0
 10
2.1437731950437526
 20
-24.53916568546687
 30
0.0
 10
2.1707374412792464
 20
-24.141771594616806
 30
0.0
 10
2.1532405326855604
 20
-23.668726103827417
 30
0.0
 10
2.2431914920515186
 20
-23.073957149384825
 30
0.0
 10
2.452853346940612
 20
-22.764874383891158
 30
0.0
 10
4.7019309003091045
 20
-22.40865549435433
 30
0.0
 10
4.996843000825819
 20
-22.63782159631879
 30
0.0
 10
5.266185161527341
 20
-23.175684111027007
 30
0.0
 10
5.395723708360489
 20
-23.63098394965067
 30
0.0
 10
5.544169757986651
 20
-24.00059577896362
 30
0.0
 10
5.854115192264522
 20
-24.586432704391452
 30
0.0
 10
6.371034733203994
 20
-25.35622050854185
 30
0.0
 10
7.135165080233623
 20
-26.270702846350513
 30
0.0
 10
7.742479887391165
 20
-26.859607650101545
 30
0.0
 10
8.655958459134494
 20
-26.640300848151128
 30
0.0
 10
9.523883451586082
 20
-26.280794545155114
 30
0.0
 10
9.669061892863159
 20
-25.44738986370472
 30
0.0
 10
9.74973709788186
 20
-24.258413562549073
 30
0.0
 10
9.715463872552185
 20
-23.331804464143122
 30
0.0
 10
9.62186869119706
 20
-22.675671080255697
 30
0.0
 10
9.52471168574946
 20
-22.289394430288276
 30
0.0
 10
9.361892041050059
 20
-21.844908275873465
 30
0.0
 10
9.263646772452672
 20
-21.251453010956368
 30
0.0
 10
9.367535218557524
 20
-20.892708756526186
 30
0.0
 10
11.396457390757538
 20
-19.858921274746674
 30
0.0
 10
11.747751685729929
 20
-19.985738338427456
 30
0.0
 10
12.170119960460214
 20
-20.41404468295316
 30
0.0
 10
12.434013827208169
 20
-20.807030948946252
 30
0.0
 10
12.689410746603116
 20
-21.112680335631794
 30
0.0
 10
13.165219937458584
 20
-21.574065954525466
 30
0.0
 10
13.894717148814413
 20
-22.146440738952442
 30
0.0
 10
14.90403887809443
 20
-22.78003586221242
 30
0.0
 10
15.663611175312257
 20
-23.15244701695013
 30
0.0
 10
16.46461139468004
 20
-22.661593451221293
 30
0.0
 10
17.17896355719587
 20
-22.05147906659747
 30
0.0
 10
17.059500250038198
 20
-21.214001508021706
 30
0.0
 10
16.76881304650852
 20
-20.05828783971165
 30
0.0
 10
16.449879313674394
 20
-19.187621227693207
 30
0.0
 10
16.15810864035482
 20
-18.592523799018622
 30
0.0
 10
15.946340787850001
 20
-18.25517603978033
 30
0.0
 10
15.654136328299227
 20
-17.88275862345136
 30
0.0
 10
15.377311763143847
 20
-17.348708584235812
 30
0.0
 10
15.365257475526349
 20
-16.975419228010935
 30
0.0
 10
16.975419228010935
 20
-15.365257475526233
 30
0.0
 10
17.348708584235833
 20
-15.377311763143819
 30
0.0
 10
17.882758623451465
 20
-15.654136328299069
 30
0.0
 10
18.255176039780252
 20
-15.946340787849863
 30
0.0
 10
18.59252379901864
 20
-16.158108640354715
 30
0.0
 10
19.187621227693203
 20
-16.44987931367428
 30
0.0
 10
20.05828783971194
 20
-16.76881304650851
 30
0.0
 10
21.214001508022413
 20
-17.059500250038305
 30
0.0
 10
22.05147906659746
 20
-17.178963557195882
 30
0.0
 10
22.661593451221286
 20
-16.464611394680052
 30
0.0
 10
23.152447016950127
 20
-15.663611175312266
 30
0.0
 10
22.7800358622121
 20
-14.904038878093788
 30
0.0
 10
22.146440738952364
 20
-13.894717148814134
 30
0.0
 10
21.574065954525572
 20
-13.165219937458554
 30
0.0
 10
21.112680335631886
 20
-12.689410746603068
 30
0.0
 10
20.80703094894641
 20
-12.434013827208199
 30
0.0
 10
20.41404468295328
 20
-12.17011996046006
 30
0.0
 10
19.98573833842747
 20
-11.747751685729899
 30
0.0
 10
19.85892127474678
 20
-11.396457390757499
 30
0.0
 10
20.892708756526158
 20
-9.367535218557412
 30
0.0
 10
21.251453010956382
 20
-9.263646772452638
 30
0.0
 10
21.84490827587352
 20
-9.361892041049874
 30
0.0
 10
22.28939443028816
 20
-9.524711685749354
 30
0.0
 10
22.675671080255682
 20
-9.621868691196957
 30
0.0
 10
23.331804464143083
 20
-9.71546387255208
 30
0.0
 10
24.258413562549343
 20
-9.749737097881761
 30
0.0
 10
25.447389863705432
 20
-9.669061892863041
 30
0.0
 10
26.280794545155107
 20
-9.523883451586096
 30
0.0
  0
LWPOLYLINE
  8
OpenJsCad
  90
31
  70
1
 10
0.10395584540887969
 20
-0.48907380036690284
 30
0.0
 10
3.061616997868383e-17
 20
-0.5
 30
0.0
 10
-0.10395584540887946
 20
-0.48907380036690284
 30
0.0
 10
-0.20336832153790005
 20
-0.4567727288213005
 30
0.0
 10
-0.2938926261462367
 20
-0.40450849718747367
 30
0.0
 10
-0.371572412738697
 20
-0.33456530317942923
 30
0.0
 10
-0.4330127018922193
 20
-0.25000000000000006
 30
0.0
 10
-0.4755282581475768
 20
-0.15450849718747364
 30
0.0
 10
-0.4972609476841367
 20
-0.05226423163382652
 30
0.0
 10
-0.49726094768413664
 20
0.05226423163382709
 30
0.0
 10
-0.47552825814757677
 20
0.15450849718747375
 30
0.0
 10
-0.43301270189221924
 20
0.2500000000000002
 30
0.0
 10
-0.371572412738697
 20
0.33456530317942923
 30
0.0
 10
-0.2938926261462365
 20
0.4045084971874737
 30
0.0
 10
-0.20336832153790013
 20
0.45677272882130043
 30
0.0
 10
-0.10395584540887956
 20
0.48907380036690284
 30
0.0
 10
2.5266077490371514e-16
 20
0.5
 30
0.0
 10
0.10395584540887963
 20
0.48907380036690284
 30
0.0
 10
0.2033683215379
 20
0.4567727288213005
 30
0.0
 10
0.2938926261462366
 20
0.40450849718747367
 30
0.0
 10
0.37157241273869723
 20
0.33456530317942895
 30
0.0
 10
0.43301270189221935
 20
0.24999999999999992
 30
0.0
 10
0.4755282581475768
 20
0.1545084971874737
 30
0.0
 10
0.4972609476841367
 20
0.052264231633826694
 30
0.0
 10
0.49726094768413664
 20
-0.0522642316338267
 30
0.0
 10
0.47552825814757677
 20
-0.1545084971874737
 30
0.0
 10
0.4330127018922193
 20
-0.25000000000000006
 30
0.0
 10
0.3715724127386971
 20
-0.3345653031794291
 30
0.0
 10
0.29389262614623657
 20
-0.4045084971874737
 30
0.0
 10
0.2033683215379001
 20
-0.45677272882130043
 30
0.0
 10
0.10395584540887969
 20
-0.48907380036690284
 30
0.0
  0
LWPOLYLINE
  8
OpenJsCad
  90
229
  70
1
 10
23.81530623244595
 20
5.409238575089372
 30
0.0
 10
23.525696001154003
 20
4.613541004171724
 30
0.0
 10
23.37865703318989
 20
3.7796415783815007
 30
0.0
 10
23.815064262404334
 20
3.2797006347076385
 30
0.0
 10
24.914724146445984
 20
2.392966048474426
 30
0.0
 10
25.765074125408955
 20
1.923901530707663
 30
0.0
 10
26.26621765827511
 20
1.7525003477700496
 30
0.0
 10
26.353307623573798
 20
1.7388908869047492
 30
0.0
 10
26.612595397835335
 20
1.7439522167197854
 30
0.0
 10
27.593174035472252
 20
1.5451382157093896
 30
0.0
 10
28.061269984173578
 20
1.1385562939891836
 30
0.0
 10
28.06126998417357
 20
-1.1385562939891605
 30
0.0
 10
27.59317403547235
 20
-1.545138215709939
 30
0.0
 10
26.612595397835335
 20
-1.7439522167197963
 30
0.0
 10
26.353307623573812
 20
-1.738890886904766
 30
0.0
 10
26.266217658275092
 20
-1.7525003477700343
 30
0.0
 10
25.765074125408923
 20
-1.9239015307076544
 30
0.0
 10
24.91472414644604
 20
-2.3929660484743827
 30
0.0
 10
23.81506426240434
 20
-3.2797006347076323
 30
0.0
 10
23.378657033189892
 20
-3.7796415783815043
 30
0.0
 10
23.525696001154
 20
-4.61354100417172
 30
0.0
 10
23.815306232445945
 20
-5.409238575089366
 30
0.0
 10
24.44321645117776
 20
-5.623996518095676
 30
0.0
 10
25.83891713939709
 20
-5.842101254167094
 30
0.0
 10
26.809874082169966
 20
-5.823148053085523
 30
0.0
 10
27.329577704043146
 20
-5.7210140653151225
 30
0.0
 10
27.411804556839165
 20
-5.689255221506937
 30
0.0
 10
27.633823691332857
 20
-5.555228094179418
 30
0.0
 10
28.582436702439963
 20
-5.2371167508639855
 30
0.0
 10
29.19111064628399
 20
-5.355179049442518
 30
0.0
 10
30.329666940273157
 20
-7.327216397909096
 30
0.0
 10
30.12757491814972
 20
-7.913374645189394
 30
0.0
 10
29.37777590805265
 20
-8.575841939510466
 30
0.0
 10
29.150695443743935
 20
-8.701102586444478
 30
0.0
 10
29.08207805181317
 20
-8.75643370793497
 30
0.0
 10
28.733775612877597
 20
-9.155443253030738
 30
0.0
 10
28.231883187871542
 20
-9.986840030912063
 30
0.0
 10
27.722917085885406
 20
-11.304604651025187
 30
0.0
 10
27.594947810827446
 20
-11.955769823245953
 30
0.0
 10
28.13923700532572
 20
-12.604428426199485
 30
0.0
 10
28.787895608279257
 20
-13.148717620697763
 30
0.0
 10
29.439060780500007
 20
-13.020748345639806
 30
0.0
 10
30.756825400613074
 20
-12.511782243653693
 30
0.0
 10
31.588222178494476
 20
-12.00988981864758
 30
0.0
 10
31.98723172359023
 20
-11.661587379712014
 30
0.0
 10
32.04256284508074
 20
-11.592969987781292
 30
0.0
 10
32.16782349201475
 20
-11.365889523472562
 30
0.0
 10
32.830290786336235
 20
-10.61609051337585
 30
0.0
 10
33.41644903361609
 20
-10.41399849125203
 30
0.0
 10
35.38848638208266
 20
-11.552554785241211
 30
0.0
 10
35.506548680661744
 20
-12.161228729085428
 30
0.0
 10
35.188437337345796
 20
-13.109841740192353
 30
0.0
 10
35.05441021001829
 20
-13.33186087468604
 30
0.0
 10
35.02265136621006
 20
-13.41408772748207
 30
0.0
 10
34.92051737843966
 20
-13.933791349355264
 30
0.0
 10
34.901564177358104
 20
-14.90474829212805
 30
0.0
 10
35.11966891342953
 20
-16.300448980347433
 30
0.0
 10
35.33442685643584
 20
-16.92835919907926
 30
0.0
 10
36.13012442735348
 20
-17.217969430371205
 30
0.0
 10
36.96402385314371
 20
-17.36500839833532
 30
0.0
 10
37.46396479681757
 20
-16.928601169120874
 30
0.0
 10
38.35069938305078
 20
-15.828941285079226
 30
0.0
 10
38.81976390081754
 20
-14.978591306116254
 30
0.0
 10
38.991165083755156
 20
-14.4774477732501
 30
0.0
 10
39.00477454462046
 20
-14.390357807951409
 30
0.0
 10
38.999713214805425
 20
-14.131070033689875
 30
0.0
 10
39.198527215815815
 20
-13.150491396052955
 30
0.0
 10
39.605109137536026
 20
-12.682395447351631
 30
0.0
 10
41.88222172551437
 20
-12.682395447351642
 30
0.0
 10
42.28880364723515
 20
-13.150491396052855
 30
0.0
 10
42.487617648245006
 20
-14.131070033689875
 30
0.0
 10
42.48255631842997
 20
-14.390357807951396
 30
0.0
 10
42.49616577929524
 20
-14.477447773250116
 30
0.0
 10
42.66756696223286
 20
-14.978591306116286
 30
0.0
 10
43.13663147999959
 20
-15.828941285079168
 30
0.0
 10
44.02336606623284
 20
-16.928601169120867
 30
0.0
 10
44.52330700990671
 20
-17.365008398335316
 30
0.0
 10
45.357206435696924
 20
-17.21796943037121
 30
0.0
 10
46.15290400661457
 20
-16.928359199079264
 30
0.0
 10
46.36766194962088
 20
-16.300448980347443
 30
0.0
 10
46.5857666856923
 20
-14.90474829212812
 30
0.0
 10
46.566813484610734
 20
-13.933791349355243
 30
0.0
 10
46.46467949684033
 20
-13.414087727482066
 30
0.0
 10
46.43292065303214
 20
-13.331860874686045
 30
0.0
 10
46.29889352570463
 20
-13.109841740192348
 30
0.0
 10
45.98078218238919
 20
-12.161228729085241
 30
0.0
 10
46.09884448096773
 20
-11.552554785241217
 30
0.0
 10
48.0708818294343
 20
-10.413998491252052
 30
0.0
 10
48.6570400767146
 20
-10.616090513375491
 30
0.0
 10
49.31950737103567
 20
-11.365889523472559
 30
0.0
 10
49.444768017969686
 20
-11.592969987781277
 30
0.0
 10
49.500099139460175
 20
-11.661587379712037
 30
0.0
 10
49.89910868455594
 20
-12.009889818647613
 30
0.0
 10
50.730505462437264
 20
-12.511782243653666
 30
0.0
 10
52.048270082550395
 20
-13.020748345639804
 30
0.0
 10
52.69943525477116
 20
-13.148717620697763
 30
0.0
 10
53.34809385772469
 20
-12.604428426199483
 30
0.0
 10
53.892383052222975
 20
-11.955769823245953
 30
0.0
 10
53.76441377716502
 20
-11.304604651025201
 30
0.0
 10
53.2554476751789
 20
-9.986840030912129
 30
0.0
 10
52.75355525017279
 20
-9.155443253030729
 30
0.0
 10
52.405252811237226
 20
-8.756433707934976
 30
0.0
 10
52.3366354193065
 20
-8.701102586444472
 30
0.0
 10
52.109554954997776
 20
-8.575841939510457
 30
0.0
 10
51.35975594490106
 20
-7.9133746451889655
 30
0.0
 10
51.15766392277724
 20
-7.327216397909113
 30
0.0
 10
52.29622021676642
 20
-5.355179049442544
 30
0.0
 10
52.90489416061064
 20
-5.237116750863459
 30
0.0
 10
53.85350717171756
 20
-5.555228094179409
 30
0.0
 10
54.07552630621125
 20
-5.689255221506917
 30
0.0
 10
54.15775315900728
 20
-5.721014065315145
 30
0.0
 10
54.677456780880476
 20
-5.823148053085546
 30
0.0
 10
55.648413723653256
 20
-5.842101254167103
 30
0.0
 10
57.04411441187264
 20
-5.623996518095675
 30
0.0
 10
57.67202463060447
 20
-5.409238575089362
 30
0.0
 10
57.961634861896414
 20
-4.613541004171726
 30
0.0
 10
58.10867382986053
 20
-3.7796415783815034
 30
0.0
 10
57.67226660064608
 20
-3.2797006347076403
 30
0.0
 10
56.57260671660443
 20
-2.392966048474428
 30
0.0
 10
55.72225673764146
 20
-1.9239015307076648
 30
0.0
 10
55.22111320477531
 20
-1.7525003477700514
 30
0.0
 10
55.13402323947662
 20
-1.738890886904751
 30
0.0
 10
54.87473546521508
 20
-1.7439522167197872
 30
0.0
 10
53.894156827578165
 20
-1.5451382157093914
 30
0.0
 10
53.42606087887684
 20
-1.1385562939891853
 30
0.0
 10
53.426060878876854
 20
1.1385562939891591
 30
0.0
 10
53.894156827578065
 20
1.5451382157099376
 30
0.0
 10
54.87473546521508
 20
1.7439522167197945
 30
0.0
 10
55.134023239476605
 20
1.7388908869047641
 30
0.0
 10
55.22111320477532
 20
1.7525003477700327
 30
0.0
 10
55.722256737641494
 20
1.9239015307076526
 30
0.0
 10
56.572606716604376
 20
2.3929660484743804
 30
0.0
 10
57.672266600646076
 20
3.2797006347076305
 30
0.0
 10
58.10867382986052
 20
3.7796415783815016
 30
0.0
 10
57.961634861896414
 20
4.613541004171724
 30
0.0
 10
57.67202463060447
 20
5.409238575089369
 30
0.0
 10
57.04411441187265
 20
5.623996518095678
 30
0.0
 10
55.64841372365333
 20
5.842101254167096
 30
0.0
 10
54.67745678088045
 20
5.823148053085526
 30
0.0
 10
54.15775315900727
 20
5.721014065315127
 30
0.0
 10
54.07552630621125
 20
5.689255221506941
 30
0.0
 10
53.85350717171755
 20
5.55522809417942
 30
0.0
 10
52.904894160610446
 20
5.237116750863987
 30
0.0
 10
52.29622021676642
 20
5.355179049442519
 30
0.0
 10
51.15766392277726
 20
7.327216397909099
 30
0.0
 10
51.3597559449007
 20
7.9133746451893945
 30
0.0
 10
52.10955495499776
 20
8.575841939510468
 30
0.0
 10
52.33663541930648
 20
8.701102586444481
 30
0.0
 10
52.40525281123725
 20
8.756433707934974
 30
0.0
 10
52.753555250172816
 20
9.15544325303074
 30
0.0
 10
53.25544767517887
 20
9.986840030912065
 30
0.0
 10
53.76441377716501
 20
11.30460465102519
 30
0.0
 10
53.89238305222297
 20
11.955769823245955
 30
0.0
 10
53.348093857724706
 20
12.604428426199483
 30
0.0
 10
52.69943525477117
 20
13.14871762069776
 30
0.0
 10
52.04827008255042
 20
13.020748345639802
 30
0.0
 10
50.73050546243735
 20
12.511782243653691
 30
0.0
 10
49.89910868455595
 20
12.009889818647578
 30
0.0
 10
49.50009913946019
 20
11.661587379712014
 30
0.0
 10
49.444768017969686
 20
11.59296998778129
 30
0.0
 10
49.31950737103567
 20
11.36588952347256
 30
0.0
 10
48.65704007671418
 20
10.616090513375848
 30
0.0
 10
48.07088182943433
 20
10.413998491252029
 30
0.0
 10
46.098844480967756
 20
11.55255478524121
 30
0.0
 10
45.98078218238867
 20
12.161228729085426
 30
0.0
 10
46.29889352570463
 20
13.10984174019235
 30
0.0
 10
46.432920653032134
 20
13.331860874686038
 30
0.0
 10
46.46467949684036
 20
13.41408772748207
 30
0.0
 10
46.56681348461076
 20
13.933791349355262
 30
0.0
 10
46.58576668569232
 20
14.904748292128048
 30
0.0
 10
46.367661949620896
 20
16.30044898034743
 30
0.0
 10
46.15290400661458
 20
16.928359199079264
 30
0.0
 10
45.35720643569694
 20
17.217969430371205
 30
0.0
 10
44.523307009906716
 20
17.36500839833532
 30
0.0
 10
44.02336606623285
 20
16.928601169120874
 30
0.0
 10
43.136631479999636
 20
15.828941285079225
 30
0.0
 10
42.667566962232875
 20
14.978591306116254
 30
0.0
 10
42.49616577929526
 20
14.477447773250098
 30
0.0
 10
42.482556318429964
 20
14.390357807951407
 30
0.0
 10
42.487617648245
 20
14.131070033689873
 30
0.0
 10
42.2888036472346
 20
13.150491396052953
 30
0.0
 10
41.88222172551439
 20
12.682395447351631
 30
0.0
 10
39.60510913753605
 20
12.682395447351642
 30
0.0
 10
39.198527215815275
 20
13.150491396052855
 30
0.0
 10
38.99971321480542
 20
14.131070033689875
 30
0.0
 10
39.004774544620446
 20
14.390357807951396
 30
0.0
 10
38.99116508375518
 20
14.477447773250116
 30
0.0
 10
38.819763900817556
 20
14.978591306116286
 30
0.0
 10
38.35069938305083
 20
15.828941285079168
 30
0.0
 10
37.46396479681758
 20
16.928601169120867
 30
0.0
 10
36.96402385314371
 20
17.365008398335316
 30
0.0
 10
36.130124427353486
 20
17.21796943037121
 30
0.0
 10
35.33442685643584
 20
16.92835919907926
 30
0.0
 10
35.11966891342953
 20
16.30044898034744
 30
0.0
 10
34.90156417735811
 20
14.904748292128119
 30
0.0
 10
34.92051737843968
 20
13.933791349355243
 30
0.0
 10
35.022651366210084
 20
13.414087727482066
 30
0.0
 10
35.05441021001827
 20
13.331860874686043
 30
0.0
 10
35.18843733734579
 20
13.109841740192346
 30
0.0
 10
35.50654868066122
 20
12.16122872908524
 30
0.0
 10
35.38848638208269
 20
11.552554785241213
 30
0.0
 10
33.41644903361611
 20
10.41399849125205
 30
0.0
 10
32.830290786335816
 20
10.61609051337549
 30
0.0
 10
32.16782349201474
 20
11.365889523472555
 30
0.0
 10
32.042562845080724
 20
11.592969987781274
 30
0.0
 10
31.987231723590234
 20
11.661587379712037
 30
0.0
 10
31.58822217849447
 20
12.00988981864761
 30
0.0
 10
30.756825400613145
 20
12.511782243653665
 30
0.0
 10
29.439060780500018
 20
13.0207483456398
 30
0.0
 10
28.787895608279253
 20
13.14871762069776
 30
0.0
 10
28.139237005325732
 20
12.604428426199492
 30
0.0
 10
27.594947810827453
 20
11.955769823245959
 30
0.0
 10
27.722917085885406
 20
11.304604651025207
 30
0.0
 10
28.23188318787152
 20
9.986840030912138
 30
0.0
 10
28.733775612877633
 20
9.155443253030736
 30
0.0
 10
29.0820780518132
 20
8.756433707934983
 30
0.0
 10
29.15069544374392
 20
8.701102586444478
 30
0.0
 10
29.37777590805265
 20
8.575841939510465
 30
0.0
 10
30.127574918149364
 20
7.9133746451889735
 30
0.0
 10
30.329666940273178
 20
7.327216397909119
 30
0.0
 10
29.191110646284
 20
5.355179049442551
 30
0.0
 10
28.582436702439782
 20
5.237116750863468
 30
0.0
 10
27.633823691332857
 20
5.555228094179418
 30
0.0
 10
27.411804556839172
 20
5.689255221506924
 30
0.0
 10
27.32957770404314
 20
5.721014065315151
 30
0.0
 10
26.809874082169948
 20
5.823148053085555
 30
0.0
 10
25.838917139397164
 20
5.842101254167114
 30
0.0
 10
24.44321645117778
 20
5.623996518095684
 30
0.0
 10
23.81530623244595
 20
5.409238575089372
 30
0.0
  0
LWPOLYLINE
  8
OpenJsCad
  90
31
  70
1
 10
40.516670181655435
 20
0.445503262094184
 30
0.0
 10
40.614255908973945
 20
0.48296291314453416
 30
0.0
 10
40.71749745340374
 20
0.4993147673772869
 30
0.0
 10
40.821882664045326
 20
0.49384417029756894
 30
0.0
 10
40.92284940629786
 20
0.4667902132486009
 30
0.0
 10
41.01598494903272
 20
0.41933528397271214
 30
0.0
 10
41.097218822118485
 20
0.35355339059327384
 30
0.0
 10
41.16300071549792
 20
0.2723195175075135
 30
0.0
 10
41.21045564477381
 20
0.17918397477264994
 30
0.0
 10
41.23750960182278
 20
0.07821723252011512
 30
0.0
 10
41.242980198902494
 20
-0.026167978121471938
 30
0.0
 10
41.22662834466974
 20
-0.12940952255126062
 30
0.0
 10
41.18916869361939
 20
-0.2269952498697735
 30
0.0
 10
41.13223841225369
 20
-0.31466019552491875
 30
0.0
 10
41.058325627050124
 20
-0.38857298072848545
 30
0.0
 10
40.97066068139498
 20
-0.445503262094184
 30
0.0
 10
40.87307495407647
 20
-0.4829629131445342
 30
0.0
 10
40.76983340964668
 20
-0.49931476737728697
 30
0.0
 10
40.66544819900509
 20
-0.4938441702975689
 30
0.0
 10
40.56448145675256
 20
-0.46679021324860087
 30
0.0
 10
40.4713459140177
 20
-0.4193352839727119
 30
0.0
 10
40.39011204093193
 20
-0.35355339059327373
 30
0.0
 10
40.324330147552494
 20
-0.27231951750751354
 30
0.0
 10
40.27687521827661
 20
-0.17918397477265013
 30
0.0
 10
40.24982126122764
 20
-0.07821723252011548
 30
0.0
 10
40.24435066414792
 20
0.026167978121471883
 30
0.0
 10
40.260702518380675
 20
0.12940952255126043
 30
0.0
 10
40.29816216943102
 20
0.22699524986977337
 30
0.0
 10
40.355092450796725
 20
0.31466019552491875
 30
0.0
 10
40.42900523600029
 20
0.38857298072848545
 30
0.0
 10
40.516670181655435
 20
0.445503262094184
 30
0.0
  0
ENDSEC
  0
EOF
