solid OpenSCAD_Model
  facet normal 0 1 0
    outer loop
      vertex -0.16985798 -1.6160975 -0.009999275
      vertex -0.16985798 -1.6160975 3
      vertex 0.16985798 -1.6160975 -0.009999275
    endloop
  endfacet
  facet normal 0 0 -1
    outer loop
      vertex -0.16985798 -1.6160975 -0.009999275
      vertex 0.16985798 -1.6160975 -0.009999275
      vertex 1.6499996 -2.8578835 -0.009999275
    endloop
  endfacet
  facet normal 0 1 0
    outer loop
      vertex -0.16985798 -1.6160975 3
      vertex 0.16985798 -1.6160975 3
      vertex 0.16985798 -1.6160975 -0.009999275
    endloop
  endfacet
  facet normal 0 0 1
    outer loop
      vertex -0.16985798 -1.6160975 3
      vertex 5 -2.5 3
      vertex 0.16985798 -1.6160975 3
    endloop
  endfacet
  facet normal 0 -1 0
    outer loop
      vertex -0.16985798 1.6160975 -0.009999275
      vertex 0.16985798 1.6160975 -0.009999275
      vertex 0.16985798 1.6160975 3
    endloop
  endfacet
  facet normal 0 -1 0
    outer loop
      vertex -0.16985798 1.6160975 -0.009999275
      vertex 0.16985798 1.6160975 3
      vertex -0.16985798 1.6160975 3
    endloop
  endfacet
  facet normal 0 0 -1
    outer loop
      vertex -0.16985798 1.6160975 -0.009999275
      vertex 1.6499996 2.8578835 -0.009999275
      vertex 0.16985798 1.6160975 -0.009999275
    endloop
  endfacet
  facet normal 0 0 1
    outer loop
      vertex -0.16985798 1.6160975 3
      vertex 0.16985798 1.6160975 3
      vertex 5 2.5 3
    endloop
  endfacet
  facet normal 0.20791073 0.9781478 0
    outer loop
      vertex -0.50215244 -1.5454664 -0.009999275
      vertex -0.50215244 -1.5454664 3
      vertex -0.16985798 -1.6160975 -0.009999275
    endloop
  endfacet
  facet normal 0.20791073 0.9781478 0
    outer loop
      vertex -0.50215244 -1.5454664 3
      vertex -0.16985798 -1.6160975 3
      vertex -0.16985798 -1.6160975 -0.009999275
    endloop
  endfacet
  facet normal 0.20791073 -0.9781478 0
    outer loop
      vertex -0.50215244 1.5454664 -0.009999275
      vertex -0.16985798 1.6160975 -0.009999275
      vertex -0.16985798 1.6160975 3
    endloop
  endfacet
  facet normal 0.20791073 -0.9781478 0
    outer loop
      vertex -0.50215244 1.5454664 -0.009999275
      vertex -0.16985798 1.6160975 3
      vertex -0.50215244 1.5454664 3
    endloop
  endfacet
  facet normal 0.40673745 0.9135451 0
    outer loop
      vertex -0.8125 -1.4072905 -0.009999275
      vertex -0.8125 -1.4072905 3
      vertex -0.50215244 -1.5454664 -0.009999275
    endloop
  endfacet
  facet normal 0.40673745 0.9135451 0
    outer loop
      vertex -0.8125 -1.4072905 3
      vertex -0.50215244 -1.5454664 3
      vertex -0.50215244 -1.5454664 -0.009999275
    endloop
  endfacet
  facet normal 0.40673745 -0.9135451 0
    outer loop
      vertex -0.8125 1.4072905 -0.009999275
      vertex -0.50215244 1.5454664 -0.009999275
      vertex -0.50215244 1.5454664 3
    endloop
  endfacet
  facet normal 0.40673745 -0.9135451 0
    outer loop
      vertex -0.8125 1.4072905 -0.009999275
      vertex -0.50215244 1.5454664 3
      vertex -0.8125 1.4072905 3
    endloop
  endfacet
  facet normal 0.58778507 0.8090171 0
    outer loop
      vertex -1.0873365 -1.2076101 -0.009999275
      vertex -1.0873365 -1.2076101 3
      vertex -0.8125 -1.4072905 -0.009999275
    endloop
  endfacet
  facet normal 0.58778507 0.8090171 0
    outer loop
      vertex -1.0873365 -1.2076101 3
      vertex -0.8125 -1.4072905 3
      vertex -0.8125 -1.4072905 -0.009999275
    endloop
  endfacet
  facet normal 0.58778507 -0.8090171 0
    outer loop
      vertex -1.0873365 1.2076101 -0.009999275
      vertex -0.8125 1.4072905 -0.009999275
      vertex -0.8125 1.4072905 3
    endloop
  endfacet
  facet normal 0.58778507 -0.8090171 0
    outer loop
      vertex -1.0873365 1.2076101 -0.009999275
      vertex -0.8125 1.4072905 3
      vertex -1.0873365 1.2076101 3
    endloop
  endfacet
  facet normal 0.74314433 0.66913116 0
    outer loop
      vertex -1.3146524 -0.9551506 -0.009999275
      vertex -1.0873365 -1.2076101 3
      vertex -1.0873365 -1.2076101 -0.009999275
    endloop
  endfacet
  facet normal 0.74314433 0.66913116 0
    outer loop
      vertex -1.3146524 -0.9551506 -0.009999275
      vertex -1.3146524 -0.9551506 3
      vertex -1.0873365 -1.2076101 3
    endloop
  endfacet
  facet normal 0.74314433 -0.66913116 0
    outer loop
      vertex -1.3146524 0.9551506 -0.009999275
      vertex -1.0873365 1.2076101 -0.009999275
      vertex -1.3146524 0.9551506 3
    endloop
  endfacet
  facet normal 0.74314433 -0.66913116 0
    outer loop
      vertex -1.3146524 0.9551506 3
      vertex -1.0873365 1.2076101 -0.009999275
      vertex -1.0873365 1.2076101 3
    endloop
  endfacet
  facet normal 0.8660262 0.4999986 0
    outer loop
      vertex -1.4845104 -0.66094685 -0.009999275
      vertex -1.3146524 -0.9551506 3
      vertex -1.3146524 -0.9551506 -0.009999275
    endloop
  endfacet
  facet normal 0.8660262 0.4999986 0
    outer loop
      vertex -1.4845104 -0.66094685 -0.009999275
      vertex -1.4845104 -0.66094685 3
      vertex -1.3146524 -0.9551506 3
    endloop
  endfacet
  facet normal 0.8660262 -0.4999986 0
    outer loop
      vertex -1.4845104 0.66094685 -0.009999275
      vertex -1.3146524 0.9551506 -0.009999275
      vertex -1.4845104 0.66094685 3
    endloop
  endfacet
  facet normal 0.8660262 -0.4999986 0
    outer loop
      vertex -1.4845104 0.66094685 3
      vertex -1.3146524 0.9551506 -0.009999275
      vertex -1.3146524 0.9551506 3
    endloop
  endfacet
  facet normal 0.9510564 0.3090172 0
    outer loop
      vertex -1.589489 -0.3378563 -0.009999275
      vertex -1.4845104 -0.66094685 3
      vertex -1.4845104 -0.66094685 -0.009999275
    endloop
  endfacet
  facet normal 0.9510564 0.3090172 0
    outer loop
      vertex -1.589489 -0.3378563 -0.009999275
      vertex -1.589489 -0.3378563 3
      vertex -1.4845104 -0.66094685 3
    endloop
  endfacet
  facet normal 0.9510564 -0.3090172 0
    outer loop
      vertex -1.589489 0.3378563 -0.009999275
      vertex -1.4845104 0.66094685 -0.009999275
      vertex -1.589489 0.3378563 3
    endloop
  endfacet
  facet normal 0.9510564 -0.3090172 0
    outer loop
      vertex -1.589489 0.3378563 3
      vertex -1.4845104 0.66094685 -0.009999275
      vertex -1.4845104 0.66094685 3
    endloop
  endfacet
  facet normal 0.9945216 0.10453105 0
    outer loop
      vertex -1.625 0 -0.009999275
      vertex -1.589489 -0.3378563 3
      vertex -1.589489 -0.3378563 -0.009999275
    endloop
  endfacet
  facet normal 0.9945216 -0.10453105 0
    outer loop
      vertex -1.625 0 -0.009999275
      vertex -1.589489 0.3378563 -0.009999275
      vertex -1.625 0 3
    endloop
  endfacet
  facet normal 0.9945216 0.10453105 0
    outer loop
      vertex -1.625 0 -0.009999275
      vertex -1.625 0 3
      vertex -1.589489 -0.3378563 3
    endloop
  endfacet
  facet normal 0.9945216 -0.10453105 0
    outer loop
      vertex -1.625 0 3
      vertex -1.589489 0.3378563 -0.009999275
      vertex -1.589489 0.3378563 3
    endloop
  endfacet
  facet normal 0 0 -1
    outer loop
      vertex -1.6499996 -2.8578835 -0.009999275
      vertex -0.16985798 -1.6160975 -0.009999275
      vertex 1.6499996 -2.8578835 -0.009999275
    endloop
  endfacet
  facet normal 0 0 -1
    outer loop
      vertex -1.6499996 -2.8578835 -0.009999275
      vertex -0.50215244 -1.5454664 -0.009999275
      vertex -0.16985798 -1.6160975 -0.009999275
    endloop
  endfacet
  facet normal 0 0 -1
    outer loop
      vertex -1.6499996 -2.8578835 -0.009999275
      vertex -0.8125 -1.4072905 -0.009999275
      vertex -0.50215244 -1.5454664 -0.009999275
    endloop
  endfacet
  facet normal 0 0 -1
    outer loop
      vertex -1.6499996 -2.8578835 -0.009999275
      vertex -1.0873365 -1.2076101 -0.009999275
      vertex -0.8125 -1.4072905 -0.009999275
    endloop
  endfacet
  facet normal 0 0 -1
    outer loop
      vertex -1.6499996 -2.8578835 -0.009999275
      vertex -1.3146524 -0.9551506 -0.009999275
      vertex -1.0873365 -1.2076101 -0.009999275
    endloop
  endfacet
  facet normal 0 0 -1
    outer loop
      vertex -1.6499996 -2.8578835 -0.009999275
      vertex -1.4845104 -0.66094685 -0.009999275
      vertex -1.3146524 -0.9551506 -0.009999275
    endloop
  endfacet
  facet normal 0 1 0
    outer loop
      vertex -1.6499996 -2.8578835 -0.009999275
      vertex 1.6499996 -2.8578835 -0.009999275
      vertex 1.6499996 -2.8578835 -1.899476
    endloop
  endfacet
  facet normal 0 1 0
    outer loop
      vertex -1.6499996 -2.8578835 -1.899476
      vertex -1.6499996 -2.8578835 -0.009999275
      vertex 1.6499996 -2.8578835 -1.899476
    endloop
  endfacet
  facet normal 0 -0.70710677 -0.70710677
    outer loop
      vertex -1.6499996 -2.8578835 -1.899476
      vertex 1.6499996 -2.8578835 -1.899476
      vertex 5 -5 0.2426405
    endloop
  endfacet
  facet normal 0 0 -1
    outer loop
      vertex -1.6499996 2.8578835 -0.009999275
      vertex -0.16985798 1.6160975 -0.009999275
      vertex -0.50215244 1.5454664 -0.009999275
    endloop
  endfacet
  facet normal 0 0 -1
    outer loop
      vertex -1.6499996 2.8578835 -0.009999275
      vertex -0.50215244 1.5454664 -0.009999275
      vertex -0.8125 1.4072905 -0.009999275
    endloop
  endfacet
  facet normal 0 0 -1
    outer loop
      vertex -1.6499996 2.8578835 -0.009999275
      vertex -0.8125 1.4072905 -0.009999275
      vertex -1.0873365 1.2076101 -0.009999275
    endloop
  endfacet
  facet normal 0 0 -1
    outer loop
      vertex -1.6499996 2.8578835 -0.009999275
      vertex -1.0873365 1.2076101 -0.009999275
      vertex -1.3146524 0.9551506 -0.009999275
    endloop
  endfacet
  facet normal 0 0 -1
    outer loop
      vertex -1.6499996 2.8578835 -0.009999275
      vertex -1.3146524 0.9551506 -0.009999275
      vertex -1.4845104 0.66094685 -0.009999275
    endloop
  endfacet
  facet normal 0 0 -1
    outer loop
      vertex -1.6499996 2.8578835 -0.009999275
      vertex 1.6499996 2.8578835 -0.009999275
      vertex -0.16985798 1.6160975 -0.009999275
    endloop
  endfacet
  facet normal 0 -1 0
    outer loop
      vertex -1.6499996 2.8578835 -1.899476
      vertex 1.6499996 2.8578835 -0.009999275
      vertex -1.6499996 2.8578835 -0.009999275
    endloop
  endfacet
  facet normal 0 -1 0
    outer loop
      vertex -1.6499996 2.8578835 -1.899476
      vertex 1.6499996 2.8578835 -1.899476
      vertex 1.6499996 2.8578835 -0.009999275
    endloop
  endfacet
  facet normal 0 0 -1
    outer loop
      vertex -3.2999992 0 -0.009999275
      vertex -1.4845104 -0.66094685 -0.009999275
      vertex -1.6499996 -2.8578835 -0.009999275
    endloop
  endfacet
  facet normal 0 0 -1
    outer loop
      vertex -3.2999992 0 -0.009999275
      vertex -1.4845104 0.66094685 -0.009999275
      vertex -1.589489 0.3378563 -0.009999275
    endloop
  endfacet
  facet normal 0 0 -1
    outer loop
      vertex -3.2999992 0 -0.009999275
      vertex -1.589489 -0.3378563 -0.009999275
      vertex -1.4845104 -0.66094685 -0.009999275
    endloop
  endfacet
  facet normal 0 0 -1
    outer loop
      vertex -3.2999992 0 -0.009999275
      vertex -1.589489 0.3378563 -0.009999275
      vertex -1.625 0 -0.009999275
    endloop
  endfacet
  facet normal 0 0 -1
    outer loop
      vertex -3.2999992 0 -0.009999275
      vertex -1.625 0 -0.009999275
      vertex -1.589489 -0.3378563 -0.009999275
    endloop
  endfacet
  facet normal 0.86602545 0.49999997 0
    outer loop
      vertex -3.2999992 0 -0.009999275
      vertex -1.6499996 -2.8578835 -0.009999275
      vertex -1.6499996 -2.8578835 -1.899476
    endloop
  endfacet
  facet normal 0.86602545 0.49999994 2.5903107e-8
    outer loop
      vertex -3.2999992 0 -0.009999275
      vertex -1.6499996 -2.8578835 -1.899476
      vertex -2.1121821 -2.0573597 -2.6999998
    endloop
  endfacet
  facet normal 0 0 -1
    outer loop
      vertex -3.2999992 0 -0.009999275
      vertex -1.6499996 2.8578835 -0.009999275
      vertex -1.4845104 0.66094685 -0.009999275
    endloop
  endfacet
  facet normal 0.86602545 -0.49999997 0
    outer loop
      vertex -3.2999992 0 -0.009999275
      vertex -1.6499996 2.8578835 -1.899476
      vertex -1.6499996 2.8578835 -0.009999275
    endloop
  endfacet
  facet normal 0.86602545 -0.49999994 2.5903107e-8
    outer loop
      vertex -3.2999992 0 -0.009999275
      vertex -2.1121821 2.0573597 -2.6999998
      vertex -1.6499996 2.8578835 -1.899476
    endloop
  endfacet
  facet normal 0.8660254 -0.49999997 0
    outer loop
      vertex -3.2999992 0 -2.6999998
      vertex -2.1121821 2.0573597 -2.6999998
      vertex -3.2999992 0 -0.009999275
    endloop
  endfacet
  facet normal 0.8660254 0.49999997 0
    outer loop
      vertex -3.2999992 0 -2.6999998
      vertex -3.2999992 0 -0.009999275
      vertex -2.1121821 -2.0573597 -2.6999998
    endloop
  endfacet
  facet normal 0 -0.70710677 -0.70710677
    outer loop
      vertex -5 -2.0573597 -2.6999998
      vertex -2.1121821 -2.0573597 -2.6999998
      vertex -1.6499996 -2.8578835 -1.899476
    endloop
  endfacet
  facet normal 0 0 -1
    outer loop
      vertex -5 -2.0573597 -2.6999998
      vertex -3.2999992 0 -2.6999998
      vertex -2.1121821 -2.0573597 -2.6999998
    endloop
  endfacet
  facet normal 0 0 -1
    outer loop
      vertex -5 -2.0573597 -2.6999998
      vertex -5 2.0573597 -2.6999998
      vertex -3.2999992 0 -2.6999998
    endloop
  endfacet
  facet normal -1 0 0
    outer loop
      vertex -5 -2.5 1.2999992
      vertex -5 -2.5 3
      vertex -5 2.5 3
    endloop
  endfacet
  facet normal -1 0 0
    outer loop
      vertex -5 -2.5 1.2999992
      vertex -5 2.0573597 -2.6999998
      vertex -5 -2.0573597 -2.6999998
    endloop
  endfacet
  facet normal -1 0 0
    outer loop
      vertex -5 -2.5 1.2999992
      vertex -5 2.5 1.2999992
      vertex -5 2.0573597 -2.6999998
    endloop
  endfacet
  facet normal -1 0 0
    outer loop
      vertex -5 -2.5 1.2999992
      vertex -5 2.5 3
      vertex -5 2.5 1.2999992
    endloop
  endfacet
  facet normal 0 -1 0
    outer loop
      vertex -5 -2.5 1.2999992
      vertex 5 -2.5 1.2999992
      vertex 5 -2.5 3
    endloop
  endfacet
  facet normal 0 -1 0
    outer loop
      vertex -5 -2.5 1.2999992
      vertex 5 -2.5 3
      vertex -5 -2.5 3
    endloop
  endfacet
  facet normal 0 0 1
    outer loop
      vertex -5 -2.5 1.2999992
      vertex 5 -5 1.2999992
      vertex 5 -2.5 1.2999992
    endloop
  endfacet
  facet normal 0 0 1
    outer loop
      vertex -5 -2.5 3
      vertex -0.16985798 -1.6160975 3
      vertex -0.50215244 -1.5454664 3
    endloop
  endfacet
  facet normal 0 0 1
    outer loop
      vertex -5 -2.5 3
      vertex -0.50215244 -1.5454664 3
      vertex -0.8125 -1.4072905 3
    endloop
  endfacet
  facet normal 0 0 1
    outer loop
      vertex -5 -2.5 3
      vertex -0.8125 -1.4072905 3
      vertex -1.0873365 -1.2076101 3
    endloop
  endfacet
  facet normal 0 0 1
    outer loop
      vertex -5 -2.5 3
      vertex -1.0873365 -1.2076101 3
      vertex -1.3146524 -0.9551506 3
    endloop
  endfacet
  facet normal 0 0 1
    outer loop
      vertex -5 -2.5 3
      vertex -1.3146524 -0.9551506 3
      vertex -1.4845104 -0.66094685 3
    endloop
  endfacet
  facet normal 0 0 1
    outer loop
      vertex -5 -2.5 3
      vertex -1.4845104 -0.66094685 3
      vertex -1.589489 -0.3378563 3
    endloop
  endfacet
  facet normal 0 0 1
    outer loop
      vertex -5 -2.5 3
      vertex -1.589489 -0.3378563 3
      vertex -1.625 0 3
    endloop
  endfacet
  facet normal 0 0 1
    outer loop
      vertex -5 -2.5 3
      vertex -1.625 0 3
      vertex -5 2.5 3
    endloop
  endfacet
  facet normal 0 0 1
    outer loop
      vertex -5 -2.5 3
      vertex 5 -2.5 3
      vertex -0.16985798 -1.6160975 3
    endloop
  endfacet
  facet normal 0 -0.70710677 -0.70710677
    outer loop
      vertex -5 -5 0.2426405
      vertex -1.6499996 -2.8578835 -1.899476
      vertex 5 -5 0.2426405
    endloop
  endfacet
  facet normal 0 -0.70710677 -0.70710677
    outer loop
      vertex -5 -5 0.2426405
      vertex -5 -2.0573597 -2.6999998
      vertex -1.6499996 -2.8578835 -1.899476
    endloop
  endfacet
  facet normal -1 0 0
    outer loop
      vertex -5 -5 0.2426405
      vertex -5 -2.5 1.2999992
      vertex -5 -2.0573597 -2.6999998
    endloop
  endfacet
  facet normal -1 0 0
    outer loop
      vertex -5 -5 0.2426405
      vertex -5 -5 1.2999992
      vertex -5 -2.5 1.2999992
    endloop
  endfacet
  facet normal 0 -1 0
    outer loop
      vertex -5 -5 0.2426405
      vertex 5 -5 0.2426405
      vertex 5 -5 1.2999992
    endloop
  endfacet
  facet normal 0 -1 0
    outer loop
      vertex -5 -5 0.2426405
      vertex 5 -5 1.2999992
      vertex -5 -5 1.2999992
    endloop
  endfacet
  facet normal 0 0 1
    outer loop
      vertex -5 -5 1.2999992
      vertex 5 -5 1.2999992
      vertex -5 -2.5 1.2999992
    endloop
  endfacet
  facet normal 0 0.70710677 -0.70710677
    outer loop
      vertex -5 2.0573597 -2.6999998
      vertex -1.6499996 2.8578835 -1.899476
      vertex -2.1121821 2.0573597 -2.6999998
    endloop
  endfacet
  facet normal 0 0 -1
    outer loop
      vertex -5 2.0573597 -2.6999998
      vertex -2.1121821 2.0573597 -2.6999998
      vertex -3.2999992 0 -2.6999998
    endloop
  endfacet
  facet normal -1 0 0
    outer loop
      vertex -5 2.0573597 -2.6999998
      vertex -5 2.5 1.2999992
      vertex -5 5 0.2426405
    endloop
  endfacet
  facet normal 0 0.70710677 -0.70710677
    outer loop
      vertex -5 2.0573597 -2.6999998
      vertex -5 5 0.2426405
      vertex -1.6499996 2.8578835 -1.899476
    endloop
  endfacet
  facet normal 0 1 0
    outer loop
      vertex -5 2.5 1.2999992
      vertex -5 2.5 3
      vertex 5 2.5 1.2999992
    endloop
  endfacet
  facet normal -1 0 0
    outer loop
      vertex -5 2.5 1.2999992
      vertex -5 5 1.2999992
      vertex -5 5 0.2426405
    endloop
  endfacet
  facet normal 0 0 1
    outer loop
      vertex -5 2.5 1.2999992
      vertex 5 2.5 1.2999992
      vertex -5 5 1.2999992
    endloop
  endfacet
  facet normal 0 0 1
    outer loop
      vertex -5 2.5 3
      vertex -0.16985798 1.6160975 3
      vertex 5 2.5 3
    endloop
  endfacet
  facet normal 0 0 1
    outer loop
      vertex -5 2.5 3
      vertex -0.50215244 1.5454664 3
      vertex -0.16985798 1.6160975 3
    endloop
  endfacet
  facet normal 0 0 1
    outer loop
      vertex -5 2.5 3
      vertex -0.8125 1.4072905 3
      vertex -0.50215244 1.5454664 3
    endloop
  endfacet
  facet normal 0 0 1
    outer loop
      vertex -5 2.5 3
      vertex -1.0873365 1.2076101 3
      vertex -0.8125 1.4072905 3
    endloop
  endfacet
  facet normal 0 0 1
    outer loop
      vertex -5 2.5 3
      vertex -1.3146524 0.9551506 3
      vertex -1.0873365 1.2076101 3
    endloop
  endfacet
  facet normal 0 0 1
    outer loop
      vertex -5 2.5 3
      vertex -1.4845104 0.66094685 3
      vertex -1.3146524 0.9551506 3
    endloop
  endfacet
  facet normal 0 0 1
    outer loop
      vertex -5 2.5 3
      vertex -1.589489 0.3378563 3
      vertex -1.4845104 0.66094685 3
    endloop
  endfacet
  facet normal 0 0 1
    outer loop
      vertex -5 2.5 3
      vertex -1.625 0 3
      vertex -1.589489 0.3378563 3
    endloop
  endfacet
  facet normal 0 1 0
    outer loop
      vertex -5 2.5 3
      vertex 5 2.5 3
      vertex 5 2.5 1.2999992
    endloop
  endfacet
  facet normal 0 1 0
    outer loop
      vertex -5 5 0.2426405
      vertex -5 5 1.2999992
      vertex 5 5 0.2426405
    endloop
  endfacet
  facet normal 0 0.70710677 -0.70710677
    outer loop
      vertex -5 5 0.2426405
      vertex 1.6499996 2.8578835 -1.899476
      vertex -1.6499996 2.8578835 -1.899476
    endloop
  endfacet
  facet normal 0 0.70710677 -0.70710677
    outer loop
      vertex -5 5 0.2426405
      vertex 5 5 0.2426405
      vertex 1.6499996 2.8578835 -1.899476
    endloop
  endfacet
  facet normal 0 0 1
    outer loop
      vertex -5 5 1.2999992
      vertex 5 2.5 1.2999992
      vertex 5 5 1.2999992
    endloop
  endfacet
  facet normal 0 1 0
    outer loop
      vertex -5 5 1.2999992
      vertex 5 5 1.2999992
      vertex 5 5 0.2426405
    endloop
  endfacet
  facet normal -0.20791073 0.9781478 0
    outer loop
      vertex 0.16985798 -1.6160975 -0.009999275
      vertex 0.16985798 -1.6160975 3
      vertex 0.50215244 -1.5454664 -0.009999275
    endloop
  endfacet
  facet normal 0 0 -1
    outer loop
      vertex 0.16985798 -1.6160975 -0.009999275
      vertex 0.50215244 -1.5454664 -0.009999275
      vertex 1.6499996 -2.8578835 -0.009999275
    endloop
  endfacet
  facet normal -0.20791073 0.9781478 0
    outer loop
      vertex 0.16985798 -1.6160975 3
      vertex 0.50215244 -1.5454664 3
      vertex 0.50215244 -1.5454664 -0.009999275
    endloop
  endfacet
  facet normal 0 0 1
    outer loop
      vertex 0.16985798 -1.6160975 3
      vertex 5 -2.5 3
      vertex 0.50215244 -1.5454664 3
    endloop
  endfacet
  facet normal -0.20791073 -0.9781478 0
    outer loop
      vertex 0.16985798 1.6160975 -0.009999275
      vertex 0.50215244 1.5454664 -0.009999275
      vertex 0.50215244 1.5454664 3
    endloop
  endfacet
  facet normal -0.20791073 -0.9781478 0
    outer loop
      vertex 0.16985798 1.6160975 -0.009999275
      vertex 0.50215244 1.5454664 3
      vertex 0.16985798 1.6160975 3
    endloop
  endfacet
  facet normal 0 0 -1
    outer loop
      vertex 0.16985798 1.6160975 -0.009999275
      vertex 1.6499996 2.8578835 -0.009999275
      vertex 0.50215244 1.5454664 -0.009999275
    endloop
  endfacet
  facet normal 0 0 1
    outer loop
      vertex 0.16985798 1.6160975 3
      vertex 0.50215244 1.5454664 3
      vertex 5 2.5 3
    endloop
  endfacet
  facet normal -0.40673745 0.9135451 0
    outer loop
      vertex 0.50215244 -1.5454664 -0.009999275
      vertex 0.50215244 -1.5454664 3
      vertex 0.8125 -1.4072905 -0.009999275
    endloop
  endfacet
  facet normal 0 0 -1
    outer loop
      vertex 0.50215244 -1.5454664 -0.009999275
      vertex 0.8125 -1.4072905 -0.009999275
      vertex 1.6499996 -2.8578835 -0.009999275
    endloop
  endfacet
  facet normal -0.40673745 0.9135451 0
    outer loop
      vertex 0.50215244 -1.5454664 3
      vertex 0.8125 -1.4072905 3
      vertex 0.8125 -1.4072905 -0.009999275
    endloop
  endfacet
  facet normal 0 0 1
    outer loop
      vertex 0.50215244 -1.5454664 3
      vertex 5 -2.5 3
      vertex 0.8125 -1.4072905 3
    endloop
  endfacet
  facet normal -0.40673745 -0.9135451 0
    outer loop
      vertex 0.50215244 1.5454664 -0.009999275
      vertex 0.8125 1.4072905 -0.009999275
      vertex 0.8125 1.4072905 3
    endloop
  endfacet
  facet normal -0.40673745 -0.9135451 0
    outer loop
      vertex 0.50215244 1.5454664 -0.009999275
      vertex 0.8125 1.4072905 3
      vertex 0.50215244 1.5454664 3
    endloop
  endfacet
  facet normal 0 0 -1
    outer loop
      vertex 0.50215244 1.5454664 -0.009999275
      vertex 1.6499996 2.8578835 -0.009999275
      vertex 0.8125 1.4072905 -0.009999275
    endloop
  endfacet
  facet normal 0 0 1
    outer loop
      vertex 0.50215244 1.5454664 3
      vertex 0.8125 1.4072905 3
      vertex 5 2.5 3
    endloop
  endfacet
  facet normal -0.58778507 0.8090171 0
    outer loop
      vertex 0.8125 -1.4072905 -0.009999275
      vertex 0.8125 -1.4072905 3
      vertex 1.0873365 -1.2076101 -0.009999275
    endloop
  endfacet
  facet normal 0 0 -1
    outer loop
      vertex 0.8125 -1.4072905 -0.009999275
      vertex 1.0873365 -1.2076101 -0.009999275
      vertex 1.6499996 -2.8578835 -0.009999275
    endloop
  endfacet
  facet normal -0.58778507 0.8090171 0
    outer loop
      vertex 0.8125 -1.4072905 3
      vertex 1.0873365 -1.2076101 3
      vertex 1.0873365 -1.2076101 -0.009999275
    endloop
  endfacet
  facet normal 0 0 1
    outer loop
      vertex 0.8125 -1.4072905 3
      vertex 5 -2.5 3
      vertex 1.0873365 -1.2076101 3
    endloop
  endfacet
  facet normal -0.58778507 -0.8090171 0
    outer loop
      vertex 0.8125 1.4072905 -0.009999275
      vertex 1.0873365 1.2076101 -0.009999275
      vertex 1.0873365 1.2076101 3
    endloop
  endfacet
  facet normal -0.58778507 -0.8090171 0
    outer loop
      vertex 0.8125 1.4072905 -0.009999275
      vertex 1.0873365 1.2076101 3
      vertex 0.8125 1.4072905 3
    endloop
  endfacet
  facet normal 0 0 -1
    outer loop
      vertex 0.8125 1.4072905 -0.009999275
      vertex 1.6499996 2.8578835 -0.009999275
      vertex 1.0873365 1.2076101 -0.009999275
    endloop
  endfacet
  facet normal 0 0 1
    outer loop
      vertex 0.8125 1.4072905 3
      vertex 1.0873365 1.2076101 3
      vertex 5 2.5 3
    endloop
  endfacet
  facet normal -0.74314433 0.66913116 0
    outer loop
      vertex 1.0873365 -1.2076101 -0.009999275
      vertex 1.0873365 -1.2076101 3
      vertex 1.3146524 -0.9551506 3
    endloop
  endfacet
  facet normal 0 0 -1
    outer loop
      vertex 1.0873365 -1.2076101 -0.009999275
      vertex 1.3146524 -0.9551506 -0.009999275
      vertex 1.6499996 -2.8578835 -0.009999275
    endloop
  endfacet
  facet normal -0.74314433 0.66913116 0
    outer loop
      vertex 1.0873365 -1.2076101 -0.009999275
      vertex 1.3146524 -0.9551506 3
      vertex 1.3146524 -0.9551506 -0.009999275
    endloop
  endfacet
  facet normal 0 0 1
    outer loop
      vertex 1.0873365 -1.2076101 3
      vertex 5 -2.5 3
      vertex 1.3146524 -0.9551506 3
    endloop
  endfacet
  facet normal -0.74314433 -0.66913116 0
    outer loop
      vertex 1.0873365 1.2076101 -0.009999275
      vertex 1.3146524 0.9551506 -0.009999275
      vertex 1.0873365 1.2076101 3
    endloop
  endfacet
  facet normal 0 0 -1
    outer loop
      vertex 1.0873365 1.2076101 -0.009999275
      vertex 1.6499996 2.8578835 -0.009999275
      vertex 1.3146524 0.9551506 -0.009999275
    endloop
  endfacet
  facet normal -0.74314433 -0.66913116 0
    outer loop
      vertex 1.0873365 1.2076101 3
      vertex 1.3146524 0.9551506 -0.009999275
      vertex 1.3146524 0.9551506 3
    endloop
  endfacet
  facet normal 0 0 1
    outer loop
      vertex 1.0873365 1.2076101 3
      vertex 1.3146524 0.9551506 3
      vertex 5 2.5 3
    endloop
  endfacet
  facet normal -0.8660262 0.4999986 0
    outer loop
      vertex 1.3146524 -0.9551506 -0.009999275
      vertex 1.3146524 -0.9551506 3
      vertex 1.4845104 -0.66094685 3
    endloop
  endfacet
  facet normal 0 0 -1
    outer loop
      vertex 1.3146524 -0.9551506 -0.009999275
      vertex 1.4845104 -0.66094685 -0.009999275
      vertex 1.6499996 -2.8578835 -0.009999275
    endloop
  endfacet
  facet normal -0.8660262 0.4999986 0
    outer loop
      vertex 1.3146524 -0.9551506 -0.009999275
      vertex 1.4845104 -0.66094685 3
      vertex 1.4845104 -0.66094685 -0.009999275
    endloop
  endfacet
  facet normal 0 0 1
    outer loop
      vertex 1.3146524 -0.9551506 3
      vertex 5 -2.5 3
      vertex 1.4845104 -0.66094685 3
    endloop
  endfacet
  facet normal -0.8660262 -0.4999986 0
    outer loop
      vertex 1.3146524 0.9551506 -0.009999275
      vertex 1.4845104 0.66094685 -0.009999275
      vertex 1.3146524 0.9551506 3
    endloop
  endfacet
  facet normal 0 0 -1
    outer loop
      vertex 1.3146524 0.9551506 -0.009999275
      vertex 1.6499996 2.8578835 -0.009999275
      vertex 1.4845104 0.66094685 -0.009999275
    endloop
  endfacet
  facet normal -0.8660262 -0.4999986 0
    outer loop
      vertex 1.3146524 0.9551506 3
      vertex 1.4845104 0.66094685 -0.009999275
      vertex 1.4845104 0.66094685 3
    endloop
  endfacet
  facet normal 0 0 1
    outer loop
      vertex 1.3146524 0.9551506 3
      vertex 1.4845104 0.66094685 3
      vertex 5 2.5 3
    endloop
  endfacet
  facet normal -0.9510564 0.3090172 0
    outer loop
      vertex 1.4845104 -0.66094685 -0.009999275
      vertex 1.4845104 -0.66094685 3
      vertex 1.589489 -0.3378563 3
    endloop
  endfacet
  facet normal 0 0 -1
    outer loop
      vertex 1.4845104 -0.66094685 -0.009999275
      vertex 1.589489 -0.3378563 -0.009999275
      vertex 3.2999992 0 -0.009999275
    endloop
  endfacet
  facet normal -0.9510564 0.3090172 0
    outer loop
      vertex 1.4845104 -0.66094685 -0.009999275
      vertex 1.589489 -0.3378563 3
      vertex 1.589489 -0.3378563 -0.009999275
    endloop
  endfacet
  facet normal 0 0 -1
    outer loop
      vertex 1.4845104 -0.66094685 -0.009999275
      vertex 3.2999992 0 -0.009999275
      vertex 1.6499996 -2.8578835 -0.009999275
    endloop
  endfacet
  facet normal 0 0 1
    outer loop
      vertex 1.4845104 -0.66094685 3
      vertex 5 -2.5 3
      vertex 1.589489 -0.3378563 3
    endloop
  endfacet
  facet normal -0.9510564 -0.3090172 0
    outer loop
      vertex 1.4845104 0.66094685 -0.009999275
      vertex 1.589489 0.3378563 -0.009999275
      vertex 1.4845104 0.66094685 3
    endloop
  endfacet
  facet normal 0 0 -1
    outer loop
      vertex 1.4845104 0.66094685 -0.009999275
      vertex 1.6499996 2.8578835 -0.009999275
      vertex 3.2999992 0 -0.009999275
    endloop
  endfacet
  facet normal 0 0 -1
    outer loop
      vertex 1.4845104 0.66094685 -0.009999275
      vertex 3.2999992 0 -0.009999275
      vertex 1.589489 0.3378563 -0.009999275
    endloop
  endfacet
  facet normal -0.9510564 -0.3090172 0
    outer loop
      vertex 1.4845104 0.66094685 3
      vertex 1.589489 0.3378563 -0.009999275
      vertex 1.589489 0.3378563 3
    endloop
  endfacet
  facet normal 0 0 1
    outer loop
      vertex 1.4845104 0.66094685 3
      vertex 1.589489 0.3378563 3
      vertex 5 2.5 3
    endloop
  endfacet
  facet normal -0.9945216 0.10453105 0
    outer loop
      vertex 1.589489 -0.3378563 -0.009999275
      vertex 1.589489 -0.3378563 3
      vertex 1.625 0 3
    endloop
  endfacet
  facet normal 0 0 -1
    outer loop
      vertex 1.589489 -0.3378563 -0.009999275
      vertex 1.625 0 -0.009999275
      vertex 3.2999992 0 -0.009999275
    endloop
  endfacet
  facet normal -0.9945216 0.10453105 0
    outer loop
      vertex 1.589489 -0.3378563 -0.009999275
      vertex 1.625 0 3
      vertex 1.625 0 -0.009999275
    endloop
  endfacet
  facet normal 0 0 1
    outer loop
      vertex 1.589489 -0.3378563 3
      vertex 5 -2.5 3
      vertex 1.625 0 3
    endloop
  endfacet
  facet normal -0.9945216 -0.10453105 0
    outer loop
      vertex 1.589489 0.3378563 -0.009999275
      vertex 1.625 0 -0.009999275
      vertex 1.589489 0.3378563 3
    endloop
  endfacet
  facet normal 0 0 -1
    outer loop
      vertex 1.589489 0.3378563 -0.009999275
      vertex 3.2999992 0 -0.009999275
      vertex 1.625 0 -0.009999275
    endloop
  endfacet
  facet normal -0.9945216 -0.10453105 0
    outer loop
      vertex 1.589489 0.3378563 3
      vertex 1.625 0 -0.009999275
      vertex 1.625 0 3
    endloop
  endfacet
  facet normal 0 0 1
    outer loop
      vertex 1.589489 0.3378563 3
      vertex 1.625 0 3
      vertex 5 2.5 3
    endloop
  endfacet
  facet normal 0 0 1
    outer loop
      vertex 1.625 0 3
      vertex 5 -2.5 3
      vertex 5 2.5 3
    endloop
  endfacet
  facet normal -0.86602545 0.49999997 0
    outer loop
      vertex 1.6499996 -2.8578835 -1.899476
      vertex 1.6499996 -2.8578835 -0.009999275
      vertex 3.2999992 0 -0.009999275
    endloop
  endfacet
  facet normal 0 -0.70710677 -0.70710677
    outer loop
      vertex 1.6499996 -2.8578835 -1.899476
      vertex 2.1121821 -2.0573597 -2.6999998
      vertex 5 -2.0573597 -2.6999998
    endloop
  endfacet
  facet normal -0.86602545 0.49999994 2.5903107e-8
    outer loop
      vertex 1.6499996 -2.8578835 -1.899476
      vertex 3.2999992 0 -0.009999275
      vertex 2.1121821 -2.0573597 -2.6999998
    endloop
  endfacet
  facet normal 0 -0.70710677 -0.70710677
    outer loop
      vertex 1.6499996 -2.8578835 -1.899476
      vertex 5 -2.0573597 -2.6999998
      vertex 5 -5 0.2426405
    endloop
  endfacet
  facet normal -0.86602545 -0.49999994 2.5903107e-8
    outer loop
      vertex 1.6499996 2.8578835 -1.899476
      vertex 2.1121821 2.0573597 -2.6999998
      vertex 3.2999992 0 -0.009999275
    endloop
  endfacet
  facet normal -0.86602545 -0.49999997 0
    outer loop
      vertex 1.6499996 2.8578835 -1.899476
      vertex 3.2999992 0 -0.009999275
      vertex 1.6499996 2.8578835 -0.009999275
    endloop
  endfacet
  facet normal 0 0.70710677 -0.70710677
    outer loop
      vertex 1.6499996 2.8578835 -1.899476
      vertex 5 2.0573597 -2.6999998
      vertex 2.1121821 2.0573597 -2.6999998
    endloop
  endfacet
  facet normal 0 0.70710677 -0.70710677
    outer loop
      vertex 1.6499996 2.8578835 -1.899476
      vertex 5 5 0.2426405
      vertex 5 2.0573597 -2.6999998
    endloop
  endfacet
  facet normal -0.8660254 0.49999997 0
    outer loop
      vertex 2.1121821 -2.0573597 -2.6999998
      vertex 3.2999992 0 -0.009999275
      vertex 3.2999992 0 -2.6999998
    endloop
  endfacet
  facet normal 0 0 -1
    outer loop
      vertex 2.1121821 -2.0573597 -2.6999998
      vertex 3.2999992 0 -2.6999998
      vertex 5 -2.0573597 -2.6999998
    endloop
  endfacet
  facet normal -0.8660254 -0.49999997 0
    outer loop
      vertex 2.1121821 2.0573597 -2.6999998
      vertex 3.2999992 0 -2.6999998
      vertex 3.2999992 0 -0.009999275
    endloop
  endfacet
  facet normal 0 0 -1
    outer loop
      vertex 2.1121821 2.0573597 -2.6999998
      vertex 5 2.0573597 -2.6999998
      vertex 3.2999992 0 -2.6999998
    endloop
  endfacet
  facet normal 0 0 -1
    outer loop
      vertex 3.2999992 0 -2.6999998
      vertex 5 2.0573597 -2.6999998
      vertex 5 -2.0573597 -2.6999998
    endloop
  endfacet
  facet normal 1 0 0
    outer loop
      vertex 5 -2.5 1.2999992
      vertex 5 -2.0573597 -2.6999998
      vertex 5 2.0573597 -2.6999998
    endloop
  endfacet
  facet normal 1 0 0
    outer loop
      vertex 5 -2.5 1.2999992
      vertex 5 2.0573597 -2.6999998
      vertex 5 2.5 1.2999992
    endloop
  endfacet
  facet normal 1 0 0
    outer loop
      vertex 5 -2.5 1.2999992
      vertex 5 2.5 1.2999992
      vertex 5 2.5 3
    endloop
  endfacet
  facet normal 1 0 0
    outer loop
      vertex 5 -2.5 1.2999992
      vertex 5 2.5 3
      vertex 5 -2.5 3
    endloop
  endfacet
  facet normal 1 0 0
    outer loop
      vertex 5 -5 0.2426405
      vertex 5 -2.0573597 -2.6999998
      vertex 5 -2.5 1.2999992
    endloop
  endfacet
  facet normal 1 0 0
    outer loop
      vertex 5 -5 0.2426405
      vertex 5 -2.5 1.2999992
      vertex 5 -5 1.2999992
    endloop
  endfacet
  facet normal 1 0 0
    outer loop
      vertex 5 2.0573597 -2.6999998
      vertex 5 5 0.2426405
      vertex 5 2.5 1.2999992
    endloop
  endfacet
  facet normal 1 0 0
    outer loop
      vertex 5 2.5 1.2999992
      vertex 5 5 0.2426405
      vertex 5 5 1.2999992
    endloop
  endfacet
endsolid OpenSCAD_Model
