solid OpenSCAD_Model
  facet normal 0 -1 0
    outer loop
      vertex -1 -6.255 4.4
      vertex 1 -6.255 4.4
      vertex 1 -6.255 6.85
    endloop
  endfacet
  facet normal 0 -1 0
    outer loop
      vertex -1 -6.255 4.4
      vertex 1 -6.255 6.85
      vertex -1 -6.255 6.85
    endloop
  endfacet
  facet normal 0 0 -1
    outer loop
      vertex -1 -6.255 4.4
      vertex 3.4 10 4.4
      vertex 1 -6.255 4.4
    endloop
  endfacet
  facet normal 0 0 1
    outer loop
      vertex -1 -6.255 6.85
      vertex 1 -6.255 6.85
      vertex 1.9 8 6.85
    endloop
  endfacet
  facet normal 1 0 0
    outer loop
      vertex -1 -9.245 4.4
      vertex -1 -6.255 4.4
      vertex -1 -9.245 6.85
    endloop
  endfacet
  facet normal 0 1 0
    outer loop
      vertex -1 -9.245 4.4
      vertex -1 -9.245 6.85
      vertex 1 -9.245 4.4
    endloop
  endfacet
  facet normal 0 0 -1
    outer loop
      vertex -1 -9.245 4.4
      vertex 1 -9.245 4.4
      vertex 3.4 -10 4.4
    endloop
  endfacet
  facet normal 1 0 0
    outer loop
      vertex -1 -9.245 6.85
      vertex -1 -6.255 4.4
      vertex -1 -6.255 6.85
    endloop
  endfacet
  facet normal 0 1 0
    outer loop
      vertex -1 -9.245 6.85
      vertex 1 -9.245 6.85
      vertex 1 -9.245 4.4
    endloop
  endfacet
  facet normal 0 0 1
    outer loop
      vertex -1 -9.245 6.85
      vertex 1.9 -9.625 6.85
      vertex 1 -9.245 6.85
    endloop
  endfacet
  facet normal -1 0 0
    outer loop
      vertex -1.9 -9.625 5.8
      vertex -1.9 -9.625 6.85
      vertex -1.9 8 6.85
    endloop
  endfacet
  facet normal -1 0 0
    outer loop
      vertex -1.9 -9.625 5.8
      vertex -1.9 8 6.85
      vertex -1.9 8 5.8
    endloop
  endfacet
  facet normal 0 -1 0
    outer loop
      vertex -1.9 -9.625 5.8
      vertex 1.9 -9.625 5.8
      vertex 1.9 -9.625 6.85
    endloop
  endfacet
  facet normal 0 -1 0
    outer loop
      vertex -1.9 -9.625 5.8
      vertex 1.9 -9.625 6.85
      vertex -1.9 -9.625 6.85
    endloop
  endfacet
  facet normal 0 0 1
    outer loop
      vertex -1.9 -9.625 5.8
      vertex 3.4 -10 5.8
      vertex 1.9 -9.625 5.8
    endloop
  endfacet
  facet normal 0 0 1
    outer loop
      vertex -1.9 -9.625 6.85
      vertex -1 -6.255 6.85
      vertex -1.9 8 6.85
    endloop
  endfacet
  facet normal 0 0 1
    outer loop
      vertex -1.9 -9.625 6.85
      vertex -1 -9.245 6.85
      vertex -1 -6.255 6.85
    endloop
  endfacet
  facet normal 0 0 1
    outer loop
      vertex -1.9 -9.625 6.85
      vertex 1.9 -9.625 6.85
      vertex -1 -9.245 6.85
    endloop
  endfacet
  facet normal 0 0 1
    outer loop
      vertex -1.9 8 6.85
      vertex -1 -6.255 6.85
      vertex 1.9 8 6.85
    endloop
  endfacet
  facet normal 0 -1 0
    outer loop
      vertex -1.9 8 6.85
      vertex 1.9 8 6.85
      vertex 3.4 8 7.4
    endloop
  endfacet
  facet normal 0 0 -1
    outer loop
      vertex -3.4 -10 4.4
      vertex -1 -6.255 4.4
      vertex -1 -9.245 4.4
    endloop
  endfacet
  facet normal 0 0 -1
    outer loop
      vertex -3.4 -10 4.4
      vertex -1 -9.245 4.4
      vertex 3.4 -10 4.4
    endloop
  endfacet
  facet normal -1 0 0
    outer loop
      vertex -3.4 -10 4.4
      vertex -3.4 -10 5.8
      vertex -3.4 8 5.8
    endloop
  endfacet
  facet normal 0 0 -1
    outer loop
      vertex -3.4 -10 4.4
      vertex -3.4 10 4.4
      vertex -1 -6.255 4.4
    endloop
  endfacet
  facet normal -1 0 0
    outer loop
      vertex -3.4 -10 4.4
      vertex -3.4 8 5.8
      vertex -3.4 10 4.4
    endloop
  endfacet
  facet normal 0 -1 0
    outer loop
      vertex -3.4 -10 4.4
      vertex 3.4 -10 4.4
      vertex 3.4 -10 5.8
    endloop
  endfacet
  facet normal 0 -1 0
    outer loop
      vertex -3.4 -10 4.4
      vertex 3.4 -10 5.8
      vertex -3.4 -10 5.8
    endloop
  endfacet
  facet normal 0 0 1
    outer loop
      vertex -3.4 -10 5.8
      vertex -1.9 -9.625 5.8
      vertex -3.4 8 5.8
    endloop
  endfacet
  facet normal 0 0 1
    outer loop
      vertex -3.4 -10 5.8
      vertex 3.4 -10 5.8
      vertex -1.9 -9.625 5.8
    endloop
  endfacet
  facet normal 0 1 0
    outer loop
      vertex -3.4 10 4.4
      vertex -3.4 10 7.4
      vertex 3.4 10 4.4
    endloop
  endfacet
  facet normal 0 0 -1
    outer loop
      vertex -3.4 10 4.4
      vertex 3.4 10 4.4
      vertex -1 -6.255 4.4
    endloop
  endfacet
  facet normal 0 1 0
    outer loop
      vertex -3.4 10 7.4
      vertex 3.4 10 7.4
      vertex 3.4 10 4.4
    endloop
  endfacet
  facet normal 0 0 1
    outer loop
      vertex -3.4 10 7.4
      vertex 3.4 8 7.4
      vertex 3.4 10 7.4
    endloop
  endfacet
  facet normal 0 0 1
    outer loop
      vertex -3.4 8 5.8
      vertex -1.9 -9.625 5.8
      vertex -1.9 8 5.8
    endloop
  endfacet
  facet normal 0 -1 0
    outer loop
      vertex -3.4 8 5.8
      vertex -1.9 8 5.8
      vertex -1.9 8 6.85
    endloop
  endfacet
  facet normal 0 -1 0
    outer loop
      vertex -3.4 8 5.8
      vertex -1.9 8 6.85
      vertex -3.4 8 7.4
    endloop
  endfacet
  facet normal -1 0 0
    outer loop
      vertex -3.4 8 5.8
      vertex -3.4 10 7.4
      vertex -3.4 10 4.4
    endloop
  endfacet
  facet normal -1 0 0
    outer loop
      vertex -3.4 8 5.8
      vertex -3.4 8 7.4
      vertex -3.4 10 7.4
    endloop
  endfacet
  facet normal 0 -1 0
    outer loop
      vertex -3.4 8 7.4
      vertex -1.9 8 6.85
      vertex 3.4 8 7.4
    endloop
  endfacet
  facet normal 0 0 1
    outer loop
      vertex -3.4 8 7.4
      vertex 3.4 8 7.4
      vertex -3.4 10 7.4
    endloop
  endfacet
  facet normal 0 0 -1
    outer loop
      vertex 1 -6.255 4.4
      vertex 3.4 10 4.4
      vertex 3.4 -10 4.4
    endloop
  endfacet
  facet normal 0 0 1
    outer loop
      vertex 1 -6.255 6.85
      vertex 1.9 -9.625 6.85
      vertex 1.9 8 6.85
    endloop
  endfacet
  facet normal 0 0 -1
    outer loop
      vertex 1 -9.245 4.4
      vertex 1 -6.255 4.4
      vertex 3.4 -10 4.4
    endloop
  endfacet
  facet normal -1 0 0
    outer loop
      vertex 1 -9.245 4.4
      vertex 1 -6.255 6.85
      vertex 1 -6.255 4.4
    endloop
  endfacet
  facet normal -1 0 0
    outer loop
      vertex 1 -9.245 4.4
      vertex 1 -9.245 6.85
      vertex 1 -6.255 6.85
    endloop
  endfacet
  facet normal 0 0 1
    outer loop
      vertex 1 -9.245 6.85
      vertex 1.9 -9.625 6.85
      vertex 1 -6.255 6.85
    endloop
  endfacet
  facet normal 1 0 0
    outer loop
      vertex 1.9 -9.625 5.8
      vertex 1.9 8 5.8
      vertex 1.9 -9.625 6.85
    endloop
  endfacet
  facet normal 0 0 1
    outer loop
      vertex 1.9 -9.625 5.8
      vertex 3.4 -10 5.8
      vertex 3.4 8 5.8
    endloop
  endfacet
  facet normal 0 0 1
    outer loop
      vertex 1.9 -9.625 5.8
      vertex 3.4 8 5.8
      vertex 1.9 8 5.8
    endloop
  endfacet
  facet normal 1 0 0
    outer loop
      vertex 1.9 -9.625 6.85
      vertex 1.9 8 5.8
      vertex 1.9 8 6.85
    endloop
  endfacet
  facet normal 0 -1 0
    outer loop
      vertex 1.9 8 5.8
      vertex 3.4 8 5.8
      vertex 1.9 8 6.85
    endloop
  endfacet
  facet normal 0 -1 0
    outer loop
      vertex 1.9 8 6.85
      vertex 3.4 8 5.8
      vertex 3.4 8 7.4
    endloop
  endfacet
  facet normal 1 0 0
    outer loop
      vertex 3.4 -10 4.4
      vertex 3.4 10 4.4
      vertex 3.4 8 5.8
    endloop
  endfacet
  facet normal 1 0 0
    outer loop
      vertex 3.4 -10 4.4
      vertex 3.4 8 5.8
      vertex 3.4 -10 5.8
    endloop
  endfacet
  facet normal 1 0 0
    outer loop
      vertex 3.4 8 5.8
      vertex 3.4 10 4.4
      vertex 3.4 10 7.4
    endloop
  endfacet
  facet normal 1 0 0
    outer loop
      vertex 3.4 8 5.8
      vertex 3.4 10 7.4
      vertex 3.4 8 7.4
    endloop
  endfacet
endsolid OpenSCAD_Model
