solid OpenSCAD_Model
  facet normal 1 0 0
    outer loop
      vertex -2 -0.4499998 -8
      vertex -2 1.9499998 -8
      vertex -2 -0.4499998 9
    endloop
  endfacet
  facet normal 0 0 1
    outer loop
      vertex -2 -0.4499998 -8
      vertex 2 -0.4499998 -8
      vertex -2 1.9499998 -8
    endloop
  endfacet
  facet normal 1 0 0
    outer loop
      vertex -2 -0.4499998 9
      vertex -2 1.9499998 -8
      vertex -2 1.9499998 9
    endloop
  endfacet
  facet normal 0 1 0
    outer loop
      vertex -2 -2.0499992 -8
      vertex 2 -2.0499992 -8
      vertex 3.75 -2.0499992 -9.004999
    endloop
  endfacet
  facet normal 0 0 1
    outer loop
      vertex -2 -2.0499992 -8
      vertex 2 -4.45 -8
      vertex 2 -2.0499992 -8
    endloop
  endfacet
  facet normal 1 0 0
    outer loop
      vertex -2 -4.45 -8
      vertex -2 -2.0499992 -8
      vertex -2 -4.45 9
    endloop
  endfacet
  facet normal 0 0 1
    outer loop
      vertex -2 -4.45 -8
      vertex 2 -4.45 -8
      vertex -2 -2.0499992 -8
    endloop
  endfacet
  facet normal 1 0 0
    outer loop
      vertex -2 -4.45 9
      vertex -2 -2.0499992 -8
      vertex -2 -2.0499992 9
    endloop
  endfacet
  facet normal 0 1 0
    outer loop
      vertex -2 -6.049999 -8
      vertex 2 -6.049999 -8
      vertex 3.75 -6.049999 -9.004999
    endloop
  endfacet
  facet normal 0 0 1
    outer loop
      vertex -2 -6.049999 -8
      vertex 2 -7.5 -8
      vertex 2 -6.049999 -8
    endloop
  endfacet
  facet normal 1 0 0
    outer loop
      vertex -2 -7.5 -8
      vertex -2 -6.049999 -8
      vertex -2 -7.5 9
    endloop
  endfacet
  facet normal 0 0 1
    outer loop
      vertex -2 -7.5 -8
      vertex 2 -7.5 -8
      vertex -2 -6.049999 -8
    endloop
  endfacet
  facet normal 1 0 0
    outer loop
      vertex -2 -7.5 9
      vertex -2 -6.049999 -8
      vertex -2 -6.049999 9
    endloop
  endfacet
  facet normal 0 0 1
    outer loop
      vertex -2 1.9499998 -8
      vertex 2 -0.4499998 -8
      vertex 2 1.9499998 -8
    endloop
  endfacet
  facet normal 0 1 0
    outer loop
      vertex -2 1.9499998 -8
      vertex 2 1.9499998 -8
      vertex 3.75 1.9499998 -9.004999
    endloop
  endfacet
  facet normal 1 0 0
    outer loop
      vertex -2 11.549999 -8
      vertex -2 12.5 -8
      vertex -2 11.549999 9
    endloop
  endfacet
  facet normal 0 0 1
    outer loop
      vertex -2 11.549999 -8
      vertex 2 11.549999 -8
      vertex -2 12.5 -8
    endloop
  endfacet
  facet normal 1 0 0
    outer loop
      vertex -2 11.549999 9
      vertex -2 12.5 -8
      vertex -2 12.5 9
    endloop
  endfacet
  facet normal 0 0 1
    outer loop
      vertex -2 12.5 -8
      vertex 2 11.549999 -8
      vertex 2 12.5 -8
    endloop
  endfacet
  facet normal 0 1 0
    outer loop
      vertex -2 12.5 -8
      vertex 2 12.5 -8
      vertex 5.5 12.5 -11
    endloop
  endfacet
  facet normal 1 0 0
    outer loop
      vertex -2 3.5499992 -8
      vertex -2 5.95 -8
      vertex -2 3.5499992 9
    endloop
  endfacet
  facet normal 0 0 1
    outer loop
      vertex -2 3.5499992 -8
      vertex 2 3.5499992 -8
      vertex -2 5.95 -8
    endloop
  endfacet
  facet normal 1 0 0
    outer loop
      vertex -2 3.5499992 9
      vertex -2 5.95 -8
      vertex -2 5.95 9
    endloop
  endfacet
  facet normal 0 0 1
    outer loop
      vertex -2 5.95 -8
      vertex 2 3.5499992 -8
      vertex 2 5.95 -8
    endloop
  endfacet
  facet normal 0 1 0
    outer loop
      vertex -2 5.95 -8
      vertex 2 5.95 -8
      vertex 3.75 5.95 -9.004999
    endloop
  endfacet
  facet normal 1 0 0
    outer loop
      vertex -2 7.549999 -8
      vertex -2 9.95 -8
      vertex -2 7.549999 9
    endloop
  endfacet
  facet normal 0 0 1
    outer loop
      vertex -2 7.549999 -8
      vertex 2 7.549999 -8
      vertex -2 9.95 -8
    endloop
  endfacet
  facet normal 1 0 0
    outer loop
      vertex -2 7.549999 9
      vertex -2 9.95 -8
      vertex -2 9.95 9
    endloop
  endfacet
  facet normal 0 0 1
    outer loop
      vertex -2 9.95 -8
      vertex 2 7.549999 -8
      vertex 2 9.95 -8
    endloop
  endfacet
  facet normal 0 1 0
    outer loop
      vertex -2 9.95 -8
      vertex 2 9.95 -8
      vertex 3.75 9.95 -9.004999
    endloop
  endfacet
  facet normal 0 -1 0
    outer loop
      vertex -3.75 -0.4499998 -9.004999
      vertex -2 -0.4499998 -8
      vertex -3.75 -0.4499998 9
    endloop
  endfacet
  facet normal 0 -1 0
    outer loop
      vertex -3.75 -0.4499998 -9.004999
      vertex 2 -0.4499998 -8
      vertex -2 -0.4499998 -8
    endloop
  endfacet
  facet normal 0 -1 0
    outer loop
      vertex -3.75 -0.4499998 -9.004999
      vertex 3.75 -0.4499998 -9.004999
      vertex 2 -0.4499998 -8
    endloop
  endfacet
  facet normal 0 0 1
    outer loop
      vertex -3.75 -0.4499998 -9.004999
      vertex 3.75 -2.0499992 -9.004999
      vertex 3.75 -0.4499998 -9.004999
    endloop
  endfacet
  facet normal 0 -1 0
    outer loop
      vertex -3.75 -0.4499998 9
      vertex -2 -0.4499998 -8
      vertex -2 -0.4499998 9
    endloop
  endfacet
  facet normal 0 0 1
    outer loop
      vertex -3.75 -0.4499998 9
      vertex -2 -0.4499998 9
      vertex -3.75 1.9499998 9
    endloop
  endfacet
  facet normal 0 1 0
    outer loop
      vertex -3.75 -2.0499992 -9.004999
      vertex -2 -2.0499992 -8
      vertex 3.75 -2.0499992 -9.004999
    endloop
  endfacet
  facet normal 1 0 0
    outer loop
      vertex -3.75 -2.0499992 -9.004999
      vertex -3.75 -0.4499998 -9.004999
      vertex -3.75 -2.0499992 9
    endloop
  endfacet
  facet normal 0 1 0
    outer loop
      vertex -3.75 -2.0499992 -9.004999
      vertex -3.75 -2.0499992 9
      vertex -2 -2.0499992 -8
    endloop
  endfacet
  facet normal 0 0 1
    outer loop
      vertex -3.75 -2.0499992 -9.004999
      vertex 3.75 -2.0499992 -9.004999
      vertex -3.75 -0.4499998 -9.004999
    endloop
  endfacet
  facet normal 0 1 0
    outer loop
      vertex -3.75 -2.0499992 9
      vertex -2 -2.0499992 9
      vertex -2 -2.0499992 -8
    endloop
  endfacet
  facet normal 0 0 1
    outer loop
      vertex -3.75 -2.0499992 9
      vertex -2 -4.45 9
      vertex -2 -2.0499992 9
    endloop
  endfacet
  facet normal 1 0 0
    outer loop
      vertex -3.75 -2.0499992 9
      vertex -3.75 -0.4499998 -9.004999
      vertex -3.75 -0.4499998 9
    endloop
  endfacet
  facet normal 0 -1 0
    outer loop
      vertex -3.75 -4.45 -9.004999
      vertex -2 -4.45 -8
      vertex -3.75 -4.45 9
    endloop
  endfacet
  facet normal 0 -1 0
    outer loop
      vertex -3.75 -4.45 -9.004999
      vertex 2 -4.45 -8
      vertex -2 -4.45 -8
    endloop
  endfacet
  facet normal 0 -1 0
    outer loop
      vertex -3.75 -4.45 -9.004999
      vertex 3.75 -4.45 -9.004999
      vertex 2 -4.45 -8
    endloop
  endfacet
  facet normal 0 0 1
    outer loop
      vertex -3.75 -4.45 -9.004999
      vertex 3.75 -6.049999 -9.004999
      vertex 3.75 -4.45 -9.004999
    endloop
  endfacet
  facet normal 0 -1 0
    outer loop
      vertex -3.75 -4.45 9
      vertex -2 -4.45 -8
      vertex -2 -4.45 9
    endloop
  endfacet
  facet normal 0 0 1
    outer loop
      vertex -3.75 -4.45 9
      vertex -2 -4.45 9
      vertex -3.75 -2.0499992 9
    endloop
  endfacet
  facet normal 0 1 0
    outer loop
      vertex -3.75 -6.049999 -9.004999
      vertex -2 -6.049999 -8
      vertex 3.75 -6.049999 -9.004999
    endloop
  endfacet
  facet normal 1 0 0
    outer loop
      vertex -3.75 -6.049999 -9.004999
      vertex -3.75 -4.45 -9.004999
      vertex -3.75 -6.049999 9
    endloop
  endfacet
  facet normal 0 1 0
    outer loop
      vertex -3.75 -6.049999 -9.004999
      vertex -3.75 -6.049999 9
      vertex -2 -6.049999 -8
    endloop
  endfacet
  facet normal 0 0 1
    outer loop
      vertex -3.75 -6.049999 -9.004999
      vertex 3.75 -6.049999 -9.004999
      vertex -3.75 -4.45 -9.004999
    endloop
  endfacet
  facet normal 0 1 0
    outer loop
      vertex -3.75 -6.049999 9
      vertex -2 -6.049999 9
      vertex -2 -6.049999 -8
    endloop
  endfacet
  facet normal 0 0 1
    outer loop
      vertex -3.75 -6.049999 9
      vertex -2 -7.5 9
      vertex -2 -6.049999 9
    endloop
  endfacet
  facet normal 1 0 0
    outer loop
      vertex -3.75 -6.049999 9
      vertex -3.75 -4.45 -9.004999
      vertex -3.75 -4.45 9
    endloop
  endfacet
  facet normal 0 1 0
    outer loop
      vertex -3.75 1.9499998 -9.004999
      vertex -2 1.9499998 -8
      vertex 3.75 1.9499998 -9.004999
    endloop
  endfacet
  facet normal 0 1 0
    outer loop
      vertex -3.75 1.9499998 -9.004999
      vertex -3.75 1.9499998 9
      vertex -2 1.9499998 -8
    endloop
  endfacet
  facet normal 1 0 0
    outer loop
      vertex -3.75 1.9499998 -9.004999
      vertex -3.75 3.5499992 -9.004999
      vertex -3.75 1.9499998 9
    endloop
  endfacet
  facet normal 0 0 1
    outer loop
      vertex -3.75 1.9499998 -9.004999
      vertex 3.75 1.9499998 -9.004999
      vertex -3.75 3.5499992 -9.004999
    endloop
  endfacet
  facet normal 0 0 1
    outer loop
      vertex -3.75 1.9499998 9
      vertex -2 -0.4499998 9
      vertex -2 1.9499998 9
    endloop
  endfacet
  facet normal 0 1 0
    outer loop
      vertex -3.75 1.9499998 9
      vertex -2 1.9499998 9
      vertex -2 1.9499998 -8
    endloop
  endfacet
  facet normal 1 0 0
    outer loop
      vertex -3.75 1.9499998 9
      vertex -3.75 3.5499992 -9.004999
      vertex -3.75 3.5499992 9
    endloop
  endfacet
  facet normal 0 -1 0
    outer loop
      vertex -3.75 11.549999 -9.004999
      vertex -2 11.549999 -8
      vertex -3.75 11.549999 9
    endloop
  endfacet
  facet normal 0 -1 0
    outer loop
      vertex -3.75 11.549999 -9.004999
      vertex 2 11.549999 -8
      vertex -2 11.549999 -8
    endloop
  endfacet
  facet normal 0 -1 0
    outer loop
      vertex -3.75 11.549999 -9.004999
      vertex 3.75 11.549999 -9.004999
      vertex 2 11.549999 -8
    endloop
  endfacet
  facet normal 0 0 1
    outer loop
      vertex -3.75 11.549999 -9.004999
      vertex 3.75 9.95 -9.004999
      vertex 3.75 11.549999 -9.004999
    endloop
  endfacet
  facet normal 0 -1 0
    outer loop
      vertex -3.75 11.549999 9
      vertex -2 11.549999 -8
      vertex -2 11.549999 9
    endloop
  endfacet
  facet normal 0 0 1
    outer loop
      vertex -3.75 11.549999 9
      vertex -2 11.549999 9
      vertex -2 12.5 9
    endloop
  endfacet
  facet normal 0 -1 0
    outer loop
      vertex -3.75 3.5499992 -9.004999
      vertex -2 3.5499992 -8
      vertex -3.75 3.5499992 9
    endloop
  endfacet
  facet normal 0 -1 0
    outer loop
      vertex -3.75 3.5499992 -9.004999
      vertex 2 3.5499992 -8
      vertex -2 3.5499992 -8
    endloop
  endfacet
  facet normal 0 0 1
    outer loop
      vertex -3.75 3.5499992 -9.004999
      vertex 3.75 1.9499998 -9.004999
      vertex 3.75 3.5499992 -9.004999
    endloop
  endfacet
  facet normal 0 -1 0
    outer loop
      vertex -3.75 3.5499992 -9.004999
      vertex 3.75 3.5499992 -9.004999
      vertex 2 3.5499992 -8
    endloop
  endfacet
  facet normal 0 -1 0
    outer loop
      vertex -3.75 3.5499992 9
      vertex -2 3.5499992 -8
      vertex -2 3.5499992 9
    endloop
  endfacet
  facet normal 0 0 1
    outer loop
      vertex -3.75 3.5499992 9
      vertex -2 3.5499992 9
      vertex -3.75 5.95 9
    endloop
  endfacet
  facet normal 0 1 0
    outer loop
      vertex -3.75 5.95 -9.004999
      vertex -2 5.95 -8
      vertex 3.75 5.95 -9.004999
    endloop
  endfacet
  facet normal 0 1 0
    outer loop
      vertex -3.75 5.95 -9.004999
      vertex -3.75 5.95 9
      vertex -2 5.95 -8
    endloop
  endfacet
  facet normal 1 0 0
    outer loop
      vertex -3.75 5.95 -9.004999
      vertex -3.75 7.549999 -9.004999
      vertex -3.75 5.95 9
    endloop
  endfacet
  facet normal 0 0 1
    outer loop
      vertex -3.75 5.95 -9.004999
      vertex 3.75 5.95 -9.004999
      vertex -3.75 7.549999 -9.004999
    endloop
  endfacet
  facet normal 0 0 1
    outer loop
      vertex -3.75 5.95 9
      vertex -2 3.5499992 9
      vertex -2 5.95 9
    endloop
  endfacet
  facet normal 0 1 0
    outer loop
      vertex -3.75 5.95 9
      vertex -2 5.95 9
      vertex -2 5.95 -8
    endloop
  endfacet
  facet normal 1 0 0
    outer loop
      vertex -3.75 5.95 9
      vertex -3.75 7.549999 -9.004999
      vertex -3.75 7.549999 9
    endloop
  endfacet
  facet normal 0 -1 0
    outer loop
      vertex -3.75 7.549999 -9.004999
      vertex -2 7.549999 -8
      vertex -3.75 7.549999 9
    endloop
  endfacet
  facet normal 0 -1 0
    outer loop
      vertex -3.75 7.549999 -9.004999
      vertex 2 7.549999 -8
      vertex -2 7.549999 -8
    endloop
  endfacet
  facet normal 0 0 1
    outer loop
      vertex -3.75 7.549999 -9.004999
      vertex 3.75 5.95 -9.004999
      vertex 3.75 7.549999 -9.004999
    endloop
  endfacet
  facet normal 0 -1 0
    outer loop
      vertex -3.75 7.549999 -9.004999
      vertex 3.75 7.549999 -9.004999
      vertex 2 7.549999 -8
    endloop
  endfacet
  facet normal 0 -1 0
    outer loop
      vertex -3.75 7.549999 9
      vertex -2 7.549999 -8
      vertex -2 7.549999 9
    endloop
  endfacet
  facet normal 0 0 1
    outer loop
      vertex -3.75 7.549999 9
      vertex -2 7.549999 9
      vertex -3.75 9.95 9
    endloop
  endfacet
  facet normal 0 1 0
    outer loop
      vertex -3.75 9.95 -9.004999
      vertex -2 9.95 -8
      vertex 3.75 9.95 -9.004999
    endloop
  endfacet
  facet normal 1 0 0
    outer loop
      vertex -3.75 9.95 -9.004999
      vertex -3.75 11.549999 -9.004999
      vertex -3.75 9.95 9
    endloop
  endfacet
  facet normal 0 1 0
    outer loop
      vertex -3.75 9.95 -9.004999
      vertex -3.75 9.95 9
      vertex -2 9.95 -8
    endloop
  endfacet
  facet normal 0 0 1
    outer loop
      vertex -3.75 9.95 -9.004999
      vertex 3.75 9.95 -9.004999
      vertex -3.75 11.549999 -9.004999
    endloop
  endfacet
  facet normal 0 0 1
    outer loop
      vertex -3.75 9.95 9
      vertex -2 7.549999 9
      vertex -2 9.95 9
    endloop
  endfacet
  facet normal 0 1 0
    outer loop
      vertex -3.75 9.95 9
      vertex -2 9.95 9
      vertex -2 9.95 -8
    endloop
  endfacet
  facet normal 1 0 0
    outer loop
      vertex -3.75 9.95 9
      vertex -3.75 11.549999 -9.004999
      vertex -3.75 11.549999 9
    endloop
  endfacet
  facet normal 0 -1 0
    outer loop
      vertex -5.5 -7.5 -11
      vertex -2 -7.5 -8
      vertex -5.5 -7.5 9
    endloop
  endfacet
  facet normal -1 0 0
    outer loop
      vertex -5.5 -7.5 -11
      vertex -5.5 -7.5 9
      vertex -5.5 12.5 9
    endloop
  endfacet
  facet normal 0 0 -1
    outer loop
      vertex -5.5 -7.5 -11
      vertex -5.5 12.5 -11
      vertex 5.5 12.5 -11
    endloop
  endfacet
  facet normal -1 0 0
    outer loop
      vertex -5.5 -7.5 -11
      vertex -5.5 12.5 9
      vertex -5.5 12.5 -11
    endloop
  endfacet
  facet normal 0 -1 0
    outer loop
      vertex -5.5 -7.5 -11
      vertex 2 -7.5 -8
      vertex -2 -7.5 -8
    endloop
  endfacet
  facet normal 0 -1 0
    outer loop
      vertex -5.5 -7.5 -11
      vertex 5.5 -7.5 -11
      vertex 2 -7.5 -8
    endloop
  endfacet
  facet normal 0 0 -1
    outer loop
      vertex -5.5 -7.5 -11
      vertex 5.5 12.5 -11
      vertex 5.5 -7.5 -11
    endloop
  endfacet
  facet normal 0 -1 0
    outer loop
      vertex -5.5 -7.5 9
      vertex -2 -7.5 -8
      vertex -2 -7.5 9
    endloop
  endfacet
  facet normal 0 0 1
    outer loop
      vertex -5.5 -7.5 9
      vertex -2 -7.5 9
      vertex -3.75 -6.049999 9
    endloop
  endfacet
  facet normal 0 0 1
    outer loop
      vertex -5.5 -7.5 9
      vertex -3.75 -0.4499998 9
      vertex -3.75 1.9499998 9
    endloop
  endfacet
  facet normal 0 0 1
    outer loop
      vertex -5.5 -7.5 9
      vertex -3.75 -2.0499992 9
      vertex -3.75 -0.4499998 9
    endloop
  endfacet
  facet normal 0 0 1
    outer loop
      vertex -5.5 -7.5 9
      vertex -3.75 -4.45 9
      vertex -3.75 -2.0499992 9
    endloop
  endfacet
  facet normal 0 0 1
    outer loop
      vertex -5.5 -7.5 9
      vertex -3.75 -6.049999 9
      vertex -3.75 -4.45 9
    endloop
  endfacet
  facet normal 0 0 1
    outer loop
      vertex -5.5 -7.5 9
      vertex -3.75 1.9499998 9
      vertex -5.5 12.5 9
    endloop
  endfacet
  facet normal 0 1 0
    outer loop
      vertex -5.5 12.5 -11
      vertex -2 12.5 -8
      vertex 5.5 12.5 -11
    endloop
  endfacet
  facet normal 0 1 0
    outer loop
      vertex -5.5 12.5 -11
      vertex -5.5 12.5 9
      vertex -2 12.5 -8
    endloop
  endfacet
  facet normal 0 1 0
    outer loop
      vertex -5.5 12.5 9
      vertex -2 12.5 9
      vertex -2 12.5 -8
    endloop
  endfacet
  facet normal 0 0 1
    outer loop
      vertex -5.5 12.5 9
      vertex -3.75 1.9499998 9
      vertex -3.75 3.5499992 9
    endloop
  endfacet
  facet normal 0 0 1
    outer loop
      vertex -5.5 12.5 9
      vertex -3.75 11.549999 9
      vertex -2 12.5 9
    endloop
  endfacet
  facet normal 0 0 1
    outer loop
      vertex -5.5 12.5 9
      vertex -3.75 3.5499992 9
      vertex -3.75 5.95 9
    endloop
  endfacet
  facet normal 0 0 1
    outer loop
      vertex -5.5 12.5 9
      vertex -3.75 5.95 9
      vertex -3.75 7.549999 9
    endloop
  endfacet
  facet normal 0 0 1
    outer loop
      vertex -5.5 12.5 9
      vertex -3.75 7.549999 9
      vertex -3.75 9.95 9
    endloop
  endfacet
  facet normal 0 0 1
    outer loop
      vertex -5.5 12.5 9
      vertex -3.75 9.95 9
      vertex -3.75 11.549999 9
    endloop
  endfacet
  facet normal -1 0 0
    outer loop
      vertex 2 -0.4499998 -8
      vertex 2 -0.4499998 9
      vertex 2 1.9499998 9
    endloop
  endfacet
  facet normal -1 0 0
    outer loop
      vertex 2 -0.4499998 -8
      vertex 2 1.9499998 9
      vertex 2 1.9499998 -8
    endloop
  endfacet
  facet normal 0 -1 0
    outer loop
      vertex 2 -0.4499998 -8
      vertex 3.75 -0.4499998 -9.004999
      vertex 3.75 -0.4499998 9
    endloop
  endfacet
  facet normal 0 -1 0
    outer loop
      vertex 2 -0.4499998 -8
      vertex 3.75 -0.4499998 9
      vertex 2 -0.4499998 9
    endloop
  endfacet
  facet normal 0 0 1
    outer loop
      vertex 2 -0.4499998 9
      vertex 3.75 -0.4499998 9
      vertex 2 1.9499998 9
    endloop
  endfacet
  facet normal 0 1 0
    outer loop
      vertex 2 -2.0499992 -8
      vertex 2 -2.0499992 9
      vertex 3.75 -2.0499992 9
    endloop
  endfacet
  facet normal 0 1 0
    outer loop
      vertex 2 -2.0499992 -8
      vertex 3.75 -2.0499992 9
      vertex 3.75 -2.0499992 -9.004999
    endloop
  endfacet
  facet normal 0 0 1
    outer loop
      vertex 2 -2.0499992 9
      vertex 3.75 -4.45 9
      vertex 3.75 -2.0499992 9
    endloop
  endfacet
  facet normal -1 0 0
    outer loop
      vertex 2 -4.45 -8
      vertex 2 -2.0499992 9
      vertex 2 -2.0499992 -8
    endloop
  endfacet
  facet normal -1 0 0
    outer loop
      vertex 2 -4.45 -8
      vertex 2 -4.45 9
      vertex 2 -2.0499992 9
    endloop
  endfacet
  facet normal 0 -1 0
    outer loop
      vertex 2 -4.45 -8
      vertex 3.75 -4.45 -9.004999
      vertex 3.75 -4.45 9
    endloop
  endfacet
  facet normal 0 -1 0
    outer loop
      vertex 2 -4.45 -8
      vertex 3.75 -4.45 9
      vertex 2 -4.45 9
    endloop
  endfacet
  facet normal 0 0 1
    outer loop
      vertex 2 -4.45 9
      vertex 3.75 -4.45 9
      vertex 2 -2.0499992 9
    endloop
  endfacet
  facet normal 0 1 0
    outer loop
      vertex 2 -6.049999 -8
      vertex 2 -6.049999 9
      vertex 3.75 -6.049999 9
    endloop
  endfacet
  facet normal 0 1 0
    outer loop
      vertex 2 -6.049999 -8
      vertex 3.75 -6.049999 9
      vertex 3.75 -6.049999 -9.004999
    endloop
  endfacet
  facet normal -1 0 0
    outer loop
      vertex 2 -7.5 -8
      vertex 2 -6.049999 9
      vertex 2 -6.049999 -8
    endloop
  endfacet
  facet normal -1 0 0
    outer loop
      vertex 2 -7.5 -8
      vertex 2 -7.5 9
      vertex 2 -6.049999 9
    endloop
  endfacet
  facet normal 0 -1 0
    outer loop
      vertex 2 -7.5 -8
      vertex 5.5 -7.5 -11
      vertex 5.5 -7.5 9
    endloop
  endfacet
  facet normal 0 -1 0
    outer loop
      vertex 2 -7.5 -8
      vertex 5.5 -7.5 9
      vertex 2 -7.5 9
    endloop
  endfacet
  facet normal 0 0 1
    outer loop
      vertex 2 -7.5 9
      vertex 3.75 -6.049999 9
      vertex 2 -6.049999 9
    endloop
  endfacet
  facet normal 0 0 1
    outer loop
      vertex 2 -7.5 9
      vertex 5.5 -7.5 9
      vertex 3.75 -6.049999 9
    endloop
  endfacet
  facet normal 0 1 0
    outer loop
      vertex 2 1.9499998 -8
      vertex 2 1.9499998 9
      vertex 3.75 1.9499998 9
    endloop
  endfacet
  facet normal 0 1 0
    outer loop
      vertex 2 1.9499998 -8
      vertex 3.75 1.9499998 9
      vertex 3.75 1.9499998 -9.004999
    endloop
  endfacet
  facet normal 0 0 1
    outer loop
      vertex 2 1.9499998 9
      vertex 3.75 -0.4499998 9
      vertex 3.75 1.9499998 9
    endloop
  endfacet
  facet normal -1 0 0
    outer loop
      vertex 2 11.549999 -8
      vertex 2 11.549999 9
      vertex 2 12.5 9
    endloop
  endfacet
  facet normal -1 0 0
    outer loop
      vertex 2 11.549999 -8
      vertex 2 12.5 9
      vertex 2 12.5 -8
    endloop
  endfacet
  facet normal 0 -1 0
    outer loop
      vertex 2 11.549999 -8
      vertex 3.75 11.549999 -9.004999
      vertex 3.75 11.549999 9
    endloop
  endfacet
  facet normal 0 -1 0
    outer loop
      vertex 2 11.549999 -8
      vertex 3.75 11.549999 9
      vertex 2 11.549999 9
    endloop
  endfacet
  facet normal 0 0 1
    outer loop
      vertex 2 11.549999 9
      vertex 3.75 11.549999 9
      vertex 2 12.5 9
    endloop
  endfacet
  facet normal 0 1 0
    outer loop
      vertex 2 12.5 -8
      vertex 2 12.5 9
      vertex 5.5 12.5 9
    endloop
  endfacet
  facet normal 0 1 0
    outer loop
      vertex 2 12.5 -8
      vertex 5.5 12.5 9
      vertex 5.5 12.5 -11
    endloop
  endfacet
  facet normal 0 0 1
    outer loop
      vertex 2 12.5 9
      vertex 3.75 11.549999 9
      vertex 5.5 12.5 9
    endloop
  endfacet
  facet normal -1 0 0
    outer loop
      vertex 2 3.5499992 -8
      vertex 2 3.5499992 9
      vertex 2 5.95 9
    endloop
  endfacet
  facet normal -1 0 0
    outer loop
      vertex 2 3.5499992 -8
      vertex 2 5.95 9
      vertex 2 5.95 -8
    endloop
  endfacet
  facet normal 0 -1 0
    outer loop
      vertex 2 3.5499992 -8
      vertex 3.75 3.5499992 -9.004999
      vertex 3.75 3.5499992 9
    endloop
  endfacet
  facet normal 0 -1 0
    outer loop
      vertex 2 3.5499992 -8
      vertex 3.75 3.5499992 9
      vertex 2 3.5499992 9
    endloop
  endfacet
  facet normal 0 0 1
    outer loop
      vertex 2 3.5499992 9
      vertex 3.75 3.5499992 9
      vertex 2 5.95 9
    endloop
  endfacet
  facet normal 0 1 0
    outer loop
      vertex 2 5.95 -8
      vertex 2 5.95 9
      vertex 3.75 5.95 9
    endloop
  endfacet
  facet normal 0 1 0
    outer loop
      vertex 2 5.95 -8
      vertex 3.75 5.95 9
      vertex 3.75 5.95 -9.004999
    endloop
  endfacet
  facet normal 0 0 1
    outer loop
      vertex 2 5.95 9
      vertex 3.75 3.5499992 9
      vertex 3.75 5.95 9
    endloop
  endfacet
  facet normal -1 0 0
    outer loop
      vertex 2 7.549999 -8
      vertex 2 7.549999 9
      vertex 2 9.95 9
    endloop
  endfacet
  facet normal -1 0 0
    outer loop
      vertex 2 7.549999 -8
      vertex 2 9.95 9
      vertex 2 9.95 -8
    endloop
  endfacet
  facet normal 0 -1 0
    outer loop
      vertex 2 7.549999 -8
      vertex 3.75 7.549999 -9.004999
      vertex 3.75 7.549999 9
    endloop
  endfacet
  facet normal 0 -1 0
    outer loop
      vertex 2 7.549999 -8
      vertex 3.75 7.549999 9
      vertex 2 7.549999 9
    endloop
  endfacet
  facet normal 0 0 1
    outer loop
      vertex 2 7.549999 9
      vertex 3.75 7.549999 9
      vertex 2 9.95 9
    endloop
  endfacet
  facet normal 0 1 0
    outer loop
      vertex 2 9.95 -8
      vertex 2 9.95 9
      vertex 3.75 9.95 9
    endloop
  endfacet
  facet normal 0 1 0
    outer loop
      vertex 2 9.95 -8
      vertex 3.75 9.95 9
      vertex 3.75 9.95 -9.004999
    endloop
  endfacet
  facet normal 0 0 1
    outer loop
      vertex 2 9.95 9
      vertex 3.75 7.549999 9
      vertex 3.75 9.95 9
    endloop
  endfacet
  facet normal 0 0 1
    outer loop
      vertex 3.75 -0.4499998 9
      vertex 5.5 -7.5 9
      vertex 3.75 1.9499998 9
    endloop
  endfacet
  facet normal -1 0 0
    outer loop
      vertex 3.75 -2.0499992 -9.004999
      vertex 3.75 -0.4499998 9
      vertex 3.75 -0.4499998 -9.004999
    endloop
  endfacet
  facet normal -1 0 0
    outer loop
      vertex 3.75 -2.0499992 -9.004999
      vertex 3.75 -2.0499992 9
      vertex 3.75 -0.4499998 9
    endloop
  endfacet
  facet normal 0 0 1
    outer loop
      vertex 3.75 -2.0499992 9
      vertex 5.5 -7.5 9
      vertex 3.75 -0.4499998 9
    endloop
  endfacet
  facet normal 0 0 1
    outer loop
      vertex 3.75 -4.45 9
      vertex 5.5 -7.5 9
      vertex 3.75 -2.0499992 9
    endloop
  endfacet
  facet normal -1 0 0
    outer loop
      vertex 3.75 -6.049999 -9.004999
      vertex 3.75 -4.45 9
      vertex 3.75 -4.45 -9.004999
    endloop
  endfacet
  facet normal -1 0 0
    outer loop
      vertex 3.75 -6.049999 -9.004999
      vertex 3.75 -6.049999 9
      vertex 3.75 -4.45 9
    endloop
  endfacet
  facet normal 0 0 1
    outer loop
      vertex 3.75 -6.049999 9
      vertex 5.5 -7.5 9
      vertex 3.75 -4.45 9
    endloop
  endfacet
  facet normal -1 0 0
    outer loop
      vertex 3.75 1.9499998 -9.004999
      vertex 3.75 1.9499998 9
      vertex 3.75 3.5499992 9
    endloop
  endfacet
  facet normal -1 0 0
    outer loop
      vertex 3.75 1.9499998 -9.004999
      vertex 3.75 3.5499992 9
      vertex 3.75 3.5499992 -9.004999
    endloop
  endfacet
  facet normal 0 0 1
    outer loop
      vertex 3.75 1.9499998 9
      vertex 5.5 -7.5 9
      vertex 3.75 3.5499992 9
    endloop
  endfacet
  facet normal 0 0 1
    outer loop
      vertex 3.75 3.5499992 9
      vertex 5.5 -7.5 9
      vertex 5.5 12.5 9
    endloop
  endfacet
  facet normal 0 0 1
    outer loop
      vertex 3.75 3.5499992 9
      vertex 5.5 12.5 9
      vertex 3.75 5.95 9
    endloop
  endfacet
  facet normal -1 0 0
    outer loop
      vertex 3.75 5.95 -9.004999
      vertex 3.75 5.95 9
      vertex 3.75 7.549999 9
    endloop
  endfacet
  facet normal -1 0 0
    outer loop
      vertex 3.75 5.95 -9.004999
      vertex 3.75 7.549999 9
      vertex 3.75 7.549999 -9.004999
    endloop
  endfacet
  facet normal 0 0 1
    outer loop
      vertex 3.75 5.95 9
      vertex 5.5 12.5 9
      vertex 3.75 7.549999 9
    endloop
  endfacet
  facet normal 0 0 1
    outer loop
      vertex 3.75 7.549999 9
      vertex 5.5 12.5 9
      vertex 3.75 9.95 9
    endloop
  endfacet
  facet normal -1 0 0
    outer loop
      vertex 3.75 9.95 -9.004999
      vertex 3.75 11.549999 9
      vertex 3.75 11.549999 -9.004999
    endloop
  endfacet
  facet normal -1 0 0
    outer loop
      vertex 3.75 9.95 -9.004999
      vertex 3.75 9.95 9
      vertex 3.75 11.549999 9
    endloop
  endfacet
  facet normal 0 0 1
    outer loop
      vertex 3.75 9.95 9
      vertex 5.5 12.5 9
      vertex 3.75 11.549999 9
    endloop
  endfacet
  facet normal 1 0 0
    outer loop
      vertex 5.5 -7.5 -11
      vertex 5.5 12.5 -11
      vertex 5.5 -7.5 9
    endloop
  endfacet
  facet normal 1 0 0
    outer loop
      vertex 5.5 -7.5 9
      vertex 5.5 12.5 -11
      vertex 5.5 12.5 9
    endloop
  endfacet
endsolid OpenSCAD_Model
