solid OpenSCAD_Model
  facet normal 0 1 0
    outer loop
      vertex -0.169858 -1.6161 -0.00999928
      vertex -0.169858 -1.6161 3
      vertex 0.169858 -1.6161 -0.00999928
    endloop
  endfacet
  facet normal 0 0 -1
    outer loop
      vertex -0.169858 -1.6161 -0.00999928
      vertex 0.169858 -1.6161 -0.00999928
      vertex 1.65 -2.85788 -0.00999928
    endloop
  endfacet
  facet normal 0 1 0
    outer loop
      vertex -0.169858 -1.6161 3
      vertex 0.169858 -1.6161 3
      vertex 0.169858 -1.6161 -0.00999928
    endloop
  endfacet
  facet normal 0 0 1
    outer loop
      vertex -0.169858 -1.6161 3
      vertex 5 -2.5 3
      vertex 0.169858 -1.6161 3
    endloop
  endfacet
  facet normal 0 -1 0
    outer loop
      vertex -0.169858 1.6161 -0.00999928
      vertex 0.169858 1.6161 -0.00999928
      vertex 0.169858 1.6161 3
    endloop
  endfacet
  facet normal 0 -1 0
    outer loop
      vertex -0.169858 1.6161 -0.00999928
      vertex 0.169858 1.6161 3
      vertex -0.169858 1.6161 3
    endloop
  endfacet
  facet normal 0 0 -1
    outer loop
      vertex -0.169858 1.6161 -0.00999928
      vertex 1.65 2.85788 -0.00999928
      vertex 0.169858 1.6161 -0.00999928
    endloop
  endfacet
  facet normal 0 0 1
    outer loop
      vertex -0.169858 1.6161 3
      vertex 0.169858 1.6161 3
      vertex 5 2.5 3
    endloop
  endfacet
  facet normal 0.207908 0.978148 0
    outer loop
      vertex -0.502152 -1.54547 -0.00999928
      vertex -0.502152 -1.54547 3
      vertex -0.169858 -1.6161 -0.00999928
    endloop
  endfacet
  facet normal 0.207908 0.978148 0
    outer loop
      vertex -0.502152 -1.54547 3
      vertex -0.169858 -1.6161 3
      vertex -0.169858 -1.6161 -0.00999928
    endloop
  endfacet
  facet normal 0.207908 -0.978148 0
    outer loop
      vertex -0.502152 1.54547 -0.00999928
      vertex -0.169858 1.6161 -0.00999928
      vertex -0.169858 1.6161 3
    endloop
  endfacet
  facet normal 0.207908 -0.978148 0
    outer loop
      vertex -0.502152 1.54547 -0.00999928
      vertex -0.169858 1.6161 3
      vertex -0.502152 1.54547 3
    endloop
  endfacet
  facet normal 0.406747 0.913541 0
    outer loop
      vertex -0.8125 -1.40729 -0.00999928
      vertex -0.8125 -1.40729 3
      vertex -0.502152 -1.54547 -0.00999928
    endloop
  endfacet
  facet normal 0.406747 0.913541 0
    outer loop
      vertex -0.8125 -1.40729 3
      vertex -0.502152 -1.54547 3
      vertex -0.502152 -1.54547 -0.00999928
    endloop
  endfacet
  facet normal 0.406747 -0.913541 0
    outer loop
      vertex -0.8125 1.40729 -0.00999928
      vertex -0.502152 1.54547 -0.00999928
      vertex -0.502152 1.54547 3
    endloop
  endfacet
  facet normal 0.406747 -0.913541 0
    outer loop
      vertex -0.8125 1.40729 -0.00999928
      vertex -0.502152 1.54547 3
      vertex -0.8125 1.40729 3
    endloop
  endfacet
  facet normal 0.58778 0.809021 0
    outer loop
      vertex -1.08734 -1.20761 -0.00999928
      vertex -1.08734 -1.20761 3
      vertex -0.8125 -1.40729 -0.00999928
    endloop
  endfacet
  facet normal 0.58778 0.809021 0
    outer loop
      vertex -1.08734 -1.20761 3
      vertex -0.8125 -1.40729 3
      vertex -0.8125 -1.40729 -0.00999928
    endloop
  endfacet
  facet normal 0.58778 -0.809021 0
    outer loop
      vertex -1.08734 1.20761 -0.00999928
      vertex -0.8125 1.40729 -0.00999928
      vertex -0.8125 1.40729 3
    endloop
  endfacet
  facet normal 0.58778 -0.809021 0
    outer loop
      vertex -1.08734 1.20761 -0.00999928
      vertex -0.8125 1.40729 3
      vertex -1.08734 1.20761 3
    endloop
  endfacet
  facet normal 0.743152 0.669122 0
    outer loop
      vertex -1.31465 -0.955151 -0.00999928
      vertex -1.08734 -1.20761 3
      vertex -1.08734 -1.20761 -0.00999928
    endloop
  endfacet
  facet normal 0.743152 0.669122 0
    outer loop
      vertex -1.31465 -0.955151 -0.00999928
      vertex -1.31465 -0.955151 3
      vertex -1.08734 -1.20761 3
    endloop
  endfacet
  facet normal 0.743152 -0.669122 0
    outer loop
      vertex -1.31465 0.955151 -0.00999928
      vertex -1.08734 1.20761 -0.00999928
      vertex -1.31465 0.955151 3
    endloop
  endfacet
  facet normal 0.743152 -0.669122 0
    outer loop
      vertex -1.31465 0.955151 3
      vertex -1.08734 1.20761 -0.00999928
      vertex -1.08734 1.20761 3
    endloop
  endfacet
  facet normal 0.866024 0.500003 0
    outer loop
      vertex -1.48451 -0.660947 -0.00999928
      vertex -1.31465 -0.955151 3
      vertex -1.31465 -0.955151 -0.00999928
    endloop
  endfacet
  facet normal 0.866024 0.500003 0
    outer loop
      vertex -1.48451 -0.660947 -0.00999928
      vertex -1.48451 -0.660947 3
      vertex -1.31465 -0.955151 3
    endloop
  endfacet
  facet normal 0.866024 -0.500003 0
    outer loop
      vertex -1.48451 0.660947 -0.00999928
      vertex -1.31465 0.955151 -0.00999928
      vertex -1.48451 0.660947 3
    endloop
  endfacet
  facet normal 0.866024 -0.500003 0
    outer loop
      vertex -1.48451 0.660947 3
      vertex -1.31465 0.955151 -0.00999928
      vertex -1.31465 0.955151 3
    endloop
  endfacet
  facet normal 0.951055 0.309021 0
    outer loop
      vertex -1.58949 -0.337856 -0.00999928
      vertex -1.48451 -0.660947 3
      vertex -1.48451 -0.660947 -0.00999928
    endloop
  endfacet
  facet normal 0.951055 0.309021 0
    outer loop
      vertex -1.58949 -0.337856 -0.00999928
      vertex -1.58949 -0.337856 3
      vertex -1.48451 -0.660947 3
    endloop
  endfacet
  facet normal 0.951055 -0.309021 0
    outer loop
      vertex -1.58949 0.337856 -0.00999928
      vertex -1.48451 0.660947 -0.00999928
      vertex -1.58949 0.337856 3
    endloop
  endfacet
  facet normal 0.951055 -0.309021 0
    outer loop
      vertex -1.58949 0.337856 3
      vertex -1.48451 0.660947 -0.00999928
      vertex -1.48451 0.660947 3
    endloop
  endfacet
  facet normal 0.994522 0.104528 0
    outer loop
      vertex -1.625 0 -0.00999928
      vertex -1.58949 -0.337856 3
      vertex -1.58949 -0.337856 -0.00999928
    endloop
  endfacet
  facet normal 0.994522 -0.104528 0
    outer loop
      vertex -1.625 0 -0.00999928
      vertex -1.58949 0.337856 -0.00999928
      vertex -1.625 0 3
    endloop
  endfacet
  facet normal 0.994522 0.104528 0
    outer loop
      vertex -1.625 0 -0.00999928
      vertex -1.625 0 3
      vertex -1.58949 -0.337856 3
    endloop
  endfacet
  facet normal 0.994522 -0.104528 0
    outer loop
      vertex -1.625 0 3
      vertex -1.58949 0.337856 -0.00999928
      vertex -1.58949 0.337856 3
    endloop
  endfacet
  facet normal 0 0 -1
    outer loop
      vertex -1.65 -2.85788 -0.00999928
      vertex -0.169858 -1.6161 -0.00999928
      vertex 1.65 -2.85788 -0.00999928
    endloop
  endfacet
  facet normal 0 0 -1
    outer loop
      vertex -1.65 -2.85788 -0.00999928
      vertex -0.502152 -1.54547 -0.00999928
      vertex -0.169858 -1.6161 -0.00999928
    endloop
  endfacet
  facet normal 0 0 -1
    outer loop
      vertex -1.65 -2.85788 -0.00999928
      vertex -0.8125 -1.40729 -0.00999928
      vertex -0.502152 -1.54547 -0.00999928
    endloop
  endfacet
  facet normal 0 0 -1
    outer loop
      vertex -1.65 -2.85788 -0.00999928
      vertex -1.08734 -1.20761 -0.00999928
      vertex -0.8125 -1.40729 -0.00999928
    endloop
  endfacet
  facet normal 0 0 -1
    outer loop
      vertex -1.65 -2.85788 -0.00999928
      vertex -1.31465 -0.955151 -0.00999928
      vertex -1.08734 -1.20761 -0.00999928
    endloop
  endfacet
  facet normal 0 0 -1
    outer loop
      vertex -1.65 -2.85788 -0.00999928
      vertex -1.48451 -0.660947 -0.00999928
      vertex -1.31465 -0.955151 -0.00999928
    endloop
  endfacet
  facet normal 0 1 0
    outer loop
      vertex -1.65 -2.85788 -0.00999928
      vertex 1.65 -2.85788 -0.00999928
      vertex 1.65 -2.85788 -1.89948
    endloop
  endfacet
  facet normal 0 1 0
    outer loop
      vertex -1.65 -2.85788 -1.89948
      vertex -1.65 -2.85788 -0.00999928
      vertex 1.65 -2.85788 -1.89948
    endloop
  endfacet
  facet normal 0 -0.707107 -0.707107
    outer loop
      vertex -1.65 -2.85788 -1.89948
      vertex 1.65 -2.85788 -1.89948
      vertex 5 -5 0.24264
    endloop
  endfacet
  facet normal 0 0 -1
    outer loop
      vertex -1.65 2.85788 -0.00999928
      vertex -0.169858 1.6161 -0.00999928
      vertex -0.502152 1.54547 -0.00999928
    endloop
  endfacet
  facet normal 0 0 -1
    outer loop
      vertex -1.65 2.85788 -0.00999928
      vertex -0.502152 1.54547 -0.00999928
      vertex -0.8125 1.40729 -0.00999928
    endloop
  endfacet
  facet normal 0 0 -1
    outer loop
      vertex -1.65 2.85788 -0.00999928
      vertex -0.8125 1.40729 -0.00999928
      vertex -1.08734 1.20761 -0.00999928
    endloop
  endfacet
  facet normal 0 0 -1
    outer loop
      vertex -1.65 2.85788 -0.00999928
      vertex -1.08734 1.20761 -0.00999928
      vertex -1.31465 0.955151 -0.00999928
    endloop
  endfacet
  facet normal 0 0 -1
    outer loop
      vertex -1.65 2.85788 -0.00999928
      vertex -1.31465 0.955151 -0.00999928
      vertex -1.48451 0.660947 -0.00999928
    endloop
  endfacet
  facet normal 0 0 -1
    outer loop
      vertex -1.65 2.85788 -0.00999928
      vertex 1.65 2.85788 -0.00999928
      vertex -0.169858 1.6161 -0.00999928
    endloop
  endfacet
  facet normal 0 -1 0
    outer loop
      vertex -1.65 2.85788 -1.89948
      vertex 1.65 2.85788 -0.00999928
      vertex -1.65 2.85788 -0.00999928
    endloop
  endfacet
  facet normal 0 -1 0
    outer loop
      vertex -1.65 2.85788 -1.89948
      vertex 1.65 2.85788 -1.89948
      vertex 1.65 2.85788 -0.00999928
    endloop
  endfacet
  facet normal 0 0 -1
    outer loop
      vertex -3.3 0 -0.00999928
      vertex -1.48451 -0.660947 -0.00999928
      vertex -1.65 -2.85788 -0.00999928
    endloop
  endfacet
  facet normal 0 0 -1
    outer loop
      vertex -3.3 0 -0.00999928
      vertex -1.48451 0.660947 -0.00999928
      vertex -1.58949 0.337856 -0.00999928
    endloop
  endfacet
  facet normal 0 0 -1
    outer loop
      vertex -3.3 0 -0.00999928
      vertex -1.58949 -0.337856 -0.00999928
      vertex -1.48451 -0.660947 -0.00999928
    endloop
  endfacet
  facet normal 0 0 -1
    outer loop
      vertex -3.3 0 -0.00999928
      vertex -1.58949 0.337856 -0.00999928
      vertex -1.625 0 -0.00999928
    endloop
  endfacet
  facet normal 0 0 -1
    outer loop
      vertex -3.3 0 -0.00999928
      vertex -1.625 0 -0.00999928
      vertex -1.58949 -0.337856 -0.00999928
    endloop
  endfacet
  facet normal 0.866025 0.500001 0
    outer loop
      vertex -3.3 0 -0.00999928
      vertex -1.65 -2.85788 -0.00999928
      vertex -1.65 -2.85788 -1.89948
    endloop
  endfacet
  facet normal 0.866025 0.5 6.88562e-07
    outer loop
      vertex -3.3 0 -0.00999928
      vertex -1.65 -2.85788 -1.89948
      vertex -2.11218 -2.05736 -2.7
    endloop
  endfacet
  facet normal 0 0 -1
    outer loop
      vertex -3.3 0 -0.00999928
      vertex -1.65 2.85788 -0.00999928
      vertex -1.48451 0.660947 -0.00999928
    endloop
  endfacet
  facet normal 0.866025 -0.500001 0
    outer loop
      vertex -3.3 0 -0.00999928
      vertex -1.65 2.85788 -1.89948
      vertex -1.65 2.85788 -0.00999928
    endloop
  endfacet
  facet normal 0.866025 -0.5 6.88562e-07
    outer loop
      vertex -3.3 0 -0.00999928
      vertex -2.11218 2.05736 -2.7
      vertex -1.65 2.85788 -1.89948
    endloop
  endfacet
  facet normal 0.866025 -0.500001 0
    outer loop
      vertex -3.3 0 -2.7
      vertex -2.11218 2.05736 -2.7
      vertex -3.3 0 -0.00999928
    endloop
  endfacet
  facet normal 0.866025 0.500001 0
    outer loop
      vertex -3.3 0 -2.7
      vertex -3.3 0 -0.00999928
      vertex -2.11218 -2.05736 -2.7
    endloop
  endfacet
  facet normal 0 -0.707107 -0.707107
    outer loop
      vertex -5 -2.05736 -2.7
      vertex -2.11218 -2.05736 -2.7
      vertex -1.65 -2.85788 -1.89948
    endloop
  endfacet
  facet normal 0 0 -1
    outer loop
      vertex -5 -2.05736 -2.7
      vertex -3.3 0 -2.7
      vertex -2.11218 -2.05736 -2.7
    endloop
  endfacet
  facet normal 0 0 -1
    outer loop
      vertex -5 -2.05736 -2.7
      vertex -5 2.05736 -2.7
      vertex -3.3 0 -2.7
    endloop
  endfacet
  facet normal -1 0 0
    outer loop
      vertex -5 -2.5 1.3
      vertex -5 -2.5 3
      vertex -5 2.5 3
    endloop
  endfacet
  facet normal -1 0 0
    outer loop
      vertex -5 -2.5 1.3
      vertex -5 2.05736 -2.7
      vertex -5 -2.05736 -2.7
    endloop
  endfacet
  facet normal -1 0 0
    outer loop
      vertex -5 -2.5 1.3
      vertex -5 2.5 1.3
      vertex -5 2.05736 -2.7
    endloop
  endfacet
  facet normal -1 0 0
    outer loop
      vertex -5 -2.5 1.3
      vertex -5 2.5 3
      vertex -5 2.5 1.3
    endloop
  endfacet
  facet normal 0 -1 0
    outer loop
      vertex -5 -2.5 1.3
      vertex 5 -2.5 1.3
      vertex 5 -2.5 3
    endloop
  endfacet
  facet normal 0 -1 0
    outer loop
      vertex -5 -2.5 1.3
      vertex 5 -2.5 3
      vertex -5 -2.5 3
    endloop
  endfacet
  facet normal 0 0 1
    outer loop
      vertex -5 -2.5 1.3
      vertex 5 -5 1.3
      vertex 5 -2.5 1.3
    endloop
  endfacet
  facet normal 0 0 1
    outer loop
      vertex -5 -2.5 3
      vertex -0.169858 -1.6161 3
      vertex -0.502152 -1.54547 3
    endloop
  endfacet
  facet normal 0 0 1
    outer loop
      vertex -5 -2.5 3
      vertex -0.502152 -1.54547 3
      vertex -0.8125 -1.40729 3
    endloop
  endfacet
  facet normal 0 0 1
    outer loop
      vertex -5 -2.5 3
      vertex -0.8125 -1.40729 3
      vertex -1.08734 -1.20761 3
    endloop
  endfacet
  facet normal 0 0 1
    outer loop
      vertex -5 -2.5 3
      vertex -1.08734 -1.20761 3
      vertex -1.31465 -0.955151 3
    endloop
  endfacet
  facet normal 0 0 1
    outer loop
      vertex -5 -2.5 3
      vertex -1.31465 -0.955151 3
      vertex -1.48451 -0.660947 3
    endloop
  endfacet
  facet normal 0 0 1
    outer loop
      vertex -5 -2.5 3
      vertex -1.48451 -0.660947 3
      vertex -1.58949 -0.337856 3
    endloop
  endfacet
  facet normal 0 0 1
    outer loop
      vertex -5 -2.5 3
      vertex -1.58949 -0.337856 3
      vertex -1.625 0 3
    endloop
  endfacet
  facet normal 0 0 1
    outer loop
      vertex -5 -2.5 3
      vertex -1.625 0 3
      vertex -5 2.5 3
    endloop
  endfacet
  facet normal 0 0 1
    outer loop
      vertex -5 -2.5 3
      vertex 5 -2.5 3
      vertex -0.169858 -1.6161 3
    endloop
  endfacet
  facet normal 0 -0.707107 -0.707107
    outer loop
      vertex -5 -5 0.24264
      vertex -1.65 -2.85788 -1.89948
      vertex 5 -5 0.24264
    endloop
  endfacet
  facet normal -3.18547e-17 -0.707107 -0.707107
    outer loop
      vertex -5 -5 0.24264
      vertex -5 -2.05736 -2.7
      vertex -1.65 -2.85788 -1.89948
    endloop
  endfacet
  facet normal -1 0 0
    outer loop
      vertex -5 -5 0.24264
      vertex -5 -2.5 1.3
      vertex -5 -2.05736 -2.7
    endloop
  endfacet
  facet normal -1 0 0
    outer loop
      vertex -5 -5 0.24264
      vertex -5 -5 1.3
      vertex -5 -2.5 1.3
    endloop
  endfacet
  facet normal 0 -1 0
    outer loop
      vertex -5 -5 0.24264
      vertex 5 -5 0.24264
      vertex 5 -5 1.3
    endloop
  endfacet
  facet normal 0 -1 0
    outer loop
      vertex -5 -5 0.24264
      vertex 5 -5 1.3
      vertex -5 -5 1.3
    endloop
  endfacet
  facet normal 0 0 1
    outer loop
      vertex -5 -5 1.3
      vertex 5 -5 1.3
      vertex -5 -2.5 1.3
    endloop
  endfacet
  facet normal 0 0.707107 -0.707107
    outer loop
      vertex -5 2.05736 -2.7
      vertex -1.65 2.85788 -1.89948
      vertex -2.11218 2.05736 -2.7
    endloop
  endfacet
  facet normal 0 0 -1
    outer loop
      vertex -5 2.05736 -2.7
      vertex -2.11218 2.05736 -2.7
      vertex -3.3 0 -2.7
    endloop
  endfacet
  facet normal -1 0 0
    outer loop
      vertex -5 2.05736 -2.7
      vertex -5 2.5 1.3
      vertex -5 5 0.24264
    endloop
  endfacet
  facet normal -3.18547e-17 0.707107 -0.707107
    outer loop
      vertex -5 2.05736 -2.7
      vertex -5 5 0.24264
      vertex -1.65 2.85788 -1.89948
    endloop
  endfacet
  facet normal 0 1 0
    outer loop
      vertex -5 2.5 1.3
      vertex -5 2.5 3
      vertex 5 2.5 1.3
    endloop
  endfacet
  facet normal -1 0 0
    outer loop
      vertex -5 2.5 1.3
      vertex -5 5 1.3
      vertex -5 5 0.24264
    endloop
  endfacet
  facet normal 0 0 1
    outer loop
      vertex -5 2.5 1.3
      vertex 5 2.5 1.3
      vertex -5 5 1.3
    endloop
  endfacet
  facet normal 0 0 1
    outer loop
      vertex -5 2.5 3
      vertex -0.169858 1.6161 3
      vertex 5 2.5 3
    endloop
  endfacet
  facet normal 0 0 1
    outer loop
      vertex -5 2.5 3
      vertex -0.502152 1.54547 3
      vertex -0.169858 1.6161 3
    endloop
  endfacet
  facet normal 0 0 1
    outer loop
      vertex -5 2.5 3
      vertex -0.8125 1.40729 3
      vertex -0.502152 1.54547 3
    endloop
  endfacet
  facet normal 0 0 1
    outer loop
      vertex -5 2.5 3
      vertex -1.08734 1.20761 3
      vertex -0.8125 1.40729 3
    endloop
  endfacet
  facet normal 0 0 1
    outer loop
      vertex -5 2.5 3
      vertex -1.31465 0.955151 3
      vertex -1.08734 1.20761 3
    endloop
  endfacet
  facet normal 0 0 1
    outer loop
      vertex -5 2.5 3
      vertex -1.48451 0.660947 3
      vertex -1.31465 0.955151 3
    endloop
  endfacet
  facet normal 0 0 1
    outer loop
      vertex -5 2.5 3
      vertex -1.58949 0.337856 3
      vertex -1.48451 0.660947 3
    endloop
  endfacet
  facet normal 0 0 1
    outer loop
      vertex -5 2.5 3
      vertex -1.625 0 3
      vertex -1.58949 0.337856 3
    endloop
  endfacet
  facet normal 0 1 0
    outer loop
      vertex -5 2.5 3
      vertex 5 2.5 3
      vertex 5 2.5 1.3
    endloop
  endfacet
  facet normal 0 1 0
    outer loop
      vertex -5 5 0.24264
      vertex -5 5 1.3
      vertex 5 5 0.24264
    endloop
  endfacet
  facet normal 0 0.707107 -0.707107
    outer loop
      vertex -5 5 0.24264
      vertex 1.65 2.85788 -1.89948
      vertex -1.65 2.85788 -1.89948
    endloop
  endfacet
  facet normal 0 0.707107 -0.707107
    outer loop
      vertex -5 5 0.24264
      vertex 5 5 0.24264
      vertex 1.65 2.85788 -1.89948
    endloop
  endfacet
  facet normal 0 0 1
    outer loop
      vertex -5 5 1.3
      vertex 5 2.5 1.3
      vertex 5 5 1.3
    endloop
  endfacet
  facet normal 0 1 0
    outer loop
      vertex -5 5 1.3
      vertex 5 5 1.3
      vertex 5 5 0.24264
    endloop
  endfacet
  facet normal -0.207908 0.978148 0
    outer loop
      vertex 0.169858 -1.6161 -0.00999928
      vertex 0.169858 -1.6161 3
      vertex 0.502152 -1.54547 -0.00999928
    endloop
  endfacet
  facet normal 0 0 -1
    outer loop
      vertex 0.169858 -1.6161 -0.00999928
      vertex 0.502152 -1.54547 -0.00999928
      vertex 1.65 -2.85788 -0.00999928
    endloop
  endfacet
  facet normal -0.207908 0.978148 0
    outer loop
      vertex 0.169858 -1.6161 3
      vertex 0.502152 -1.54547 3
      vertex 0.502152 -1.54547 -0.00999928
    endloop
  endfacet
  facet normal 0 0 1
    outer loop
      vertex 0.169858 -1.6161 3
      vertex 5 -2.5 3
      vertex 0.502152 -1.54547 3
    endloop
  endfacet
  facet normal -0.207908 -0.978148 0
    outer loop
      vertex 0.169858 1.6161 -0.00999928
      vertex 0.502152 1.54547 -0.00999928
      vertex 0.502152 1.54547 3
    endloop
  endfacet
  facet normal -0.207908 -0.978148 0
    outer loop
      vertex 0.169858 1.6161 -0.00999928
      vertex 0.502152 1.54547 3
      vertex 0.169858 1.6161 3
    endloop
  endfacet
  facet normal 0 0 -1
    outer loop
      vertex 0.169858 1.6161 -0.00999928
      vertex 1.65 2.85788 -0.00999928
      vertex 0.502152 1.54547 -0.00999928
    endloop
  endfacet
  facet normal 0 0 1
    outer loop
      vertex 0.169858 1.6161 3
      vertex 0.502152 1.54547 3
      vertex 5 2.5 3
    endloop
  endfacet
  facet normal -0.406747 0.913541 0
    outer loop
      vertex 0.502152 -1.54547 -0.00999928
      vertex 0.502152 -1.54547 3
      vertex 0.8125 -1.40729 -0.00999928
    endloop
  endfacet
  facet normal 0 0 -1
    outer loop
      vertex 0.502152 -1.54547 -0.00999928
      vertex 0.8125 -1.40729 -0.00999928
      vertex 1.65 -2.85788 -0.00999928
    endloop
  endfacet
  facet normal -0.406747 0.913541 0
    outer loop
      vertex 0.502152 -1.54547 3
      vertex 0.8125 -1.40729 3
      vertex 0.8125 -1.40729 -0.00999928
    endloop
  endfacet
  facet normal 0 0 1
    outer loop
      vertex 0.502152 -1.54547 3
      vertex 5 -2.5 3
      vertex 0.8125 -1.40729 3
    endloop
  endfacet
  facet normal -0.406747 -0.913541 0
    outer loop
      vertex 0.502152 1.54547 -0.00999928
      vertex 0.8125 1.40729 -0.00999928
      vertex 0.8125 1.40729 3
    endloop
  endfacet
  facet normal -0.406747 -0.913541 0
    outer loop
      vertex 0.502152 1.54547 -0.00999928
      vertex 0.8125 1.40729 3
      vertex 0.502152 1.54547 3
    endloop
  endfacet
  facet normal 0 0 -1
    outer loop
      vertex 0.502152 1.54547 -0.00999928
      vertex 1.65 2.85788 -0.00999928
      vertex 0.8125 1.40729 -0.00999928
    endloop
  endfacet
  facet normal 0 0 1
    outer loop
      vertex 0.502152 1.54547 3
      vertex 0.8125 1.40729 3
      vertex 5 2.5 3
    endloop
  endfacet
  facet normal -0.58778 0.809021 0
    outer loop
      vertex 0.8125 -1.40729 -0.00999928
      vertex 0.8125 -1.40729 3
      vertex 1.08734 -1.20761 -0.00999928
    endloop
  endfacet
  facet normal 0 0 -1
    outer loop
      vertex 0.8125 -1.40729 -0.00999928
      vertex 1.08734 -1.20761 -0.00999928
      vertex 1.65 -2.85788 -0.00999928
    endloop
  endfacet
  facet normal -0.58778 0.809021 0
    outer loop
      vertex 0.8125 -1.40729 3
      vertex 1.08734 -1.20761 3
      vertex 1.08734 -1.20761 -0.00999928
    endloop
  endfacet
  facet normal 0 0 1
    outer loop
      vertex 0.8125 -1.40729 3
      vertex 5 -2.5 3
      vertex 1.08734 -1.20761 3
    endloop
  endfacet
  facet normal -0.58778 -0.809021 0
    outer loop
      vertex 0.8125 1.40729 -0.00999928
      vertex 1.08734 1.20761 -0.00999928
      vertex 1.08734 1.20761 3
    endloop
  endfacet
  facet normal -0.58778 -0.809021 0
    outer loop
      vertex 0.8125 1.40729 -0.00999928
      vertex 1.08734 1.20761 3
      vertex 0.8125 1.40729 3
    endloop
  endfacet
  facet normal 0 0 -1
    outer loop
      vertex 0.8125 1.40729 -0.00999928
      vertex 1.65 2.85788 -0.00999928
      vertex 1.08734 1.20761 -0.00999928
    endloop
  endfacet
  facet normal 0 0 1
    outer loop
      vertex 0.8125 1.40729 3
      vertex 1.08734 1.20761 3
      vertex 5 2.5 3
    endloop
  endfacet
  facet normal -0.743152 0.669122 0
    outer loop
      vertex 1.08734 -1.20761 -0.00999928
      vertex 1.08734 -1.20761 3
      vertex 1.31465 -0.955151 3
    endloop
  endfacet
  facet normal 0 0 -1
    outer loop
      vertex 1.08734 -1.20761 -0.00999928
      vertex 1.31465 -0.955151 -0.00999928
      vertex 1.65 -2.85788 -0.00999928
    endloop
  endfacet
  facet normal -0.743152 0.669122 0
    outer loop
      vertex 1.08734 -1.20761 -0.00999928
      vertex 1.31465 -0.955151 3
      vertex 1.31465 -0.955151 -0.00999928
    endloop
  endfacet
  facet normal 0 0 1
    outer loop
      vertex 1.08734 -1.20761 3
      vertex 5 -2.5 3
      vertex 1.31465 -0.955151 3
    endloop
  endfacet
  facet normal -0.743152 -0.669122 0
    outer loop
      vertex 1.08734 1.20761 -0.00999928
      vertex 1.31465 0.955151 -0.00999928
      vertex 1.08734 1.20761 3
    endloop
  endfacet
  facet normal 0 0 -1
    outer loop
      vertex 1.08734 1.20761 -0.00999928
      vertex 1.65 2.85788 -0.00999928
      vertex 1.31465 0.955151 -0.00999928
    endloop
  endfacet
  facet normal -0.743152 -0.669122 0
    outer loop
      vertex 1.08734 1.20761 3
      vertex 1.31465 0.955151 -0.00999928
      vertex 1.31465 0.955151 3
    endloop
  endfacet
  facet normal 0 0 1
    outer loop
      vertex 1.08734 1.20761 3
      vertex 1.31465 0.955151 3
      vertex 5 2.5 3
    endloop
  endfacet
  facet normal -0.866024 0.500003 0
    outer loop
      vertex 1.31465 -0.955151 -0.00999928
      vertex 1.31465 -0.955151 3
      vertex 1.48451 -0.660947 3
    endloop
  endfacet
  facet normal 0 0 -1
    outer loop
      vertex 1.31465 -0.955151 -0.00999928
      vertex 1.48451 -0.660947 -0.00999928
      vertex 1.65 -2.85788 -0.00999928
    endloop
  endfacet
  facet normal -0.866024 0.500003 0
    outer loop
      vertex 1.31465 -0.955151 -0.00999928
      vertex 1.48451 -0.660947 3
      vertex 1.48451 -0.660947 -0.00999928
    endloop
  endfacet
  facet normal 0 0 1
    outer loop
      vertex 1.31465 -0.955151 3
      vertex 5 -2.5 3
      vertex 1.48451 -0.660947 3
    endloop
  endfacet
  facet normal -0.866024 -0.500003 0
    outer loop
      vertex 1.31465 0.955151 -0.00999928
      vertex 1.48451 0.660947 -0.00999928
      vertex 1.31465 0.955151 3
    endloop
  endfacet
  facet normal 0 0 -1
    outer loop
      vertex 1.31465 0.955151 -0.00999928
      vertex 1.65 2.85788 -0.00999928
      vertex 1.48451 0.660947 -0.00999928
    endloop
  endfacet
  facet normal -0.866024 -0.500003 0
    outer loop
      vertex 1.31465 0.955151 3
      vertex 1.48451 0.660947 -0.00999928
      vertex 1.48451 0.660947 3
    endloop
  endfacet
  facet normal 0 0 1
    outer loop
      vertex 1.31465 0.955151 3
      vertex 1.48451 0.660947 3
      vertex 5 2.5 3
    endloop
  endfacet
  facet normal -0.951055 0.309021 0
    outer loop
      vertex 1.48451 -0.660947 -0.00999928
      vertex 1.48451 -0.660947 3
      vertex 1.58949 -0.337856 3
    endloop
  endfacet
  facet normal 0 0 -1
    outer loop
      vertex 1.48451 -0.660947 -0.00999928
      vertex 1.58949 -0.337856 -0.00999928
      vertex 3.3 0 -0.00999928
    endloop
  endfacet
  facet normal -0.951055 0.309021 0
    outer loop
      vertex 1.48451 -0.660947 -0.00999928
      vertex 1.58949 -0.337856 3
      vertex 1.58949 -0.337856 -0.00999928
    endloop
  endfacet
  facet normal 0 0 -1
    outer loop
      vertex 1.48451 -0.660947 -0.00999928
      vertex 3.3 0 -0.00999928
      vertex 1.65 -2.85788 -0.00999928
    endloop
  endfacet
  facet normal 0 0 1
    outer loop
      vertex 1.48451 -0.660947 3
      vertex 5 -2.5 3
      vertex 1.58949 -0.337856 3
    endloop
  endfacet
  facet normal -0.951055 -0.309021 0
    outer loop
      vertex 1.48451 0.660947 -0.00999928
      vertex 1.58949 0.337856 -0.00999928
      vertex 1.48451 0.660947 3
    endloop
  endfacet
  facet normal 0 0 -1
    outer loop
      vertex 1.48451 0.660947 -0.00999928
      vertex 1.65 2.85788 -0.00999928
      vertex 3.3 0 -0.00999928
    endloop
  endfacet
  facet normal 0 0 -1
    outer loop
      vertex 1.48451 0.660947 -0.00999928
      vertex 3.3 0 -0.00999928
      vertex 1.58949 0.337856 -0.00999928
    endloop
  endfacet
  facet normal -0.951055 -0.309021 0
    outer loop
      vertex 1.48451 0.660947 3
      vertex 1.58949 0.337856 -0.00999928
      vertex 1.58949 0.337856 3
    endloop
  endfacet
  facet normal 0 0 1
    outer loop
      vertex 1.48451 0.660947 3
      vertex 1.58949 0.337856 3
      vertex 5 2.5 3
    endloop
  endfacet
  facet normal -0.994522 0.104528 0
    outer loop
      vertex 1.58949 -0.337856 -0.00999928
      vertex 1.58949 -0.337856 3
      vertex 1.625 0 3
    endloop
  endfacet
  facet normal 0 0 -1
    outer loop
      vertex 1.58949 -0.337856 -0.00999928
      vertex 1.625 0 -0.00999928
      vertex 3.3 0 -0.00999928
    endloop
  endfacet
  facet normal -0.994522 0.104528 0
    outer loop
      vertex 1.58949 -0.337856 -0.00999928
      vertex 1.625 0 3
      vertex 1.625 0 -0.00999928
    endloop
  endfacet
  facet normal 0 0 1
    outer loop
      vertex 1.58949 -0.337856 3
      vertex 5 -2.5 3
      vertex 1.625 0 3
    endloop
  endfacet
  facet normal -0.994522 -0.104528 0
    outer loop
      vertex 1.58949 0.337856 -0.00999928
      vertex 1.625 0 -0.00999928
      vertex 1.58949 0.337856 3
    endloop
  endfacet
  facet normal 0 0 -1
    outer loop
      vertex 1.58949 0.337856 -0.00999928
      vertex 3.3 0 -0.00999928
      vertex 1.625 0 -0.00999928
    endloop
  endfacet
  facet normal -0.994522 -0.104528 0
    outer loop
      vertex 1.58949 0.337856 3
      vertex 1.625 0 -0.00999928
      vertex 1.625 0 3
    endloop
  endfacet
  facet normal 0 0 1
    outer loop
      vertex 1.58949 0.337856 3
      vertex 1.625 0 3
      vertex 5 2.5 3
    endloop
  endfacet
  facet normal 0 0 1
    outer loop
      vertex 1.625 0 3
      vertex 5 -2.5 3
      vertex 5 2.5 3
    endloop
  endfacet
  facet normal -0.866025 0.500001 0
    outer loop
      vertex 1.65 -2.85788 -1.89948
      vertex 1.65 -2.85788 -0.00999928
      vertex 3.3 0 -0.00999928
    endloop
  endfacet
  facet normal 0 -0.707107 -0.707107
    outer loop
      vertex 1.65 -2.85788 -1.89948
      vertex 2.11218 -2.05736 -2.7
      vertex 5 -2.05736 -2.7
    endloop
  endfacet
  facet normal -0.866025 0.5 6.88562e-07
    outer loop
      vertex 1.65 -2.85788 -1.89948
      vertex 3.3 0 -0.00999928
      vertex 2.11218 -2.05736 -2.7
    endloop
  endfacet
  facet normal 3.18547e-17 -0.707107 -0.707107
    outer loop
      vertex 1.65 -2.85788 -1.89948
      vertex 5 -2.05736 -2.7
      vertex 5 -5 0.24264
    endloop
  endfacet
  facet normal -0.866025 -0.5 6.88562e-07
    outer loop
      vertex 1.65 2.85788 -1.89948
      vertex 2.11218 2.05736 -2.7
      vertex 3.3 0 -0.00999928
    endloop
  endfacet
  facet normal -0.866025 -0.500001 0
    outer loop
      vertex 1.65 2.85788 -1.89948
      vertex 3.3 0 -0.00999928
      vertex 1.65 2.85788 -0.00999928
    endloop
  endfacet
  facet normal 0 0.707107 -0.707107
    outer loop
      vertex 1.65 2.85788 -1.89948
      vertex 5 2.05736 -2.7
      vertex 2.11218 2.05736 -2.7
    endloop
  endfacet
  facet normal 3.18547e-17 0.707107 -0.707107
    outer loop
      vertex 1.65 2.85788 -1.89948
      vertex 5 5 0.24264
      vertex 5 2.05736 -2.7
    endloop
  endfacet
  facet normal -0.866025 0.500001 0
    outer loop
      vertex 2.11218 -2.05736 -2.7
      vertex 3.3 0 -0.00999928
      vertex 3.3 0 -2.7
    endloop
  endfacet
  facet normal 0 0 -1
    outer loop
      vertex 2.11218 -2.05736 -2.7
      vertex 3.3 0 -2.7
      vertex 5 -2.05736 -2.7
    endloop
  endfacet
  facet normal -0.866025 -0.500001 0
    outer loop
      vertex 2.11218 2.05736 -2.7
      vertex 3.3 0 -2.7
      vertex 3.3 0 -0.00999928
    endloop
  endfacet
  facet normal 0 0 -1
    outer loop
      vertex 2.11218 2.05736 -2.7
      vertex 5 2.05736 -2.7
      vertex 3.3 0 -2.7
    endloop
  endfacet
  facet normal 0 0 -1
    outer loop
      vertex 3.3 0 -2.7
      vertex 5 2.05736 -2.7
      vertex 5 -2.05736 -2.7
    endloop
  endfacet
  facet normal 1 0 0
    outer loop
      vertex 5 -2.5 1.3
      vertex 5 -2.05736 -2.7
      vertex 5 2.05736 -2.7
    endloop
  endfacet
  facet normal 1 0 0
    outer loop
      vertex 5 -2.5 1.3
      vertex 5 2.05736 -2.7
      vertex 5 2.5 1.3
    endloop
  endfacet
  facet normal 1 0 0
    outer loop
      vertex 5 -2.5 1.3
      vertex 5 2.5 1.3
      vertex 5 2.5 3
    endloop
  endfacet
  facet normal 1 0 0
    outer loop
      vertex 5 -2.5 1.3
      vertex 5 2.5 3
      vertex 5 -2.5 3
    endloop
  endfacet
  facet normal 1 0 0
    outer loop
      vertex 5 -5 0.24264
      vertex 5 -2.05736 -2.7
      vertex 5 -2.5 1.3
    endloop
  endfacet
  facet normal 1 0 0
    outer loop
      vertex 5 -5 0.24264
      vertex 5 -2.5 1.3
      vertex 5 -5 1.3
    endloop
  endfacet
  facet normal 1 0 0
    outer loop
      vertex 5 2.05736 -2.7
      vertex 5 5 0.24264
      vertex 5 2.5 1.3
    endloop
  endfacet
  facet normal 1 0 0
    outer loop
      vertex 5 2.5 1.3
      vertex 5 5 0.24264
      vertex 5 5 1.3
    endloop
  endfacet
endsolid OpenSCAD_Model
