solid OpenSCAD_Model
  facet normal 0 1 0
    outer loop
      vertex -0.16985875 -1.616098 -0.01
      vertex -0.16985875 -1.616098 3
      vertex 0.16985875 -1.616098 -0.01
    endloop
  endfacet
  facet normal 0 1 0
    outer loop
      vertex -0.16985875 -1.616098 3
      vertex 0.16985875 -1.616098 3
      vertex 0.16985875 -1.616098 -0.01
    endloop
  endfacet
  facet normal 0 0 1
    outer loop
      vertex -0.16985875 -1.616098 3
      vertex 2.5 -2.5 3
      vertex 0.16985875 -1.616098 3
    endloop
  endfacet
  facet normal 0 -1 0
    outer loop
      vertex -0.16985875 1.616098 -0.01
      vertex 0.16985875 1.616098 -0.01
      vertex 0.16985875 1.616098 3
    endloop
  endfacet
  facet normal 0 -1 0
    outer loop
      vertex -0.16985875 1.616098 -0.01
      vertex 0.16985875 1.616098 3
      vertex -0.16985875 1.616098 3
    endloop
  endfacet
  facet normal 0 0 -1
    outer loop
      vertex -0.16985875 1.616098 -0.01
      vertex 1.65 2.857884 -0.01
      vertex 0.16985875 1.616098 -0.01
    endloop
  endfacet
  facet normal 0.20791176 0.97814757 0
    outer loop
      vertex -0.5021526 -1.5454668 -0.01
      vertex -0.5021526 -1.5454668 3
      vertex -0.16985875 -1.616098 -0.01
    endloop
  endfacet
  facet normal 0.20791176 0.97814757 0
    outer loop
      vertex -0.5021526 -1.5454668 3
      vertex -0.16985875 -1.616098 3
      vertex -0.16985875 -1.616098 -0.01
    endloop
  endfacet
  facet normal 0 0 1
    outer loop
      vertex -0.5021526 -1.5454668 3
      vertex 2.5 -2.5 3
      vertex -0.16985875 -1.616098 3
    endloop
  endfacet
  facet normal 0.20791176 -0.97814757 0
    outer loop
      vertex -0.5021526 1.5454668 -0.01
      vertex -0.16985875 1.616098 -0.01
      vertex -0.16985875 1.616098 3
    endloop
  endfacet
  facet normal 0.20791176 -0.97814757 0
    outer loop
      vertex -0.5021526 1.5454668 -0.01
      vertex -0.16985875 1.616098 3
      vertex -0.5021526 1.5454668 3
    endloop
  endfacet
  facet normal 0.40673646 0.91354555 0
    outer loop
      vertex -0.8125 -1.4072913 -0.01
      vertex -0.8125 -1.4072913 3
      vertex -0.5021526 -1.5454668 -0.01
    endloop
  endfacet
  facet normal 0.40673646 0.91354555 0
    outer loop
      vertex -0.8125 -1.4072913 3
      vertex -0.5021526 -1.5454668 3
      vertex -0.5021526 -1.5454668 -0.01
    endloop
  endfacet
  facet normal 0.40673646 -0.91354555 0
    outer loop
      vertex -0.8125 1.4072913 -0.01
      vertex -0.5021526 1.5454668 -0.01
      vertex -0.5021526 1.5454668 3
    endloop
  endfacet
  facet normal 0.40673646 -0.91354555 0
    outer loop
      vertex -0.8125 1.4072913 -0.01
      vertex -0.5021526 1.5454668 3
      vertex -0.8125 1.4072913 3
    endloop
  endfacet
  facet normal 0.5877852 0.80901706 0
    outer loop
      vertex -1.0873373 -1.2076104 -0.01
      vertex -1.0873373 -1.2076104 3
      vertex -0.8125 -1.4072913 -0.01
    endloop
  endfacet
  facet normal 0.5877852 0.80901706 0
    outer loop
      vertex -1.0873373 -1.2076104 3
      vertex -0.8125 -1.4072913 3
      vertex -0.8125 -1.4072913 -0.01
    endloop
  endfacet
  facet normal 0.5877852 -0.80901706 0
    outer loop
      vertex -1.0873373 1.2076104 -0.01
      vertex -0.8125 1.4072913 -0.01
      vertex -0.8125 1.4072913 3
    endloop
  endfacet
  facet normal 0.5877852 -0.80901706 0
    outer loop
      vertex -1.0873373 1.2076104 -0.01
      vertex -0.8125 1.4072913 3
      vertex -1.0873373 1.2076104 3
    endloop
  endfacet
  facet normal 0.743145 0.66913044 0
    outer loop
      vertex -1.3146526 -0.955151 -0.01
      vertex -1.3146526 -0.955151 3
      vertex -1.0873373 -1.2076104 -0.01
    endloop
  endfacet
  facet normal 0.743145 0.66913044 0
    outer loop
      vertex -1.3146526 -0.955151 3
      vertex -1.0873373 -1.2076104 3
      vertex -1.0873373 -1.2076104 -0.01
    endloop
  endfacet
  facet normal 0.743145 -0.66913044 0
    outer loop
      vertex -1.3146526 0.955151 -0.01
      vertex -1.0873373 1.2076104 -0.01
      vertex -1.0873373 1.2076104 3
    endloop
  endfacet
  facet normal 0.743145 -0.66913044 0
    outer loop
      vertex -1.3146526 0.955151 -0.01
      vertex -1.0873373 1.2076104 3
      vertex -1.3146526 0.955151 3
    endloop
  endfacet
  facet normal 0.8660253 0.5000001 0
    outer loop
      vertex -1.4845114 -0.660947 -0.01
      vertex -1.4845114 -0.660947 3
      vertex -1.3146526 -0.955151 -0.01
    endloop
  endfacet
  facet normal 0.8660253 0.5000001 0
    outer loop
      vertex -1.4845114 -0.660947 3
      vertex -1.3146526 -0.955151 3
      vertex -1.3146526 -0.955151 -0.01
    endloop
  endfacet
  facet normal 0.8660253 -0.5000001 0
    outer loop
      vertex -1.4845114 0.660947 -0.01
      vertex -1.3146526 0.955151 -0.01
      vertex -1.3146526 0.955151 3
    endloop
  endfacet
  facet normal 0.8660253 -0.5000001 0
    outer loop
      vertex -1.4845114 0.660947 -0.01
      vertex -1.3146526 0.955151 3
      vertex -1.4845114 0.660947 3
    endloop
  endfacet
  facet normal 0.95105654 0.3090169 0
    outer loop
      vertex -1.5894898 -0.3378565 -0.01
      vertex -1.5894898 -0.3378565 3
      vertex -1.4845114 -0.660947 -0.01
    endloop
  endfacet
  facet normal 0.95105654 0.3090169 0
    outer loop
      vertex -1.5894898 -0.3378565 3
      vertex -1.4845114 -0.660947 3
      vertex -1.4845114 -0.660947 -0.01
    endloop
  endfacet
  facet normal 0.95105654 -0.3090169 0
    outer loop
      vertex -1.5894898 0.3378565 -0.01
      vertex -1.4845114 0.660947 -0.01
      vertex -1.4845114 0.660947 3
    endloop
  endfacet
  facet normal 0.95105654 -0.3090169 0
    outer loop
      vertex -1.5894898 0.3378565 -0.01
      vertex -1.4845114 0.660947 3
      vertex -1.5894898 0.3378565 3
    endloop
  endfacet
  facet normal 0.99452186 -0.10452856 0
    outer loop
      vertex -1.625 0 -0.01
      vertex -1.5894898 0.3378565 -0.01
      vertex -1.5894898 0.3378565 3
    endloop
  endfacet
  facet normal 0.99452186 -0.10452856 0
    outer loop
      vertex -1.625 0 -0.01
      vertex -1.5894898 0.3378565 3
      vertex -1.625 0 3
    endloop
  endfacet
  facet normal 0.99452186 0.10452856 0
    outer loop
      vertex -1.625 0 -0.01
      vertex -1.625 0 3
      vertex -1.5894898 -0.3378565 -0.01
    endloop
  endfacet
  facet normal 0.99452186 0.10452856 0
    outer loop
      vertex -1.625 0 3
      vertex -1.5894898 -0.3378565 3
      vertex -1.5894898 -0.3378565 -0.01
    endloop
  endfacet
  facet normal 0 0 -1
    outer loop
      vertex -1.65 -2.857884 -0.01
      vertex -0.16985875 -1.616098 -0.01
      vertex 0.16985875 -1.616098 -0.01
    endloop
  endfacet
  facet normal 0 0 -1
    outer loop
      vertex -1.65 -2.857884 -0.01
      vertex -0.5021526 -1.5454668 -0.01
      vertex -0.16985875 -1.616098 -0.01
    endloop
  endfacet
  facet normal 0 0 -1
    outer loop
      vertex -1.65 -2.857884 -0.01
      vertex -0.8125 -1.4072913 -0.01
      vertex -0.5021526 -1.5454668 -0.01
    endloop
  endfacet
  facet normal 0 0 -1
    outer loop
      vertex -1.65 -2.857884 -0.01
      vertex -1.0873373 -1.2076104 -0.01
      vertex -0.8125 -1.4072913 -0.01
    endloop
  endfacet
  facet normal 0 0 -1
    outer loop
      vertex -1.65 -2.857884 -0.01
      vertex -1.3146526 -0.955151 -0.01
      vertex -1.0873373 -1.2076104 -0.01
    endloop
  endfacet
  facet normal 0 0 -1
    outer loop
      vertex -1.65 -2.857884 -0.01
      vertex -1.4845114 -0.660947 -0.01
      vertex -1.3146526 -0.955151 -0.01
    endloop
  endfacet
  facet normal 0 0 -1
    outer loop
      vertex -1.65 -2.857884 -0.01
      vertex -1.5894898 -0.3378565 -0.01
      vertex -1.4845114 -0.660947 -0.01
    endloop
  endfacet
  facet normal 0 0 -1
    outer loop
      vertex -1.65 -2.857884 -0.01
      vertex -1.625 0 -0.01
      vertex -1.5894898 -0.3378565 -0.01
    endloop
  endfacet
  facet normal 0 0 -1
    outer loop
      vertex -1.65 -2.857884 -0.01
      vertex -1.65 2.857884 -0.01
      vertex -1.625 0 -0.01
    endloop
  endfacet
  facet normal 0 0 -1
    outer loop
      vertex -1.65 -2.857884 -0.01
      vertex 0.16985875 -1.616098 -0.01
      vertex 1.65 -2.857884 -0.01
    endloop
  endfacet
  facet normal 0 1 0
    outer loop
      vertex -1.65 -2.857884 -0.01
      vertex 1.65 -2.857884 -0.01
      vertex 1.65 -2.857884 -1.8994753
    endloop
  endfacet
  facet normal 0 1 0
    outer loop
      vertex -1.65 -2.857884 -1.8994753
      vertex -1.65 -2.857884 -0.01
      vertex 1.65 -2.857884 -1.8994753
    endloop
  endfacet
  facet normal 0 -0.70710677 -0.70710677
    outer loop
      vertex -1.65 -2.857884 -1.8994753
      vertex 1.65 -2.857884 -1.8994753
      vertex 5 -5 0.24264067
    endloop
  endfacet
  facet normal 0 0 -1
    outer loop
      vertex -1.65 2.857884 -0.01
      vertex -0.16985875 1.616098 -0.01
      vertex -0.5021526 1.5454668 -0.01
    endloop
  endfacet
  facet normal 0 0 -1
    outer loop
      vertex -1.65 2.857884 -0.01
      vertex -0.5021526 1.5454668 -0.01
      vertex -0.8125 1.4072913 -0.01
    endloop
  endfacet
  facet normal 0 0 -1
    outer loop
      vertex -1.65 2.857884 -0.01
      vertex -0.8125 1.4072913 -0.01
      vertex -1.0873373 1.2076104 -0.01
    endloop
  endfacet
  facet normal 0 0 -1
    outer loop
      vertex -1.65 2.857884 -0.01
      vertex -1.0873373 1.2076104 -0.01
      vertex -1.3146526 0.955151 -0.01
    endloop
  endfacet
  facet normal 0 0 -1
    outer loop
      vertex -1.65 2.857884 -0.01
      vertex -1.3146526 0.955151 -0.01
      vertex -1.4845114 0.660947 -0.01
    endloop
  endfacet
  facet normal 0 0 -1
    outer loop
      vertex -1.65 2.857884 -0.01
      vertex -1.4845114 0.660947 -0.01
      vertex -1.5894898 0.3378565 -0.01
    endloop
  endfacet
  facet normal 0 0 -1
    outer loop
      vertex -1.65 2.857884 -0.01
      vertex -1.5894898 0.3378565 -0.01
      vertex -1.625 0 -0.01
    endloop
  endfacet
  facet normal 0 0 -1
    outer loop
      vertex -1.65 2.857884 -0.01
      vertex 1.65 2.857884 -0.01
      vertex -0.16985875 1.616098 -0.01
    endloop
  endfacet
  facet normal 0 -1 0
    outer loop
      vertex -1.65 2.857884 -1.8994753
      vertex 1.65 2.857884 -0.01
      vertex -1.65 2.857884 -0.01
    endloop
  endfacet
  facet normal 0 -1 0
    outer loop
      vertex -1.65 2.857884 -1.8994753
      vertex 1.65 2.857884 -1.8994753
      vertex 1.65 2.857884 -0.01
    endloop
  endfacet
  facet normal 0.86602545 -0.49999997 0
    outer loop
      vertex -2.112183 2.0573592 -2.7
      vertex -1.65 2.857884 -1.8994753
      vertex -1.65 2.857884 -0.01
    endloop
  endfacet
  facet normal 0 0 1
    outer loop
      vertex -2.3833334 2.5 3
      vertex -0.16985875 1.616098 3
      vertex 0.16985875 1.616098 3
    endloop
  endfacet
  facet normal 0 0 1
    outer loop
      vertex -2.3833334 2.5 3
      vertex -0.5021526 1.5454668 3
      vertex -0.16985875 1.616098 3
    endloop
  endfacet
  facet normal 0 0 1
    outer loop
      vertex -2.3833334 2.5 3
      vertex -0.8125 1.4072913 3
      vertex -0.5021526 1.5454668 3
    endloop
  endfacet
  facet normal 0 0 1
    outer loop
      vertex -2.3833334 2.5 3
      vertex -1.0873373 1.2076104 3
      vertex -0.8125 1.4072913 3
    endloop
  endfacet
  facet normal 0 0 1
    outer loop
      vertex -2.3833334 2.5 3
      vertex 0.16985875 1.616098 3
      vertex 0.5021526 1.5454668 3
    endloop
  endfacet
  facet normal 0 0 1
    outer loop
      vertex -2.3833334 2.5 3
      vertex 0.5021526 1.5454668 3
      vertex 5 2.5 3
    endloop
  endfacet
  facet normal 0 1 0
    outer loop
      vertex -2.3833334 2.5 3
      vertex 5 2.5 3
      vertex 5 2.5 1.3
    endloop
  endfacet
  facet normal 0.8660254 0.49999997 0
    outer loop
      vertex -3.3 0 -0.01
      vertex -1.65 -2.857884 -0.01
      vertex -1.65 -2.857884 -1.8994753
    endloop
  endfacet
  facet normal 0 0 -1
    outer loop
      vertex -3.3 0 -0.01
      vertex -1.65 2.857884 -0.01
      vertex -1.65 -2.857884 -0.01
    endloop
  endfacet
  facet normal 0.8660254 0.5 2.6136565e-8
    outer loop
      vertex -3.3 0 -2.7
      vertex -1.65 -2.857884 -1.8994753
      vertex -2.112183 -2.0573592 -2.7
    endloop
  endfacet
  facet normal 0.8660254 -0.49999997 0
    outer loop
      vertex -3.3 0 -2.7
      vertex -1.65 2.857884 -0.01
      vertex -3.3 0 -0.01
    endloop
  endfacet
  facet normal 0.8660254 -0.5 7.778055e-9
    outer loop
      vertex -3.3 0 -2.7
      vertex -2.112183 2.0573592 -2.7
      vertex -1.65 2.857884 -0.01
    endloop
  endfacet
  facet normal 0.8660254 0.49999997 0
    outer loop
      vertex -3.3 0 -2.7
      vertex -3.3 0 -0.01
      vertex -1.65 -2.857884 -1.8994753
    endloop
  endfacet
  facet normal 0 0 -1
    outer loop
      vertex -5 -2.0573592 -2.7
      vertex -3.3 0 -2.7
      vertex -2.112183 -2.0573592 -2.7
    endloop
  endfacet
  facet normal 0 0 -1
    outer loop
      vertex -5 -2.0573592 -2.7
      vertex -5 2.0573592 -2.7
      vertex -3.3 0 -2.7
    endloop
  endfacet
  facet normal -1 0 0
    outer loop
      vertex -5 -2.0573592 -2.7
      vertex -5 2.5 1.3
      vertex -5 2.0573592 -2.7
    endloop
  endfacet
  facet normal -1 0 0
    outer loop
      vertex -5 -2.5 1.3
      vertex -5 -2.5 3
      vertex -5 2.5 1.3
    endloop
  endfacet
  facet normal 0 -1 0
    outer loop
      vertex -5 -2.5 1.3
      vertex 2.5 -2.5 3
      vertex -5 -2.5 3
    endloop
  endfacet
  facet normal 0 -1 0
    outer loop
      vertex -5 -2.5 1.3
      vertex 5 -2.5 1.3
      vertex 2.5 -2.5 3
    endloop
  endfacet
  facet normal 0 0 1
    outer loop
      vertex -5 -2.5 3
      vertex -0.5021526 -1.5454668 3
      vertex -0.8125 -1.4072913 3
    endloop
  endfacet
  facet normal 0 0 1
    outer loop
      vertex -5 -2.5 3
      vertex -0.8125 -1.4072913 3
      vertex -1.0873373 -1.2076104 3
    endloop
  endfacet
  facet normal 0 0 1
    outer loop
      vertex -5 -2.5 3
      vertex -1.0873373 -1.2076104 3
      vertex -1.3146526 -0.955151 3
    endloop
  endfacet
  facet normal 0 0 1
    outer loop
      vertex -5 -2.5 3
      vertex -1.3146526 -0.955151 3
      vertex -1.4845114 -0.660947 3
    endloop
  endfacet
  facet normal 0 0 1
    outer loop
      vertex -5 -2.5 3
      vertex -1.4845114 -0.660947 3
      vertex -1.5894898 -0.3378565 3
    endloop
  endfacet
  facet normal 0 0 1
    outer loop
      vertex -5 -2.5 3
      vertex -1.4845114 0.660947 3
      vertex -5 2.5 3
    endloop
  endfacet
  facet normal 0 0 1
    outer loop
      vertex -5 -2.5 3
      vertex -1.5894898 -0.3378565 3
      vertex -1.625 0 3
    endloop
  endfacet
  facet normal 0 0 1
    outer loop
      vertex -5 -2.5 3
      vertex -1.5894898 0.3378565 3
      vertex -1.4845114 0.660947 3
    endloop
  endfacet
  facet normal 0 0 1
    outer loop
      vertex -5 -2.5 3
      vertex -1.625 0 3
      vertex -1.5894898 0.3378565 3
    endloop
  endfacet
  facet normal -1 0 0
    outer loop
      vertex -5 -2.5 3
      vertex -5 2.5 3
      vertex -5 2.5 1.3
    endloop
  endfacet
  facet normal 0 0 1
    outer loop
      vertex -5 -2.5 3
      vertex 2.5 -2.5 3
      vertex -0.5021526 -1.5454668 3
    endloop
  endfacet
  facet normal -4.214685e-9 -0.70710677 -0.70710677
    outer loop
      vertex -5 -5 0.24264073
      vertex -1.65 -2.857884 -1.8994753
      vertex 5 -5 0.24264067
    endloop
  endfacet
  facet normal 0 -0.70710677 -0.70710677
    outer loop
      vertex -5 -5 0.24264073
      vertex -2.112183 -2.0573592 -2.7
      vertex -1.65 -2.857884 -1.8994753
    endloop
  endfacet
  facet normal 0 -0.70710677 -0.70710677
    outer loop
      vertex -5 -5 0.24264073
      vertex -5 -2.0573592 -2.7
      vertex -2.112183 -2.0573592 -2.7
    endloop
  endfacet
  facet normal -1 0 0
    outer loop
      vertex -5 -5 0.24264073
      vertex -5 -2.5 1.3
      vertex -5 2.5 1.3
    endloop
  endfacet
  facet normal -1 0 0
    outer loop
      vertex -5 -5 0.24264073
      vertex -5 -5 1.3
      vertex -5 -2.5 1.3
    endloop
  endfacet
  facet normal -1 0 0
    outer loop
      vertex -5 -5 0.24264073
      vertex -5 2.5 1.3
      vertex -5 -2.0573592 -2.7
    endloop
  endfacet
  facet normal 0 -1 0
    outer loop
      vertex -5 -5 0.24264073
      vertex 5 -5 0.24264067
      vertex -5 -5 1.3
    endloop
  endfacet
  facet normal 0 0 1
    outer loop
      vertex -5 -5 1.3
      vertex 5 -2.5 1.3
      vertex -5 -2.5 1.3
    endloop
  endfacet
  facet normal 0 -1 0
    outer loop
      vertex -5 -5 1.3
      vertex 5 -5 0.24264067
      vertex 5 -5 1.3
    endloop
  endfacet
  facet normal 0 0 1
    outer loop
      vertex -5 -5 1.3
      vertex 5 -5 1.3
      vertex 5 -2.5 1.3
    endloop
  endfacet
  facet normal 0 0.70710677 -0.70710677
    outer loop
      vertex -5 2.0573592 -2.7
      vertex -1.65 2.857884 -1.8994753
      vertex -2.112183 2.0573592 -2.7
    endloop
  endfacet
  facet normal 0 0 -1
    outer loop
      vertex -5 2.0573592 -2.7
      vertex -2.112183 2.0573592 -2.7
      vertex -3.3 0 -2.7
    endloop
  endfacet
  facet normal -1 0 0
    outer loop
      vertex -5 2.0573592 -2.7
      vertex -5 2.5 1.3
      vertex -5 5 1.3
    endloop
  endfacet
  facet normal 0 0.70710677 -0.70710677
    outer loop
      vertex -5 2.0573592 -2.7
      vertex -5 5 0.24264073
      vertex -1.65 2.857884 -1.8994753
    endloop
  endfacet
  facet normal -1 0 0
    outer loop
      vertex -5 2.0573592 -2.7
      vertex -5 5 1.3
      vertex -5 5 0.24264073
    endloop
  endfacet
  facet normal 0 1 0
    outer loop
      vertex -5 2.5 1.3
      vertex -2.3833334 2.5 3
      vertex 5 2.5 1.3
    endloop
  endfacet
  facet normal 0 1 0
    outer loop
      vertex -5 2.5 1.3
      vertex -5 2.5 3
      vertex -2.3833334 2.5 3
    endloop
  endfacet
  facet normal 0 0 1
    outer loop
      vertex -5 2.5 1.3
      vertex 5 2.5 1.3
      vertex 5 5 1.3
    endloop
  endfacet
  facet normal 0 0 1
    outer loop
      vertex -5 2.5 1.3
      vertex 5 5 1.3
      vertex -5 5 1.3
    endloop
  endfacet
  facet normal 0 0 1
    outer loop
      vertex -5 2.5 3
      vertex -1.0873373 1.2076104 3
      vertex -2.3833334 2.5 3
    endloop
  endfacet
  facet normal 0 0 1
    outer loop
      vertex -5 2.5 3
      vertex -1.3146526 0.955151 3
      vertex -1.0873373 1.2076104 3
    endloop
  endfacet
  facet normal 0 0 1
    outer loop
      vertex -5 2.5 3
      vertex -1.4845114 0.660947 3
      vertex -1.3146526 0.955151 3
    endloop
  endfacet
  facet normal 0 1 0
    outer loop
      vertex -5 5 0.24264073
      vertex -5 5 1.3
      vertex 5 5 1.3
    endloop
  endfacet
  facet normal 0 0.70710677 -0.70710677
    outer loop
      vertex -5 5 0.24264073
      vertex 1.65 2.857884 -1.8994753
      vertex -1.65 2.857884 -1.8994753
    endloop
  endfacet
  facet normal 9.134897e-9 0.70710677 -0.70710677
    outer loop
      vertex -5 5 0.24264073
      vertex 4.2276564 5 0.24264085
      vertex 1.65 2.857884 -1.8994753
    endloop
  endfacet
  facet normal 0 1 0
    outer loop
      vertex -5 5 0.24264073
      vertex 5 5 1.3
      vertex 4.2276564 5 0.24264085
    endloop
  endfacet
  facet normal -0.20791176 0.97814757 0
    outer loop
      vertex 0.16985875 -1.616098 -0.01
      vertex 0.16985875 -1.616098 3
      vertex 0.5021526 -1.5454668 -0.01
    endloop
  endfacet
  facet normal 0 0 -1
    outer loop
      vertex 0.16985875 -1.616098 -0.01
      vertex 0.5021526 -1.5454668 -0.01
      vertex 1.65 -2.857884 -0.01
    endloop
  endfacet
  facet normal -0.20791176 0.97814757 0
    outer loop
      vertex 0.16985875 -1.616098 3
      vertex 0.5021526 -1.5454668 3
      vertex 0.5021526 -1.5454668 -0.01
    endloop
  endfacet
  facet normal 0 0 1
    outer loop
      vertex 0.16985875 -1.616098 3
      vertex 2.5 -2.5 3
      vertex 0.5021526 -1.5454668 3
    endloop
  endfacet
  facet normal -0.20791176 -0.97814757 0
    outer loop
      vertex 0.16985875 1.616098 -0.01
      vertex 0.5021526 1.5454668 -0.01
      vertex 0.5021526 1.5454668 3
    endloop
  endfacet
  facet normal -0.20791176 -0.97814757 0
    outer loop
      vertex 0.16985875 1.616098 -0.01
      vertex 0.5021526 1.5454668 3
      vertex 0.16985875 1.616098 3
    endloop
  endfacet
  facet normal 0 0 -1
    outer loop
      vertex 0.16985875 1.616098 -0.01
      vertex 1.65 2.857884 -0.01
      vertex 0.5021526 1.5454668 -0.01
    endloop
  endfacet
  facet normal -0.40673646 0.91354555 0
    outer loop
      vertex 0.5021526 -1.5454668 -0.01
      vertex 0.5021526 -1.5454668 3
      vertex 0.8125 -1.4072913 -0.01
    endloop
  endfacet
  facet normal 0 0 -1
    outer loop
      vertex 0.5021526 -1.5454668 -0.01
      vertex 0.8125 -1.4072913 -0.01
      vertex 1.65 -2.857884 -0.01
    endloop
  endfacet
  facet normal -0.40673646 0.91354555 0
    outer loop
      vertex 0.5021526 -1.5454668 3
      vertex 0.8125 -1.4072913 3
      vertex 0.8125 -1.4072913 -0.01
    endloop
  endfacet
  facet normal 0 0 1
    outer loop
      vertex 0.5021526 -1.5454668 3
      vertex 2.5 -2.5 3
      vertex 0.8125 -1.4072913 3
    endloop
  endfacet
  facet normal -0.40673646 -0.91354555 0
    outer loop
      vertex 0.5021526 1.5454668 -0.01
      vertex 0.8125 1.4072913 -0.01
      vertex 0.8125 1.4072913 3
    endloop
  endfacet
  facet normal -0.40673646 -0.91354555 0
    outer loop
      vertex 0.5021526 1.5454668 -0.01
      vertex 0.8125 1.4072913 3
      vertex 0.5021526 1.5454668 3
    endloop
  endfacet
  facet normal 0 0 -1
    outer loop
      vertex 0.5021526 1.5454668 -0.01
      vertex 1.65 2.857884 -0.01
      vertex 0.8125 1.4072913 -0.01
    endloop
  endfacet
  facet normal 0 0 1
    outer loop
      vertex 0.5021526 1.5454668 3
      vertex 0.8125 1.4072913 3
      vertex 5 2.5 3
    endloop
  endfacet
  facet normal -0.5877852 0.80901706 0
    outer loop
      vertex 0.8125 -1.4072913 -0.01
      vertex 0.8125 -1.4072913 3
      vertex 1.0873373 -1.2076104 -0.01
    endloop
  endfacet
  facet normal 0 0 -1
    outer loop
      vertex 0.8125 -1.4072913 -0.01
      vertex 1.0873373 -1.2076104 -0.01
      vertex 1.65 -2.857884 -0.01
    endloop
  endfacet
  facet normal -0.5877852 0.80901706 0
    outer loop
      vertex 0.8125 -1.4072913 3
      vertex 1.0873373 -1.2076104 3
      vertex 1.0873373 -1.2076104 -0.01
    endloop
  endfacet
  facet normal 0 0 1
    outer loop
      vertex 0.8125 -1.4072913 3
      vertex 2.5 -2.5 3
      vertex 1.0873373 -1.2076104 3
    endloop
  endfacet
  facet normal -0.5877852 -0.80901706 0
    outer loop
      vertex 0.8125 1.4072913 -0.01
      vertex 1.0873373 1.2076104 -0.01
      vertex 1.0873373 1.2076104 3
    endloop
  endfacet
  facet normal -0.5877852 -0.80901706 0
    outer loop
      vertex 0.8125 1.4072913 -0.01
      vertex 1.0873373 1.2076104 3
      vertex 0.8125 1.4072913 3
    endloop
  endfacet
  facet normal 0 0 -1
    outer loop
      vertex 0.8125 1.4072913 -0.01
      vertex 1.65 2.857884 -0.01
      vertex 1.0873373 1.2076104 -0.01
    endloop
  endfacet
  facet normal 0 0 1
    outer loop
      vertex 0.8125 1.4072913 3
      vertex 1.0873373 1.2076104 3
      vertex 5 2.5 3
    endloop
  endfacet
  facet normal -0.743145 0.66913044 0
    outer loop
      vertex 1.0873373 -1.2076104 -0.01
      vertex 1.0873373 -1.2076104 3
      vertex 1.3146526 -0.955151 -0.01
    endloop
  endfacet
  facet normal 0 0 -1
    outer loop
      vertex 1.0873373 -1.2076104 -0.01
      vertex 1.3146526 -0.955151 -0.01
      vertex 1.65 -2.857884 -0.01
    endloop
  endfacet
  facet normal -0.743145 0.66913044 0
    outer loop
      vertex 1.0873373 -1.2076104 3
      vertex 1.3146526 -0.955151 3
      vertex 1.3146526 -0.955151 -0.01
    endloop
  endfacet
  facet normal 0 0 1
    outer loop
      vertex 1.0873373 -1.2076104 3
      vertex 2.5 -2.5 3
      vertex 1.3146526 -0.955151 3
    endloop
  endfacet
  facet normal -0.743145 -0.66913044 0
    outer loop
      vertex 1.0873373 1.2076104 -0.01
      vertex 1.3146526 0.955151 -0.01
      vertex 1.3146526 0.955151 3
    endloop
  endfacet
  facet normal -0.743145 -0.66913044 0
    outer loop
      vertex 1.0873373 1.2076104 -0.01
      vertex 1.3146526 0.955151 3
      vertex 1.0873373 1.2076104 3
    endloop
  endfacet
  facet normal 0 0 -1
    outer loop
      vertex 1.0873373 1.2076104 -0.01
      vertex 1.65 2.857884 -0.01
      vertex 1.3146526 0.955151 -0.01
    endloop
  endfacet
  facet normal 0 0 1
    outer loop
      vertex 1.0873373 1.2076104 3
      vertex 1.3146526 0.955151 3
      vertex 5 2.5 3
    endloop
  endfacet
  facet normal -0.8660253 0.5000001 0
    outer loop
      vertex 1.3146526 -0.955151 -0.01
      vertex 1.3146526 -0.955151 3
      vertex 1.4845114 -0.660947 -0.01
    endloop
  endfacet
  facet normal 0 0 -1
    outer loop
      vertex 1.3146526 -0.955151 -0.01
      vertex 1.4845114 -0.660947 -0.01
      vertex 1.65 -2.857884 -0.01
    endloop
  endfacet
  facet normal -0.8660253 0.5000001 0
    outer loop
      vertex 1.3146526 -0.955151 3
      vertex 1.4845114 -0.660947 3
      vertex 1.4845114 -0.660947 -0.01
    endloop
  endfacet
  facet normal 0 0 1
    outer loop
      vertex 1.3146526 -0.955151 3
      vertex 2.5 -2.5 3
      vertex 1.4845114 -0.660947 3
    endloop
  endfacet
  facet normal -0.8660253 -0.5000001 0
    outer loop
      vertex 1.3146526 0.955151 -0.01
      vertex 1.4845114 0.660947 -0.01
      vertex 1.4845114 0.660947 3
    endloop
  endfacet
  facet normal -0.8660253 -0.5000001 0
    outer loop
      vertex 1.3146526 0.955151 -0.01
      vertex 1.4845114 0.660947 3
      vertex 1.3146526 0.955151 3
    endloop
  endfacet
  facet normal 0 0 -1
    outer loop
      vertex 1.3146526 0.955151 -0.01
      vertex 1.65 2.857884 -0.01
      vertex 1.4845114 0.660947 -0.01
    endloop
  endfacet
  facet normal 0 0 1
    outer loop
      vertex 1.3146526 0.955151 3
      vertex 1.4845114 0.660947 3
      vertex 5 2.5 3
    endloop
  endfacet
  facet normal -0.95105654 0.3090169 0
    outer loop
      vertex 1.4845114 -0.660947 -0.01
      vertex 1.4845114 -0.660947 3
      vertex 1.5894898 -0.3378565 -0.01
    endloop
  endfacet
  facet normal 0 0 -1
    outer loop
      vertex 1.4845114 -0.660947 -0.01
      vertex 1.5894898 -0.3378565 -0.01
      vertex 1.65 -2.857884 -0.01
    endloop
  endfacet
  facet normal -0.95105654 0.3090169 0
    outer loop
      vertex 1.4845114 -0.660947 3
      vertex 1.5894898 -0.3378565 3
      vertex 1.5894898 -0.3378565 -0.01
    endloop
  endfacet
  facet normal 0 0 1
    outer loop
      vertex 1.4845114 -0.660947 3
      vertex 2.5 -2.5 3
      vertex 5 2.5 3
    endloop
  endfacet
  facet normal 0 0 1
    outer loop
      vertex 1.4845114 -0.660947 3
      vertex 5 2.5 3
      vertex 1.5894898 -0.3378565 3
    endloop
  endfacet
  facet normal -0.95105654 -0.3090169 0
    outer loop
      vertex 1.4845114 0.660947 -0.01
      vertex 1.5894898 0.3378565 -0.01
      vertex 1.5894898 0.3378565 3
    endloop
  endfacet
  facet normal -0.95105654 -0.3090169 0
    outer loop
      vertex 1.4845114 0.660947 -0.01
      vertex 1.5894898 0.3378565 3
      vertex 1.4845114 0.660947 3
    endloop
  endfacet
  facet normal 0 0 -1
    outer loop
      vertex 1.4845114 0.660947 -0.01
      vertex 1.65 2.857884 -0.01
      vertex 1.5894898 0.3378565 -0.01
    endloop
  endfacet
  facet normal 0 0 1
    outer loop
      vertex 1.4845114 0.660947 3
      vertex 1.5894898 0.3378565 3
      vertex 5 2.5 3
    endloop
  endfacet
  facet normal -0.99452186 0.10452856 0
    outer loop
      vertex 1.5894898 -0.3378565 -0.01
      vertex 1.5894898 -0.3378565 3
      vertex 1.625 0 -0.01
    endloop
  endfacet
  facet normal 0 0 -1
    outer loop
      vertex 1.5894898 -0.3378565 -0.01
      vertex 1.625 0 -0.01
      vertex 1.65 -2.857884 -0.01
    endloop
  endfacet
  facet normal -0.99452186 0.10452856 0
    outer loop
      vertex 1.5894898 -0.3378565 3
      vertex 1.625 0 3
      vertex 1.625 0 -0.01
    endloop
  endfacet
  facet normal 0 0 1
    outer loop
      vertex 1.5894898 -0.3378565 3
      vertex 5 2.5 3
      vertex 1.625 0 3
    endloop
  endfacet
  facet normal -0.99452186 -0.10452856 0
    outer loop
      vertex 1.5894898 0.3378565 -0.01
      vertex 1.625 0 -0.01
      vertex 1.625 0 3
    endloop
  endfacet
  facet normal -0.99452186 -0.10452856 0
    outer loop
      vertex 1.5894898 0.3378565 -0.01
      vertex 1.625 0 3
      vertex 1.5894898 0.3378565 3
    endloop
  endfacet
  facet normal 0 0 -1
    outer loop
      vertex 1.5894898 0.3378565 -0.01
      vertex 1.65 2.857884 -0.01
      vertex 1.625 0 -0.01
    endloop
  endfacet
  facet normal 0 0 1
    outer loop
      vertex 1.5894898 0.3378565 3
      vertex 1.625 0 3
      vertex 5 2.5 3
    endloop
  endfacet
  facet normal 0 0 -1
    outer loop
      vertex 1.625 0 -0.01
      vertex 1.65 2.857884 -0.01
      vertex 1.65 -2.857884 -0.01
    endloop
  endfacet
  facet normal 0 0 -1
    outer loop
      vertex 1.65 -2.857884 -0.01
      vertex 1.65 2.857884 -0.01
      vertex 3.3 0 -0.01
    endloop
  endfacet
  facet normal -0.8660254 0.49999997 0
    outer loop
      vertex 1.65 -2.857884 -0.01
      vertex 3.3 0 -0.01
      vertex 3.3 0 -2.7
    endloop
  endfacet
  facet normal -0.8660254 0.5 7.778055e-9
    outer loop
      vertex 1.65 -2.857884 -0.01
      vertex 3.3 0 -2.7
      vertex 2.112183 -2.0573592 -2.7
    endloop
  endfacet
  facet normal -0.86602545 0.49999997 0
    outer loop
      vertex 1.65 -2.857884 -1.8994753
      vertex 1.65 -2.857884 -0.01
      vertex 2.112183 -2.0573592 -2.7
    endloop
  endfacet
  facet normal -9.188824e-9 -0.70710677 -0.70710677
    outer loop
      vertex 1.65 -2.857884 -1.8994753
      vertex 2.112183 -2.0573592 -2.7
      vertex 5 -5 0.24264067
    endloop
  endfacet
  facet normal -0.8660254 -0.5 2.6136565e-8
    outer loop
      vertex 1.65 2.857884 -1.8994753
      vertex 2.112183 2.0573592 -2.7
      vertex 3.3 0 -2.7
    endloop
  endfacet
  facet normal -0.8660254 -0.49999997 0
    outer loop
      vertex 1.65 2.857884 -1.8994753
      vertex 3.3 0 -0.01
      vertex 1.65 2.857884 -0.01
    endloop
  endfacet
  facet normal -0.8660254 -0.49999997 0
    outer loop
      vertex 1.65 2.857884 -1.8994753
      vertex 3.3 0 -2.7
      vertex 3.3 0 -0.01
    endloop
  endfacet
  facet normal 2.2098765e-8 0.70710677 -0.70710677
    outer loop
      vertex 1.65 2.857884 -1.8994753
      vertex 4.2276564 5 0.24264085
      vertex 2.112183 2.0573592 -2.7
    endloop
  endfacet
  facet normal 0 0 -1
    outer loop
      vertex 2.112183 -2.0573592 -2.7
      vertex 3.3 0 -2.7
      vertex 5 -2.0573592 -2.7
    endloop
  endfacet
  facet normal 0 -0.70710677 -0.70710677
    outer loop
      vertex 2.112183 -2.0573592 -2.7
      vertex 5 -2.0573592 -2.7
      vertex 5 -5 0.24264067
    endloop
  endfacet
  facet normal -1.637102e-7 0.7071068 -0.7071067
    outer loop
      vertex 2.112183 2.0573592 -2.7
      vertex 4.2276564 5 0.24264085
      vertex 5 5 0.24264067
    endloop
  endfacet
  facet normal 0 0 -1
    outer loop
      vertex 2.112183 2.0573592 -2.7
      vertex 5 2.0573592 -2.7
      vertex 3.3 0 -2.7
    endloop
  endfacet
  facet normal 0 0.70710677 -0.70710677
    outer loop
      vertex 2.112183 2.0573592 -2.7
      vertex 5 5 0.24264067
      vertex 5 2.0573592 -2.7
    endloop
  endfacet
  facet normal 0 -1 0
    outer loop
      vertex 2.5 -2.5 3
      vertex 5 -2.5 1.3
      vertex 5 -2.5 3
    endloop
  endfacet
  facet normal 0 0 1
    outer loop
      vertex 2.5 -2.5 3
      vertex 5 -2.5 3
      vertex 5 2.5 3
    endloop
  endfacet
  facet normal 0 0 -1
    outer loop
      vertex 3.3 0 -2.7
      vertex 5 2.0573592 -2.7
      vertex 5 -2.0573592 -2.7
    endloop
  endfacet
  facet normal 0 1 0
    outer loop
      vertex 4.2276564 5 0.24264085
      vertex 5 5 1.3
      vertex 5 5 0.24264067
    endloop
  endfacet
  facet normal 1 0 0
    outer loop
      vertex 5 -2.5 1.3
      vertex 5 -2.0573592 -2.7
      vertex 5 2.0573592 -2.7
    endloop
  endfacet
  facet normal 1 0 0
    outer loop
      vertex 5 -2.5 1.3
      vertex 5 2.0573592 -2.7
      vertex 5 5 0.24264067
    endloop
  endfacet
  facet normal 1 0 0
    outer loop
      vertex 5 -2.5 1.3
      vertex 5 2.5 1.3
      vertex 5 2.5 3
    endloop
  endfacet
  facet normal 1 0 0
    outer loop
      vertex 5 -2.5 1.3
      vertex 5 2.5 3
      vertex 5 -2.5 3
    endloop
  endfacet
  facet normal 1 0 0
    outer loop
      vertex 5 -2.5 1.3
      vertex 5 5 0.24264067
      vertex 5 2.5 1.3
    endloop
  endfacet
  facet normal 1 0 0
    outer loop
      vertex 5 -5 0.24264067
      vertex 5 -2.0573592 -2.7
      vertex 5 -5 1.3
    endloop
  endfacet
  facet normal 1 0 0
    outer loop
      vertex 5 -5 1.3
      vertex 5 -2.0573592 -2.7
      vertex 5 -2.5 1.3
    endloop
  endfacet
  facet normal 1 0 0
    outer loop
      vertex 5 2.5 1.3
      vertex 5 5 0.24264067
      vertex 5 5 1.3
    endloop
  endfacet
endsolid OpenSCAD_Model
