solid OpenSCAD_Model
  facet normal 0 1 0
    outer loop
      vertex -1 -8.674999 4.3999996
      vertex -1 -8.674999 6.8499994
      vertex 1 -8.674999 4.3999996
    endloop
  endfacet
  facet normal 1 0 0
    outer loop
      vertex -1 -8.674999 4.3999996
      vertex -1 4.575 4.3999996
      vertex -1 -8.674999 6.8499994
    endloop
  endfacet
  facet normal 0 0 -1
    outer loop
      vertex -1 -8.674999 4.3999996
      vertex 1 -8.674999 4.3999996
      vertex 3.3999996 -10 4.3999996
    endloop
  endfacet
  facet normal 1 0 0
    outer loop
      vertex -1 -8.674999 6.8499994
      vertex -1 4.575 4.3999996
      vertex -1 4.575 6.8499994
    endloop
  endfacet
  facet normal 0 1 0
    outer loop
      vertex -1 -8.674999 6.8499994
      vertex 1 -8.674999 6.8499994
      vertex 1 -8.674999 4.3999996
    endloop
  endfacet
  facet normal 0 0 1
    outer loop
      vertex -1 -8.674999 6.8499994
      vertex 1.8999996 -9.625 6.8499994
      vertex 1 -8.674999 6.8499994
    endloop
  endfacet
  facet normal 0 -1 0
    outer loop
      vertex -1 4.575 4.3999996
      vertex 1 4.575 4.3999996
      vertex 1 4.575 6.8499994
    endloop
  endfacet
  facet normal 0 -1 0
    outer loop
      vertex -1 4.575 4.3999996
      vertex 1 4.575 6.8499994
      vertex -1 4.575 6.8499994
    endloop
  endfacet
  facet normal 0 0 -1
    outer loop
      vertex -1 4.575 4.3999996
      vertex 3.3999996 10 4.3999996
      vertex 1 4.575 4.3999996
    endloop
  endfacet
  facet normal 0 0 1
    outer loop
      vertex -1 4.575 6.8499994
      vertex 1 4.575 6.8499994
      vertex 1.8999996 8 6.8499994
    endloop
  endfacet
  facet normal -1 0 0
    outer loop
      vertex -1.8999996 -9.625 5.799999
      vertex -1.8999996 -9.625 6.8499994
      vertex -1.8999996 8 6.8499994
    endloop
  endfacet
  facet normal -1 0 0
    outer loop
      vertex -1.8999996 -9.625 5.799999
      vertex -1.8999996 8 6.8499994
      vertex -1.8999996 8 5.799999
    endloop
  endfacet
  facet normal 0 -1 0
    outer loop
      vertex -1.8999996 -9.625 5.799999
      vertex 1.8999996 -9.625 5.799999
      vertex 1.8999996 -9.625 6.8499994
    endloop
  endfacet
  facet normal 0 -1 0
    outer loop
      vertex -1.8999996 -9.625 5.799999
      vertex 1.8999996 -9.625 6.8499994
      vertex -1.8999996 -9.625 6.8499994
    endloop
  endfacet
  facet normal 0 0 1
    outer loop
      vertex -1.8999996 -9.625 5.799999
      vertex 3.3999996 -10 5.799999
      vertex 1.8999996 -9.625 5.799999
    endloop
  endfacet
  facet normal 0 0 1
    outer loop
      vertex -1.8999996 -9.625 6.8499994
      vertex -1 -8.674999 6.8499994
      vertex -1 4.575 6.8499994
    endloop
  endfacet
  facet normal 0 0 1
    outer loop
      vertex -1.8999996 -9.625 6.8499994
      vertex -1 4.575 6.8499994
      vertex -1.8999996 8 6.8499994
    endloop
  endfacet
  facet normal 0 0 1
    outer loop
      vertex -1.8999996 -9.625 6.8499994
      vertex 1.8999996 -9.625 6.8499994
      vertex -1 -8.674999 6.8499994
    endloop
  endfacet
  facet normal 0 0 1
    outer loop
      vertex -1.8999996 8 6.8499994
      vertex -1 4.575 6.8499994
      vertex 1.8999996 8 6.8499994
    endloop
  endfacet
  facet normal 0 -1 0
    outer loop
      vertex -1.8999996 8 6.8499994
      vertex 1.8999996 8 6.8499994
      vertex 3.3999996 8 7.3999996
    endloop
  endfacet
  facet normal 0 0 -1
    outer loop
      vertex -3.3999996 -10 4.3999996
      vertex -1 -8.674999 4.3999996
      vertex 3.3999996 -10 4.3999996
    endloop
  endfacet
  facet normal 0 0 -1
    outer loop
      vertex -3.3999996 -10 4.3999996
      vertex -1 4.575 4.3999996
      vertex -1 -8.674999 4.3999996
    endloop
  endfacet
  facet normal -1 0 0
    outer loop
      vertex -3.3999996 -10 4.3999996
      vertex -3.3999996 -10 5.799999
      vertex -3.3999996 8 5.799999
    endloop
  endfacet
  facet normal 0 0 -1
    outer loop
      vertex -3.3999996 -10 4.3999996
      vertex -3.3999996 10 4.3999996
      vertex -1 4.575 4.3999996
    endloop
  endfacet
  facet normal -1 0 0
    outer loop
      vertex -3.3999996 -10 4.3999996
      vertex -3.3999996 8 5.799999
      vertex -3.3999996 10 4.3999996
    endloop
  endfacet
  facet normal 0 -1 0
    outer loop
      vertex -3.3999996 -10 4.3999996
      vertex 3.3999996 -10 4.3999996
      vertex 3.3999996 -10 5.799999
    endloop
  endfacet
  facet normal 0 -1 0
    outer loop
      vertex -3.3999996 -10 4.3999996
      vertex 3.3999996 -10 5.799999
      vertex -3.3999996 -10 5.799999
    endloop
  endfacet
  facet normal 0 0 1
    outer loop
      vertex -3.3999996 -10 5.799999
      vertex -1.8999996 -9.625 5.799999
      vertex -3.3999996 8 5.799999
    endloop
  endfacet
  facet normal 0 0 1
    outer loop
      vertex -3.3999996 -10 5.799999
      vertex 3.3999996 -10 5.799999
      vertex -1.8999996 -9.625 5.799999
    endloop
  endfacet
  facet normal 0 1 0
    outer loop
      vertex -3.3999996 10 4.3999996
      vertex -3.3999996 10 7.3999996
      vertex 3.3999996 10 4.3999996
    endloop
  endfacet
  facet normal 0 0 -1
    outer loop
      vertex -3.3999996 10 4.3999996
      vertex 3.3999996 10 4.3999996
      vertex -1 4.575 4.3999996
    endloop
  endfacet
  facet normal 0 1 0
    outer loop
      vertex -3.3999996 10 7.3999996
      vertex 3.3999996 10 7.3999996
      vertex 3.3999996 10 4.3999996
    endloop
  endfacet
  facet normal 0 0 1
    outer loop
      vertex -3.3999996 10 7.3999996
      vertex 3.3999996 8 7.3999996
      vertex 3.3999996 10 7.3999996
    endloop
  endfacet
  facet normal 0 0 1
    outer loop
      vertex -3.3999996 8 5.799999
      vertex -1.8999996 -9.625 5.799999
      vertex -1.8999996 8 5.799999
    endloop
  endfacet
  facet normal 0 -1 0
    outer loop
      vertex -3.3999996 8 5.799999
      vertex -1.8999996 8 5.799999
      vertex -1.8999996 8 6.8499994
    endloop
  endfacet
  facet normal 0 -1 0
    outer loop
      vertex -3.3999996 8 5.799999
      vertex -1.8999996 8 6.8499994
      vertex -3.3999996 8 7.3999996
    endloop
  endfacet
  facet normal -1 0 0
    outer loop
      vertex -3.3999996 8 5.799999
      vertex -3.3999996 10 7.3999996
      vertex -3.3999996 10 4.3999996
    endloop
  endfacet
  facet normal -1 0 0
    outer loop
      vertex -3.3999996 8 5.799999
      vertex -3.3999996 8 7.3999996
      vertex -3.3999996 10 7.3999996
    endloop
  endfacet
  facet normal 0 -1 0
    outer loop
      vertex -3.3999996 8 7.3999996
      vertex -1.8999996 8 6.8499994
      vertex 3.3999996 8 7.3999996
    endloop
  endfacet
  facet normal 0 0 1
    outer loop
      vertex -3.3999996 8 7.3999996
      vertex 3.3999996 8 7.3999996
      vertex -3.3999996 10 7.3999996
    endloop
  endfacet
  facet normal -1 0 0
    outer loop
      vertex 1 -8.674999 4.3999996
      vertex 1 -8.674999 6.8499994
      vertex 1 4.575 6.8499994
    endloop
  endfacet
  facet normal 0 0 -1
    outer loop
      vertex 1 -8.674999 4.3999996
      vertex 1 4.575 4.3999996
      vertex 3.3999996 -10 4.3999996
    endloop
  endfacet
  facet normal -1 0 0
    outer loop
      vertex 1 -8.674999 4.3999996
      vertex 1 4.575 6.8499994
      vertex 1 4.575 4.3999996
    endloop
  endfacet
  facet normal 0 0 1
    outer loop
      vertex 1 -8.674999 6.8499994
      vertex 1.8999996 -9.625 6.8499994
      vertex 1 4.575 6.8499994
    endloop
  endfacet
  facet normal 0 0 -1
    outer loop
      vertex 1 4.575 4.3999996
      vertex 3.3999996 10 4.3999996
      vertex 3.3999996 -10 4.3999996
    endloop
  endfacet
  facet normal 0 0 1
    outer loop
      vertex 1 4.575 6.8499994
      vertex 1.8999996 -9.625 6.8499994
      vertex 1.8999996 8 6.8499994
    endloop
  endfacet
  facet normal 1 0 0
    outer loop
      vertex 1.8999996 -9.625 5.799999
      vertex 1.8999996 8 5.799999
      vertex 1.8999996 -9.625 6.8499994
    endloop
  endfacet
  facet normal 0 0 1
    outer loop
      vertex 1.8999996 -9.625 5.799999
      vertex 3.3999996 -10 5.799999
      vertex 3.3999996 8 5.799999
    endloop
  endfacet
  facet normal 0 0 1
    outer loop
      vertex 1.8999996 -9.625 5.799999
      vertex 3.3999996 8 5.799999
      vertex 1.8999996 8 5.799999
    endloop
  endfacet
  facet normal 1 0 0
    outer loop
      vertex 1.8999996 -9.625 6.8499994
      vertex 1.8999996 8 5.799999
      vertex 1.8999996 8 6.8499994
    endloop
  endfacet
  facet normal 0 -1 0
    outer loop
      vertex 1.8999996 8 5.799999
      vertex 3.3999996 8 5.799999
      vertex 1.8999996 8 6.8499994
    endloop
  endfacet
  facet normal 0 -1 0
    outer loop
      vertex 1.8999996 8 6.8499994
      vertex 3.3999996 8 5.799999
      vertex 3.3999996 8 7.3999996
    endloop
  endfacet
  facet normal 1 0 0
    outer loop
      vertex 3.3999996 -10 4.3999996
      vertex 3.3999996 10 4.3999996
      vertex 3.3999996 8 5.799999
    endloop
  endfacet
  facet normal 1 0 0
    outer loop
      vertex 3.3999996 -10 4.3999996
      vertex 3.3999996 8 5.799999
      vertex 3.3999996 -10 5.799999
    endloop
  endfacet
  facet normal 1 0 0
    outer loop
      vertex 3.3999996 8 5.799999
      vertex 3.3999996 10 4.3999996
      vertex 3.3999996 10 7.3999996
    endloop
  endfacet
  facet normal 1 0 0
    outer loop
      vertex 3.3999996 8 5.799999
      vertex 3.3999996 10 7.3999996
      vertex 3.3999996 8 7.3999996
    endloop
  endfacet
endsolid OpenSCAD_Model
