<?xml version="1.0" encoding="utf-8" ?>
<svg xmlns="http://www.w3.org/2000/svg" xmlns:ev="http://www.w3.org/2001/xml-events" xmlns:xlink="http://www.w3.org/1999/xlink" baseProfile="full" height="770px" version="1.1" width="1270px">
  <style>svg { background-color: white; }</style>
  <defs/>
  <path d="M 344.0987,226.6536 L 350.0062,226.7812" fill="none" stroke="black" stroke-width="1.0"/>
  <path d="M 359.8701,226.971 L 359.8701,274.4538" fill="none" stroke="black" stroke-width="1.0"/>
  <path d="M 364.2719,274.3561 L 354.2663,274.5782 L 344.4301,274.8156 L 344.4301,314.1553 L 354.2663,314.0026" fill="none" stroke="black" stroke-width="1.0"/>
  <path d="M 350.0062,314.2179 L 359.8701,314.3028" fill="none" stroke="black" stroke-width="1.0"/>
  <path d="M 364.2719,313.8598 L 354.2663,314.0026 L 354.2663,274.5782" fill="none" stroke="black" stroke-width="1.0"/>
  <path d="M 350.0062,274.681 L 350.0062,226.7812 L 359.8701,226.971 L 369.7228,227.1374 L 369.7228,274.2454" fill="none" stroke="black" stroke-width="1.0"/>
  <path d="M 374.4374,274.1497 L 381.1341,274.026 L 381.1341,313.6476 L 374.4374,313.7271 L 374.4374,274.1497 L 364.2719,274.3561 L 364.2719,313.8598 L 374.4374,313.7271" fill="none" stroke="black" stroke-width="1.0"/>
  <path d="M 369.7228,314.3773 L 359.8701,314.3028 L 359.8701,488.9665" fill="none" stroke="black" stroke-width="1.0"/>
  <path d="M 364.2719,489.6179 L 354.2663,489.4079 L 344.4301,489.1834 L 344.4301,495.4345" fill="none" stroke="black" stroke-width="1.0"/>
  <path d="M 344.4301,495.4345 L 354.2663,495.6724" fill="none" stroke="black" stroke-width="1.0"/>
  <path d="M 350.0062,495.5693 L 350.0062,524.4824 L 359.8701,524.3151" fill="none" stroke="black" stroke-width="1.0"/>
  <path d="M 364.2719,525.1879 L 374.4374,525.4495 L 374.4374,544.3158" fill="none" stroke="black" stroke-width="1.0"/>
  <path d="M 381.1341,544.4936 L 388.9968,544.3965" fill="none" stroke="black" stroke-width="1.0"/>
  <path d="M 398.3905,544.3028 L 388.9968,544.3965 L 388.9968,525.5206 L 398.3905,525.438 L 407.7646,525.3752" fill="none" stroke="black" stroke-width="1.0"/>
  <path d="M 399.189,523.8511 L 399.189,496.0885" fill="none" stroke="black" stroke-width="1.0"/>
  <path d="M 398.3905,496.0927 L 398.3905,489.8045" fill="none" stroke="black" stroke-width="1.0"/>
  <path d="M 399.189,488.6202 L 389.3846,488.6838 L 389.3846,314.495" fill="none" stroke="black" stroke-width="1.0"/>
  <path d="M 388.9968,313.691 L 388.9968,274.0936 L 381.1341,274.026" fill="none" stroke="black" stroke-width="1.0"/>
  <path d="M 379.5617,274.0551 L 379.5617,227.2806 L 369.7228,227.1374" fill="none" stroke="black" stroke-width="1.0"/>
  <path d="M 379.5617,227.2806 L 389.3846,227.4005 L 399.189,227.4972 L 399.189,274.163" fill="none" stroke="black" stroke-width="1.0"/>
  <path d="M 398.3905,274.1588 L 388.9968,274.0936" fill="none" stroke="black" stroke-width="1.0"/>
  <path d="M 389.3846,274.0963 L 389.3846,227.4005" fill="none" stroke="black" stroke-width="1.0"/>
  <path d="M 399.189,227.4972 L 408.9726,227.5707" fill="none" stroke="black" stroke-width="1.0"/>
  <path d="M 418.7329,227.6209 L 408.9726,227.5707 L 408.9726,274.2127" fill="none" stroke="black" stroke-width="1.0"/>
  <path d="M 407.7646,274.2083 L 417.1166,274.2422" fill="none" stroke="black" stroke-width="1.0"/>
  <path d="M 418.7329,274.2454 L 418.7329,227.6209 L 428.4677,227.648" fill="none" stroke="black" stroke-width="1.0"/>
  <path d="M 438.1746,227.6519 L 447.8513,227.6325 L 447.8513,274.2412" fill="none" stroke="black" stroke-width="1.0"/>
  <path d="M 445.0156,274.25 L 454.2549,274.2213 L 454.2549,310.7565" fill="none" stroke="black" stroke-width="1.0"/>
  <path d="M 447.4285,313.9125 L 444.5842,313.9181 L 444.5842,489.5321 L 454.3206,489.5607 L 454.3206,482.5342 L 447.4285,482.5154 L 447.4285,313.9125" fill="none" stroke="black" stroke-width="1.0"/>
  <path d="M 446.836,313.788 L 446.836,310.7719 L 454.2549,310.7565 L 463.4599,310.7268 L 463.4599,274.177 L 472.6281,274.1171 L 472.6281,310.6866 L 479.9572,310.6459" fill="none" stroke="black" stroke-width="1.0"/>
  <path d="M 479.9572,310.6459 L 479.9572,313.6671" fill="none" stroke="black" stroke-width="1.0"/>
  <path d="M 479.9572,312.1004 L 453.355,312.1996 L 453.355,480.8073 L 480.4927,480.9405" fill="none" stroke="black" stroke-width="1.0"/>
  <path d="M 473.6836,482.6309 L 464.0212,482.5753 L 464.0212,489.6047 L 473.6836,489.6644 L 473.6836,482.6309 L 480.4927,482.6806 L 480.4927,313.792 L 483.3055,313.7771 L 483.3055,489.7396 L 492.8845,489.8305" fill="none" stroke="black" stroke-width="1.0"/>
  <path d="M 490.8446,490.0018 L 499.8877,490.1029" fill="none" stroke="black" stroke-width="1.0"/>
  <path d="M 495.6357,489.8612 L 492.8845,489.8305 L 492.8845,313.7153 L 495.6357,313.6944" fill="none" stroke="black" stroke-width="1.0"/>
  <path d="M 492.8845,313.7153 L 483.3055,313.7771" fill="none" stroke="black" stroke-width="1.0"/>
  <path d="M 481.7572,313.6575 L 490.8446,313.5988" fill="none" stroke="black" stroke-width="1.0"/>
  <path d="M 499.8877,313.53 L 490.8446,313.5988 L 490.8446,273.9501 L 481.7572,274.0414 L 481.7572,313.6575" fill="none" stroke="black" stroke-width="1.0"/>
  <path d="M 472.6281,310.6866 L 463.4599,310.7268" fill="none" stroke="black" stroke-width="1.0"/>
  <path d="M 445.0156,313.7916 L 445.0156,274.25 L 435.7445,274.263 L 426.444,274.2604 L 417.1166,274.2422 L 417.1166,313.7866 L 426.444,313.7983 L 426.444,274.2604" fill="none" stroke="black" stroke-width="1.0"/>
  <path d="M 428.4677,274.261 L 428.4677,227.648 L 438.1746,227.6519 L 438.1746,274.2596" fill="none" stroke="black" stroke-width="1.0"/>
  <path d="M 435.7445,274.263 L 435.7445,313.8 L 426.444,313.7983" fill="none" stroke="black" stroke-width="1.0"/>
  <path d="M 431.9842,313.9264 L 431.9842,489.5199 L 420.2822,488.536 L 420.2822,314.5955 L 431.9842,313.9264 L 434.8145,313.927 L 444.5842,313.9181" fill="none" stroke="black" stroke-width="1.0"/>
  <path d="M 434.8145,313.927 L 434.8145,489.5192 L 431.9842,489.5199" fill="none" stroke="black" stroke-width="1.0"/>
  <path d="M 434.8145,489.5192 L 444.5842,489.5321" fill="none" stroke="black" stroke-width="1.0"/>
  <path d="M 445.0156,489.7182 L 445.0156,496.0013 L 435.7445,495.9882 L 435.7445,489.7059 L 426.444,489.7084 L 417.1166,489.7256 L 407.7646,489.7576 L 407.7646,496.0431 L 398.3905,496.0927 L 388.9968,496.1581 L 388.9968,489.8661" fill="none" stroke="black" stroke-width="1.0"/>
  <path d="M 389.3846,488.6838 L 379.5617,488.7627 L 369.7228,488.8569 L 359.8701,488.9665 L 350.0062,489.0913 L 344.0987,489.1753 L 344.0987,314.1608 L 350.0062,314.2179 L 350.0062,489.0913" fill="none" stroke="black" stroke-width="1.0"/>
  <path d="M 354.2663,489.4079 L 354.2663,495.6724 L 364.2719,495.8949 L 364.2719,489.6179 L 374.4374,489.8131 L 381.1341,489.93 L 381.1341,496.2258 L 374.4374,496.1018 L 364.2719,495.8949" fill="none" stroke="black" stroke-width="1.0"/>
  <path d="M 359.8701,495.797 L 359.8701,524.3151 L 369.7228,524.1683 L 369.7228,496.0059" fill="none" stroke="black" stroke-width="1.0"/>
  <path d="M 374.4374,496.1018 L 374.4374,489.8131" fill="none" stroke="black" stroke-width="1.0"/>
  <path d="M 369.7228,488.8569 L 369.7228,314.3773 L 379.5617,314.4413 L 389.3846,314.495 L 399.189,314.5382 L 399.189,488.6202 L 408.9726,488.5719 L 408.9726,314.5711 L 418.7329,314.5936 L 420.2822,314.5955" fill="none" stroke="black" stroke-width="1.0"/>
  <path d="M 407.7646,313.7648 L 398.3905,313.733 L 398.3905,274.1588 L 407.7646,274.2083 L 407.7646,313.7648" fill="none" stroke="black" stroke-width="1.0"/>
  <path d="M 379.5617,314.4413 L 379.5617,488.7627" fill="none" stroke="black" stroke-width="1.0"/>
  <path d="M 379.5617,496.1967 L 379.5617,524.0421 L 389.3846,523.9364" fill="none" stroke="black" stroke-width="1.0"/>
  <path d="M 389.3846,523.9364 L 389.3846,496.1554" fill="none" stroke="black" stroke-width="1.0"/>
  <path d="M 388.9968,496.1581 L 381.1341,496.2258" fill="none" stroke="black" stroke-width="1.0"/>
  <path d="M 407.7646,496.0431 L 417.1166,496.0091 L 426.444,495.9909 L 435.7445,495.9882" fill="none" stroke="black" stroke-width="1.0"/>
  <path d="M 438.1746,495.9917 L 438.1746,523.7148 L 428.4677,523.7182 L 418.7329,523.7421 L 418.7329,496.006" fill="none" stroke="black" stroke-width="1.0"/>
  <path d="M 417.1166,496.0091 L 417.1166,489.7256" fill="none" stroke="black" stroke-width="1.0"/>
  <path d="M 418.7329,488.5389 L 408.9726,488.5719" fill="none" stroke="black" stroke-width="1.0"/>
  <path d="M 408.9726,496.0387 L 408.9726,523.7864 L 418.7329,523.7421" fill="none" stroke="black" stroke-width="1.0"/>
  <path d="M 417.1166,525.3323 L 426.444,525.3092 L 426.444,544.1567 L 417.1166,544.1829 L 417.1166,525.3323 L 407.7646,525.3752 L 407.7646,544.2316 L 398.3905,544.3028 L 398.3905,525.438" fill="none" stroke="black" stroke-width="1.0"/>
  <path d="M 388.9968,525.5206 L 381.1341,525.6062 L 381.1341,544.4936 L 374.4374,544.3158 L 364.2719,544.0192 L 364.2719,525.1879 L 354.2663,524.9066 L 354.2663,543.7 L 344.4301,543.3588 L 344.4301,524.6058 L 354.2663,524.9066" fill="none" stroke="black" stroke-width="1.0"/>
  <path d="M 350.0062,524.4824 L 344.0987,524.5949 L 344.0987,495.4258" fill="none" stroke="black" stroke-width="1.0"/>
  <path d="M 369.7228,524.1683 L 379.5617,524.0421" fill="none" stroke="black" stroke-width="1.0"/>
  <path d="M 381.1341,525.6062 L 374.4374,525.4495" fill="none" stroke="black" stroke-width="1.0"/>
  <path d="M 364.2719,544.0192 L 354.2663,543.7" fill="none" stroke="black" stroke-width="1.0"/>
  <path d="M 344.4301,543.3588 L 340.2603,543.2023 L 340.2603,226.7977 L 344.0987,226.6536 L 344.0987,274.8242" fill="none" stroke="black" stroke-width="1.0"/>
  <path d="M 454.2549,274.2213 L 463.4599,274.177" fill="none" stroke="black" stroke-width="1.0"/>
  <path d="M 467.1042,274.1532 L 467.1042,227.5243 L 476.6758,227.4354 L 486.2075,227.3232 L 486.2075,273.9967" fill="none" stroke="black" stroke-width="1.0"/>
  <path d="M 481.7572,274.0414 L 472.6281,274.1171" fill="none" stroke="black" stroke-width="1.0"/>
  <path d="M 476.6758,274.0835 L 476.6758,227.4354" fill="none" stroke="black" stroke-width="1.0"/>
  <path d="M 486.2075,227.3232 L 495.6969,227.1878" fill="none" stroke="black" stroke-width="1.0"/>
  <path d="M 505.1417,227.029 L 495.6969,227.1878 L 495.6969,273.8927" fill="none" stroke="black" stroke-width="1.0"/>
  <path d="M 499.8877,273.8431 L 490.8446,273.9501" fill="none" stroke="black" stroke-width="1.0"/>
  <path d="M 505.1417,273.7715 L 505.1417,227.029 L 514.5393,226.847 L 523.8871,226.6416" fill="none" stroke="black" stroke-width="1.0"/>
  <path d="M 533.1827,226.4129 L 533.1827,273.3038" fill="none" stroke="black" stroke-width="1.0"/>
  <path d="M 535.5664,273.2579 L 526.726,273.4279 L 526.726,313.263" fill="none" stroke="black" stroke-width="1.0"/>
  <path d="M 523.8871,314.1555 L 533.1827,314.0531" fill="none" stroke="black" stroke-width="1.0"/>
  <path d="M 535.5664,313.1537 L 542.9035,313.054" fill="none" stroke="black" stroke-width="1.0"/>
  <path d="M 550.2123,313.0826 L 542.9035,313.054 L 542.9035,273.1028 L 550.2123,273.1473 L 550.2123,313.0826 L 561.4358,313.1379 L 561.4358,273.2333 L 550.2123,273.1473" fill="none" stroke="black" stroke-width="1.0"/>
  <path d="M 551.6065,273.158 L 551.6065,225.885 L 542.4234,226.1607 L 542.4234,273.1129" fill="none" stroke="black" stroke-width="1.0"/>
  <path d="M 542.9035,273.1028 L 535.5664,273.2579 L 535.5664,313.1537 L 526.726,313.263 L 517.831,313.3621 L 508.884,313.4511 L 499.8877,313.53 L 499.8877,273.8431 L 508.884,273.7204 L 508.884,313.4511" fill="none" stroke="black" stroke-width="1.0"/>
  <path d="M 513.0425,314.2603 L 513.0425,489.0289 L 495.6357,489.8612 L 495.6357,313.6944 L 513.0425,314.2603 L 514.5393,314.2473 L 523.8871,314.1555 L 523.8871,489.1831 L 533.1827,489.3336 L 542.4234,489.4995 L 542.4234,313.9403 L 533.1827,314.0531 L 533.1827,489.3336" fill="none" stroke="black" stroke-width="1.0"/>
  <path d="M 535.5664,490.6563 L 542.9035,490.803" fill="none" stroke="black" stroke-width="1.0"/>
  <path d="M 542.9035,497.1511 L 535.5664,496.9956 L 535.5664,490.6563 L 526.726,490.4956 L 517.831,490.3498 L 508.884,490.2189 L 499.8877,490.1029 L 499.8877,496.4091 L 508.884,496.5321 L 508.884,490.2189" fill="none" stroke="black" stroke-width="1.0"/>
  <path d="M 513.0425,489.0289 L 514.5393,489.048 L 523.8871,489.1831" fill="none" stroke="black" stroke-width="1.0"/>
  <path d="M 526.726,490.4956 L 526.726,496.8253 L 517.831,496.6708 L 517.831,490.3498" fill="none" stroke="black" stroke-width="1.0"/>
  <path d="M 517.831,496.6708 L 508.884,496.5321" fill="none" stroke="black" stroke-width="1.0"/>
  <path d="M 505.1417,496.4809 L 505.1417,524.2639 L 495.6969,524.124 L 495.6969,496.3594" fill="none" stroke="black" stroke-width="1.0"/>
  <path d="M 499.8877,496.4091 L 490.8446,496.3019 L 481.7572,496.2104 L 481.7572,489.9154 L 490.8446,490.0018 L 490.8446,496.3019" fill="none" stroke="black" stroke-width="1.0"/>
  <path d="M 486.2075,496.2552 L 486.2075,524.0046 L 495.6969,524.124" fill="none" stroke="black" stroke-width="1.0"/>
  <path d="M 499.8877,525.8379 L 508.884,525.9934 L 508.884,544.9328 L 499.8877,544.7564 L 499.8877,525.8379 L 490.8446,525.7024 L 490.8446,544.6027 L 481.7572,544.4715 L 472.6281,544.3628 L 472.6281,525.4909 L 481.7572,525.5867 L 481.7572,544.4715" fill="none" stroke="black" stroke-width="1.0"/>
  <path d="M 490.8446,544.6027 L 499.8877,544.7564" fill="none" stroke="black" stroke-width="1.0"/>
  <path d="M 508.884,544.9328 L 517.831,545.1317 L 517.831,526.1688 L 526.726,526.3641 L 526.726,545.3533 L 535.5664,545.5975 L 535.5664,526.5794 L 526.726,526.3641" fill="none" stroke="black" stroke-width="1.0"/>
  <path d="M 523.8871,524.6054 L 533.1827,524.8071 L 542.4234,525.0294 L 542.4234,497.141" fill="none" stroke="black" stroke-width="1.0"/>
  <path d="M 535.5664,496.9956 L 526.726,496.8253" fill="none" stroke="black" stroke-width="1.0"/>
  <path d="M 523.8871,496.776 L 523.8871,524.6054 L 514.5393,524.4243 L 514.5393,496.6198" fill="none" stroke="black" stroke-width="1.0"/>
  <path d="M 533.1827,496.9497 L 533.1827,524.8071" fill="none" stroke="black" stroke-width="1.0"/>
  <path d="M 535.5664,526.5794 L 542.9035,526.776" fill="none" stroke="black" stroke-width="1.0"/>
  <path d="M 542.4234,525.0294 L 551.6065,525.2724" fill="none" stroke="black" stroke-width="1.0"/>
  <path d="M 550.2123,526.7196 L 550.2123,545.7565 L 561.4358,545.633" fill="none" stroke="black" stroke-width="1.0"/>
  <path d="M 572.6167,545.4846 L 583.7431,545.3115 L 583.7431,526.3273 L 572.6167,526.4798" fill="none" stroke="black" stroke-width="1.0"/>
  <path d="M 569.7894,525.8207 L 569.7894,496.943" fill="none" stroke="black" stroke-width="1.0"/>
  <path d="M 572.6167,496.9169 L 583.7431,496.7962" fill="none" stroke="black" stroke-width="1.0"/>
  <path d="M 583.7431,496.7962 L 583.7431,490.4681" fill="none" stroke="black" stroke-width="1.0"/>
  <path d="M 583.7431,490.4681 L 572.6167,490.582 L 561.4358,490.6796" fill="none" stroke="black" stroke-width="1.0"/>
  <path d="M 561.4358,497.0204 L 550.2123,497.1065 L 550.2123,490.7609 L 561.4358,490.6796 L 561.4358,497.0204 L 572.6167,496.9169 L 572.6167,490.582" fill="none" stroke="black" stroke-width="1.0"/>
  <path d="M 569.7894,490.0901 L 560.7294,489.8777 L 560.7294,313.6831 L 569.7894,313.5387 L 569.7894,490.0901 L 578.7836,490.318 L 584.1223,490.4637 L 584.1223,313.2847" fill="none" stroke="black" stroke-width="1.0"/>
  <path d="M 584.1223,313.2847 L 578.7836,313.3838" fill="none" stroke="black" stroke-width="1.0"/>
  <path d="M 572.6167,313.2043 L 572.6167,273.3365 L 561.4358,273.2333" fill="none" stroke="black" stroke-width="1.0"/>
  <path d="M 560.7294,273.2279 L 560.7294,225.5858 L 551.6065,225.885" fill="none" stroke="black" stroke-width="1.0"/>
  <path d="M 560.7294,225.5858 L 569.7894,225.263 L 569.7894,273.3104" fill="none" stroke="black" stroke-width="1.0"/>
  <path d="M 572.6167,273.3365 L 583.7431,273.4569" fill="none" stroke="black" stroke-width="1.0"/>
  <path d="M 583.7431,273.4569 L 583.7431,313.2817 L 572.6167,313.2043 L 561.4358,313.1379" fill="none" stroke="black" stroke-width="1.0"/>
  <path d="M 569.7894,313.5387 L 578.7836,313.3838 L 578.7836,490.318" fill="none" stroke="black" stroke-width="1.0"/>
  <path d="M 578.7836,496.85 L 578.7836,526.1261 L 569.7894,525.8207 L 560.7294,525.5362" fill="none" stroke="black" stroke-width="1.0"/>
  <path d="M 561.4358,526.6107 L 572.6167,526.4798 L 572.6167,545.4846 L 561.4358,545.633 L 561.4358,526.6107 L 550.2123,526.7196 L 542.9035,526.776 L 542.9035,545.8205 L 535.5664,545.5975" fill="none" stroke="black" stroke-width="1.0"/>
  <path d="M 542.9035,545.8205 L 550.2123,545.7565" fill="none" stroke="black" stroke-width="1.0"/>
  <path d="M 526.726,545.3533 L 517.831,545.1317" fill="none" stroke="black" stroke-width="1.0"/>
  <path d="M 517.831,526.1688 L 508.884,525.9934" fill="none" stroke="black" stroke-width="1.0"/>
  <path d="M 505.1417,524.2639 L 514.5393,524.4243" fill="none" stroke="black" stroke-width="1.0"/>
  <path d="M 490.8446,525.7024 L 481.7572,525.5867" fill="none" stroke="black" stroke-width="1.0"/>
  <path d="M 486.2075,524.0046 L 476.6758,523.9057 L 467.1042,523.8273" fill="none" stroke="black" stroke-width="1.0"/>
  <path d="M 463.4599,525.4149 L 472.6281,525.4909" fill="none" stroke="black" stroke-width="1.0"/>
  <path d="M 476.6758,523.9057 L 476.6758,496.1682" fill="none" stroke="black" stroke-width="1.0"/>
  <path d="M 472.6281,496.1346 L 472.6281,489.8439" fill="none" stroke="black" stroke-width="1.0"/>
  <path d="M 473.6836,489.6644 L 483.3055,489.7396" fill="none" stroke="black" stroke-width="1.0"/>
  <path d="M 481.7572,496.2104 L 472.6281,496.1346 L 463.4599,496.0745 L 454.2549,496.03 L 454.2549,489.7453" fill="none" stroke="black" stroke-width="1.0"/>
  <path d="M 454.3206,489.5607 L 464.0212,489.6047" fill="none" stroke="black" stroke-width="1.0"/>
  <path d="M 463.4599,489.7872 L 463.4599,496.0745" fill="none" stroke="black" stroke-width="1.0"/>
  <path d="M 467.1042,496.0983 L 467.1042,523.8273 L 457.4952,523.7693 L 457.4952,496.0457" fill="none" stroke="black" stroke-width="1.0"/>
  <path d="M 454.2549,496.03 L 445.0156,496.0013" fill="none" stroke="black" stroke-width="1.0"/>
  <path d="M 447.8513,496.0101 L 447.8513,523.7318 L 438.1746,523.7148" fill="none" stroke="black" stroke-width="1.0"/>
  <path d="M 435.7445,525.3059 L 445.0156,525.3224 L 445.0156,544.1717" fill="none" stroke="black" stroke-width="1.0"/>
  <path d="M 454.2549,544.2129 L 463.4599,544.2766 L 463.4599,525.4149 L 454.2549,525.3587 L 454.2549,544.2129 L 445.0156,544.1717 L 435.7445,544.153 L 435.7445,525.3059 L 426.444,525.3092" fill="none" stroke="black" stroke-width="1.0"/>
  <path d="M 428.4677,523.7182 L 428.4677,495.9903" fill="none" stroke="black" stroke-width="1.0"/>
  <path d="M 426.444,495.9909 L 426.444,489.7084" fill="none" stroke="black" stroke-width="1.0"/>
  <path d="M 420.2822,488.536 L 418.7329,488.5389" fill="none" stroke="black" stroke-width="1.0"/>
  <path d="M 454.3206,482.5342 L 464.0212,482.5753" fill="none" stroke="black" stroke-width="1.0"/>
  <path d="M 457.4952,523.7693 L 447.8513,523.7318" fill="none" stroke="black" stroke-width="1.0"/>
  <path d="M 445.0156,525.3224 L 454.2549,525.3587" fill="none" stroke="black" stroke-width="1.0"/>
  <path d="M 463.4599,544.2766 L 472.6281,544.3628" fill="none" stroke="black" stroke-width="1.0"/>
  <path d="M 435.7445,544.153 L 426.444,544.1567" fill="none" stroke="black" stroke-width="1.0"/>
  <path d="M 417.1166,544.1829 L 407.7646,544.2316" fill="none" stroke="black" stroke-width="1.0"/>
  <path d="M 550.2123,497.1065 L 542.9035,497.1511 L 542.9035,490.803 L 550.2123,490.7609" fill="none" stroke="black" stroke-width="1.0"/>
  <path d="M 551.6065,489.6809 L 551.6065,313.817" fill="none" stroke="black" stroke-width="1.0"/>
  <path d="M 517.831,313.3621 L 517.831,273.582 L 526.726,273.4279" fill="none" stroke="black" stroke-width="1.0"/>
  <path d="M 523.8871,273.4771 L 523.8871,226.6416 L 533.1827,226.4129 L 542.4234,226.1607" fill="none" stroke="black" stroke-width="1.0"/>
  <path d="M 569.7894,225.263 L 578.7836,224.9166" fill="none" stroke="black" stroke-width="1.0"/>
  <path d="M 584.1223,224.6952 L 578.7836,224.9166 L 578.7836,273.4033" fill="none" stroke="black" stroke-width="1.0"/>
  <path d="M 584.1223,273.4616 L 584.1223,224.6952 L 588.5156,224.7737" fill="none" stroke="black" stroke-width="1.0"/>
  <path d="M 594.3386,233.5031 L 599.7441,233.894 L 599.7441,536.106 L 594.3386,536.4969" fill="none" stroke="black" stroke-width="1.0"/>
  <path d="M 588.5156,545.2263 L 588.5156,224.7737 L 594.3386,229.5034 L 594.3386,540.4966 L 588.5156,545.2263 L 583.7431,545.3115" fill="none" stroke="black" stroke-width="1.0"/>
  <path d="M 578.7836,526.1261 L 584.1223,526.3213 L 584.1223,496.7915" fill="none" stroke="black" stroke-width="1.0"/>
  <path d="M 560.7294,497.0258 L 560.7294,525.5362 L 551.6065,525.2724 L 551.6065,497.0958" fill="none" stroke="black" stroke-width="1.0"/>
  <path d="M 676.8973,497.3193 L 676.8973,526.9886 L 682.6334,526.8723" fill="none" stroke="black" stroke-width="1.0"/>
  <path d="M 687.9957,527.3111 L 698.8563,527.6023 L 709.8322,527.8729 L 717.0252,528.0351 L 717.0252,547.2487 L 709.8322,547.0648 L 709.8322,527.8729" fill="none" stroke="black" stroke-width="1.0"/>
  <path d="M 711.6257,526.4168 L 711.6257,498.0509" fill="none" stroke="black" stroke-width="1.0"/>
  <path d="M 709.8322,498.0189 L 698.8563,497.8048" fill="none" stroke="black" stroke-width="1.0"/>
  <path d="M 701.9252,497.8646 L 701.9252,526.5473 L 692.2603,526.6992 L 692.2603,497.6649" fill="none" stroke="black" stroke-width="1.0"/>
  <path d="M 687.9957,497.5745 L 687.9957,491.2023" fill="none" stroke="black" stroke-width="1.0"/>
  <path d="M 692.2603,490.7456 L 692.2603,313.093 L 682.6334,313.0051 L 682.6334,490.8748" fill="none" stroke="black" stroke-width="1.0"/>
  <path d="M 682.6334,497.4515 L 682.6334,526.8723 L 692.2603,526.6992" fill="none" stroke="black" stroke-width="1.0"/>
  <path d="M 698.8563,527.6023 L 698.8563,546.7578 L 687.9957,546.4276 L 677.261,546.0746 L 677.261,527.0 L 687.9957,527.3111 L 687.9957,546.4276" fill="none" stroke="black" stroke-width="1.0"/>
  <path d="M 677.261,546.0746 L 672.6851,545.9126 L 672.6851,224.0874 L 676.8973,223.9383 L 676.8973,272.935" fill="none" stroke="black" stroke-width="1.0"/>
  <path d="M 677.261,272.926 L 687.9957,272.6804 L 687.9957,312.7824 L 698.8563,312.6347 L 698.8563,272.4506 L 687.9957,272.6804" fill="none" stroke="black" stroke-width="1.0"/>
  <path d="M 692.2603,272.5902 L 692.2603,224.2666 L 701.9252,224.4388 L 701.9252,272.3909" fill="none" stroke="black" stroke-width="1.0"/>
  <path d="M 698.8563,272.4506 L 709.8322,272.237 L 709.8322,312.4973 L 698.8563,312.6347" fill="none" stroke="black" stroke-width="1.0"/>
  <path d="M 701.9252,313.17 L 692.2603,313.093" fill="none" stroke="black" stroke-width="1.0"/>
  <path d="M 687.9957,312.7824 L 677.261,312.9403 L 677.261,272.926" fill="none" stroke="black" stroke-width="1.0"/>
  <path d="M 682.6334,272.8031 L 682.6334,224.0703 L 676.8973,223.9383" fill="none" stroke="black" stroke-width="1.0"/>
  <path d="M 682.6334,224.0703 L 692.2603,224.2666" fill="none" stroke="black" stroke-width="1.0"/>
  <path d="M 701.9252,224.4388 L 711.6257,224.587 L 711.6257,272.2051" fill="none" stroke="black" stroke-width="1.0"/>
  <path d="M 709.8322,272.237 L 717.0252,272.109 L 717.0252,312.415 L 709.8322,312.4973" fill="none" stroke="black" stroke-width="1.0"/>
  <path d="M 711.6257,313.2363 L 721.3594,313.2918" fill="none" stroke="black" stroke-width="1.0"/>
  <path d="M 724.8157,312.46 L 734.1707,312.5034 L 743.5537,312.5363 L 752.9625,312.5589 L 762.3944,312.571 L 771.8472,312.5727 L 771.8472,272.3543 L 762.3944,272.3516 L 762.3944,312.571" fill="none" stroke="black" stroke-width="1.0"/>
  <path d="M 767.415,312.7036 L 770.2915,312.7041 L 770.2915,491.3175 L 780.2717,491.3309 L 790.2688,491.3604 L 800.2805,491.406 L 800.2805,312.6439 L 810.3045,312.6019 L 820.3385,312.549 L 830.3801,312.4851 L 833.2794,312.4635 L 833.2794,491.6714 L 848.2586,490.8103 L 848.2586,313.049 L 833.2794,312.4635" fill="none" stroke="black" stroke-width="1.0"/>
  <path d="M 830.3801,312.4851 L 830.3801,491.6396 L 833.2794,491.6714" fill="none" stroke="black" stroke-width="1.0"/>
  <path d="M 830.3801,491.6396 L 820.3385,491.5456 L 820.3385,312.549" fill="none" stroke="black" stroke-width="1.0"/>
  <path d="M 819.3389,312.4253 L 819.3389,272.125 L 828.8659,272.0305 L 828.8659,312.3645 L 838.3968,312.2933 L 847.9291,312.2117 L 857.4603,312.1196 L 866.9879,312.017 L 876.5093,311.9039 L 876.5093,271.3141 L 884.4559,271.1535 L 891.7537,271.1996 L 891.7537,311.8303 L 884.4559,311.8007 L 884.4559,271.1535" fill="none" stroke="black" stroke-width="1.0"/>
  <path d="M 879.6874,271.2499 L 879.6874,223.4283 L 869.7434,223.6892 L 869.7434,271.4391" fill="none" stroke="black" stroke-width="1.0"/>
  <path d="M 866.9879,271.49 L 857.4603,271.6495 L 857.4603,312.1196" fill="none" stroke="black" stroke-width="1.0"/>
  <path d="M 859.7946,312.9405 L 859.7946,490.9698 L 869.7434,491.1255 L 869.7434,312.8347 L 879.6874,312.7179 L 889.6242,312.5903 L 899.5512,312.4518 L 909.4658,312.3024 L 919.3654,312.142 L 919.3654,492.1441 L 909.4658,491.9083 L 909.4658,312.3024" fill="none" stroke="black" stroke-width="1.0"/>
  <path d="M 913.9597,311.9562 L 913.9597,271.3954 L 924.9049,271.52 L 924.9049,312.0363 L 913.9597,311.9562 L 902.9055,311.8875 L 902.9055,271.2885 L 891.7537,271.1996" fill="none" stroke="black" stroke-width="1.0"/>
  <path d="M 889.6242,271.1861 L 889.6242,223.1431 L 879.6874,223.4283" fill="none" stroke="black" stroke-width="1.0"/>
  <path d="M 889.6242,223.1431 L 899.5512,222.8335 L 899.5512,271.2618" fill="none" stroke="black" stroke-width="1.0"/>
  <path d="M 902.9055,271.2885 L 913.9597,271.3954" fill="none" stroke="black" stroke-width="1.0"/>
  <path d="M 909.4658,271.352 L 909.4658,222.4994 L 919.3654,222.1409 L 925.2759,221.9118 L 925.2759,271.5249" fill="none" stroke="black" stroke-width="1.0"/>
  <path d="M 919.3654,271.457 L 919.3654,222.1409" fill="none" stroke="black" stroke-width="1.0"/>
  <path d="M 925.2759,221.9118 L 929.5757,221.9929 L 929.5757,548.0071 L 924.9049,548.0952 L 924.9049,528.7813 L 913.9597,528.9392 L 913.9597,548.2744 L 924.9049,548.0952" fill="none" stroke="black" stroke-width="1.0"/>
  <path d="M 913.9597,548.2744 L 902.9055,548.428 L 902.9055,529.0747 L 913.9597,528.9392" fill="none" stroke="black" stroke-width="1.0"/>
  <path d="M 909.4658,528.2571 L 919.3654,528.5732 L 919.3654,498.8007" fill="none" stroke="black" stroke-width="1.0"/>
  <path d="M 913.9597,498.8624 L 913.9597,492.4173 L 902.9055,492.5184 L 902.9055,498.9695 L 913.9597,498.8624 L 924.9049,498.7375 L 924.9049,492.2995 L 913.9597,492.4173" fill="none" stroke="black" stroke-width="1.0"/>
  <path d="M 909.4658,491.9083 L 899.5512,491.6885 L 899.5512,312.4518" fill="none" stroke="black" stroke-width="1.0"/>
  <path d="M 902.9055,311.8875 L 891.7537,311.8303" fill="none" stroke="black" stroke-width="1.0"/>
  <path d="M 889.6242,312.5903 L 889.6242,491.4848 L 879.6874,491.2972 L 879.6874,312.7179" fill="none" stroke="black" stroke-width="1.0"/>
  <path d="M 876.5093,311.9039 L 884.4559,311.8007" fill="none" stroke="black" stroke-width="1.0"/>
  <path d="M 869.7434,312.8347 L 859.7946,312.9405 L 849.8435,313.0356 L 848.2586,313.049" fill="none" stroke="black" stroke-width="1.0"/>
  <path d="M 847.9291,312.2117 L 847.9291,271.7928 L 857.4603,271.6495" fill="none" stroke="black" stroke-width="1.0"/>
  <path d="M 859.7946,271.6104 L 859.7946,223.9259 L 869.7434,223.6892" fill="none" stroke="black" stroke-width="1.0"/>
  <path d="M 859.7946,223.9259 L 849.8435,224.1384 L 849.8435,271.764" fill="none" stroke="black" stroke-width="1.0"/>
  <path d="M 847.9291,271.7928 L 838.3968,271.9198 L 838.3968,312.2933" fill="none" stroke="black" stroke-width="1.0"/>
  <path d="M 817.4616,309.8741 L 817.4616,272.1404" fill="none" stroke="black" stroke-width="1.0"/>
  <path d="M 817.4616,272.1404 L 819.3389,272.125" fill="none" stroke="black" stroke-width="1.0"/>
  <path d="M 820.0012,272.1184 L 820.0012,224.631 L 810.0653,224.747" fill="none" stroke="black" stroke-width="1.0"/>
  <path d="M 800.1392,224.839 L 810.0653,224.747 L 810.0653,268.6057" fill="none" stroke="black" stroke-width="1.0"/>
  <path d="M 816.8409,269.4971 L 816.8409,309.8775" fill="none" stroke="black" stroke-width="1.0"/>
  <path d="M 817.4616,309.8741 L 809.8182,309.9159 L 809.8182,312.4756" fill="none" stroke="black" stroke-width="1.0"/>
  <path d="M 810.3045,312.6019 L 810.3045,491.4677 L 800.2805,491.406" fill="none" stroke="black" stroke-width="1.0"/>
  <path d="M 800.3062,491.5948 L 800.3062,497.9905 L 809.8182,498.0527 L 819.3389,498.1312 L 819.3389,491.7275" fill="none" stroke="black" stroke-width="1.0"/>
  <path d="M 820.3385,491.5456 L 810.3045,491.4677" fill="none" stroke="black" stroke-width="1.0"/>
  <path d="M 809.8182,491.6535 L 809.8182,498.0527" fill="none" stroke="black" stroke-width="1.0"/>
  <path d="M 810.0653,498.0548 L 810.0653,526.2757" fill="none" stroke="black" stroke-width="1.0"/>
  <path d="M 809.8182,527.9157 L 809.8182,547.1133 L 819.3389,547.2258 L 828.8659,547.3616 L 828.8659,528.1346 L 819.3389,528.0149 L 819.3389,547.2258" fill="none" stroke="black" stroke-width="1.0"/>
  <path d="M 809.8182,547.1133 L 800.3062,547.0242 L 800.3062,527.8371 L 790.8055,527.779 L 781.3183,527.7414 L 781.3183,546.9156 L 771.8472,546.8962 L 771.8472,527.7243 L 781.3183,527.7414" fill="none" stroke="black" stroke-width="1.0"/>
  <path d="M 780.3253,526.0958 L 770.4423,526.0782 L 770.4423,497.9017" fill="none" stroke="black" stroke-width="1.0"/>
  <path d="M 771.8472,497.9013 L 762.3944,497.904 L 752.9625,497.9229 L 752.9625,491.5311 L 762.3944,491.5132 L 762.3944,497.904" fill="none" stroke="black" stroke-width="1.0"/>
  <path d="M 760.5783,497.9077 L 760.5783,526.0817 L 770.4423,526.0782" fill="none" stroke="black" stroke-width="1.0"/>
  <path d="M 771.8472,527.7243 L 762.3944,527.7277 L 762.3944,546.9001 L 771.8472,546.8962" fill="none" stroke="black" stroke-width="1.0"/>
  <path d="M 762.3944,546.9001 L 752.9625,546.9272 L 752.9625,527.7516 L 743.5537,527.7961 L 743.5537,546.9776 L 752.9625,546.9272" fill="none" stroke="black" stroke-width="1.0"/>
  <path d="M 743.5537,546.9776 L 734.1707,547.0513 L 724.8157,547.1483 L 717.0252,547.2487" fill="none" stroke="black" stroke-width="1.0"/>
  <path d="M 709.8322,547.0648 L 698.8563,546.7578" fill="none" stroke="black" stroke-width="1.0"/>
  <path d="M 701.9252,526.5473 L 711.6257,526.4168 L 721.3594,526.3074 L 721.3594,498.1082" fill="none" stroke="black" stroke-width="1.0"/>
  <path d="M 724.8157,498.0771 L 717.0252,498.1471" fill="none" stroke="black" stroke-width="1.0"/>
  <path d="M 717.0252,491.7426 L 709.8322,491.6216 L 709.8322,498.0189 L 717.0252,498.1471 L 717.0252,491.7426 L 724.8157,491.6765" fill="none" stroke="black" stroke-width="1.0"/>
  <path d="M 721.3594,490.4533 L 721.3594,313.2918 L 731.1239,313.3365 L 731.1239,490.3875" fill="none" stroke="black" stroke-width="1.0"/>
  <path d="M 734.1707,491.6127 L 734.1707,498.0095 L 724.8157,498.0771 L 724.8157,491.6765 L 734.1707,491.6127 L 743.5537,491.5642 L 752.9625,491.5311" fill="none" stroke="black" stroke-width="1.0"/>
  <path d="M 752.3021,490.3004 L 752.3021,313.3958 L 767.415,312.7036 L 767.415,491.3183 L 752.3021,490.3004 L 750.7357,490.3033 L 740.9168,490.3375 L 731.1239,490.3875 L 721.3594,490.4533 L 711.6257,490.5349 L 701.9252,490.6323 L 692.2603,490.7456 L 682.6334,490.8748 L 676.8973,490.9616 L 676.8973,312.9461" fill="none" stroke="black" stroke-width="1.0"/>
  <path d="M 676.8973,312.9461 L 682.6334,313.0051" fill="none" stroke="black" stroke-width="1.0"/>
  <path d="M 717.0252,312.415 L 724.8157,312.46 L 724.8157,272.179 L 734.1707,272.2464 L 734.1707,312.5034" fill="none" stroke="black" stroke-width="1.0"/>
  <path d="M 731.1239,313.3365 L 740.9168,313.3705 L 740.9168,490.3375" fill="none" stroke="black" stroke-width="1.0"/>
  <path d="M 743.5537,491.5642 L 743.5537,497.9581 L 734.1707,498.0095" fill="none" stroke="black" stroke-width="1.0"/>
  <path d="M 731.1239,498.0315 L 731.1239,526.2192" fill="none" stroke="black" stroke-width="1.0"/>
  <path d="M 734.1707,527.861 L 743.5537,527.7961" fill="none" stroke="black" stroke-width="1.0"/>
  <path d="M 740.9168,526.1522 L 750.7357,526.1064 L 750.7357,497.9313" fill="none" stroke="black" stroke-width="1.0"/>
  <path d="M 752.9625,497.9229 L 743.5537,497.9581" fill="none" stroke="black" stroke-width="1.0"/>
  <path d="M 740.9168,497.9725 L 740.9168,526.1522 L 731.1239,526.2192 L 721.3594,526.3074" fill="none" stroke="black" stroke-width="1.0"/>
  <path d="M 724.8157,527.9465 L 734.1707,527.861 L 734.1707,547.0513" fill="none" stroke="black" stroke-width="1.0"/>
  <path d="M 724.8157,547.1483 L 724.8157,527.9465 L 717.0252,528.0351" fill="none" stroke="black" stroke-width="1.0"/>
  <path d="M 750.7357,526.1064 L 760.5783,526.0817" fill="none" stroke="black" stroke-width="1.0"/>
  <path d="M 762.3944,527.7277 L 752.9625,527.7516" fill="none" stroke="black" stroke-width="1.0"/>
  <path d="M 780.3253,526.0958 L 780.3253,497.9134" fill="none" stroke="black" stroke-width="1.0"/>
  <path d="M 781.3183,497.9148 L 771.8472,497.9013 L 771.8472,491.5107 L 762.3944,491.5132" fill="none" stroke="black" stroke-width="1.0"/>
  <path d="M 767.415,491.3183 L 770.2915,491.3175" fill="none" stroke="black" stroke-width="1.0"/>
  <path d="M 780.2717,491.3309 L 780.2717,312.695" fill="none" stroke="black" stroke-width="1.0"/>
  <path d="M 781.3183,312.5641 L 781.3183,272.3408 L 771.8472,272.3543" fill="none" stroke="black" stroke-width="1.0"/>
  <path d="M 770.4423,272.3539 L 770.4423,224.971 L 760.5783,224.967" fill="none" stroke="black" stroke-width="1.0"/>
  <path d="M 750.7357,224.939 L 740.9168,224.887" fill="none" stroke="black" stroke-width="1.0"/>
  <path d="M 731.1239,224.811 L 740.9168,224.887 L 740.9168,272.2833" fill="none" stroke="black" stroke-width="1.0"/>
  <path d="M 743.5537,272.2977 L 743.5537,312.5363" fill="none" stroke="black" stroke-width="1.0"/>
  <path d="M 740.9168,313.3705 L 750.7357,313.3938 L 752.3021,313.3958" fill="none" stroke="black" stroke-width="1.0"/>
  <path d="M 752.9625,312.5589 L 752.9625,272.3327 L 762.3944,272.3516" fill="none" stroke="black" stroke-width="1.0"/>
  <path d="M 760.5783,272.348 L 760.5783,224.967 L 750.7357,224.939 L 750.7357,272.3244" fill="none" stroke="black" stroke-width="1.0"/>
  <path d="M 752.9625,272.3327 L 743.5537,272.2977 L 734.1707,272.2464" fill="none" stroke="black" stroke-width="1.0"/>
  <path d="M 731.1239,272.2244 L 731.1239,224.811 L 721.3594,224.711 L 721.3594,272.1479" fill="none" stroke="black" stroke-width="1.0"/>
  <path d="M 724.8157,272.179 L 717.0252,272.109" fill="none" stroke="black" stroke-width="1.0"/>
  <path d="M 721.3594,224.711 L 711.6257,224.587" fill="none" stroke="black" stroke-width="1.0"/>
  <path d="M 770.4423,224.971 L 780.3253,224.951" fill="none" stroke="black" stroke-width="1.0"/>
  <path d="M 790.2251,224.907 L 780.3253,224.951 L 780.3253,272.3422" fill="none" stroke="black" stroke-width="1.0"/>
  <path d="M 781.3183,272.3408 L 783.1875,272.335 L 783.1875,310.0036 L 790.8055,309.9878 L 800.3062,309.9572" fill="none" stroke="black" stroke-width="1.0"/>
  <path d="M 800.3062,312.5155 L 800.3062,309.9572 L 809.8182,309.9159" fill="none" stroke="black" stroke-width="1.0"/>
  <path d="M 800.2805,312.6439 L 790.2688,312.6749 L 790.2688,491.3604" fill="none" stroke="black" stroke-width="1.0"/>
  <path d="M 790.8055,491.5515 L 790.8055,497.9446 L 781.3183,497.9148 L 781.3183,491.5234" fill="none" stroke="black" stroke-width="1.0"/>
  <path d="M 790.2251,497.9428 L 790.2251,526.1346" fill="none" stroke="black" stroke-width="1.0"/>
  <path d="M 790.8055,527.779 L 790.8055,546.9583 L 781.3183,546.9156" fill="none" stroke="black" stroke-width="1.0"/>
  <path d="M 790.8055,546.9583 L 800.3062,547.0242" fill="none" stroke="black" stroke-width="1.0"/>
  <path d="M 800.3062,527.8371 L 809.8182,527.9157 L 819.3389,528.0149" fill="none" stroke="black" stroke-width="1.0"/>
  <path d="M 820.0012,526.3779 L 820.0012,498.1378" fill="none" stroke="black" stroke-width="1.0"/>
  <path d="M 819.3389,498.1312 L 828.8659,498.2259 L 828.8659,491.8169 L 838.3968,491.9215 L 847.9291,492.0416 L 857.4603,492.1771 L 866.9879,492.3279 L 876.5093,492.4942 L 884.4559,492.6461 L 891.7537,492.6025 L 902.9055,492.5184" fill="none" stroke="black" stroke-width="1.0"/>
  <path d="M 899.5512,491.6885 L 889.6242,491.4848" fill="none" stroke="black" stroke-width="1.0"/>
  <path d="M 891.7537,492.6025 L 891.7537,499.0587 L 902.9055,498.9695" fill="none" stroke="black" stroke-width="1.0"/>
  <path d="M 899.5512,498.9963 L 899.5512,527.9626 L 889.6242,527.6897 L 879.6874,527.4382 L 869.7434,527.2082 L 869.7434,498.8186" fill="none" stroke="black" stroke-width="1.0"/>
  <path d="M 866.9879,498.7676 L 876.5093,498.9439 L 876.5093,492.4942" fill="none" stroke="black" stroke-width="1.0"/>
  <path d="M 879.6874,491.2972 L 869.7434,491.1255" fill="none" stroke="black" stroke-width="1.0"/>
  <path d="M 866.9879,492.3279 L 866.9879,498.7676 L 857.4603,498.6077 L 857.4603,492.1771" fill="none" stroke="black" stroke-width="1.0"/>
  <path d="M 859.7946,490.9698 L 849.8435,490.83 L 848.2586,490.8103" fill="none" stroke="black" stroke-width="1.0"/>
  <path d="M 847.9291,492.0416 L 847.9291,498.4641 L 857.4603,498.6077" fill="none" stroke="black" stroke-width="1.0"/>
  <path d="M 859.7946,498.6469 L 859.7946,526.9995 L 869.7434,527.2082" fill="none" stroke="black" stroke-width="1.0"/>
  <path d="M 866.9879,528.8194 L 857.4603,528.6173 L 857.4603,547.9091 L 866.9879,548.1385 L 866.9879,528.8194 L 876.5093,529.0423 L 876.5093,548.3913 L 884.4559,548.6221 L 884.4559,529.2458 L 891.7537,529.1874 L 902.9055,529.0747" fill="none" stroke="black" stroke-width="1.0"/>
  <path d="M 899.5512,527.9626 L 909.4658,528.2571 L 909.4658,498.9059" fill="none" stroke="black" stroke-width="1.0"/>
  <path d="M 919.3654,492.1441 L 925.2759,492.2949 L 925.2759,312.0395 L 919.3654,312.142" fill="none" stroke="black" stroke-width="1.0"/>
  <path d="M 866.9879,312.017 L 866.9879,271.49 L 876.5093,271.3141" fill="none" stroke="black" stroke-width="1.0"/>
  <path d="M 839.8927,271.8998 L 839.8927,224.3267 L 849.8435,224.1384" fill="none" stroke="black" stroke-width="1.0"/>
  <path d="M 839.8927,224.3267 L 829.9444,224.4909" fill="none" stroke="black" stroke-width="1.0"/>
  <path d="M 820.0012,224.631 L 829.9444,224.4909 L 829.9444,272.018" fill="none" stroke="black" stroke-width="1.0"/>
  <path d="M 828.8659,272.0305 L 838.3968,271.9198" fill="none" stroke="black" stroke-width="1.0"/>
  <path d="M 817.0966,273.4405 L 817.0966,268.5461" fill="none" stroke="black" stroke-width="1.0"/>
  <path d="M 817.0966,268.5461 L 810.0653,268.6057 L 800.1392,268.6726 L 800.1392,224.839 L 790.2251,224.907 L 790.2251,268.7219 L 783.2173,268.7445 L 783.2173,273.6306" fill="none" stroke="black" stroke-width="1.0"/>
  <path d="M 783.1875,274.7519 L 816.8409,274.5649" fill="none" stroke="black" stroke-width="1.0"/>
  <path d="M 800.1392,268.6726 L 790.2251,268.7219" fill="none" stroke="black" stroke-width="1.0"/>
  <path d="M 790.8055,309.9878 L 790.8055,312.545" fill="none" stroke="black" stroke-width="1.0"/>
  <path d="M 790.2688,312.6749 L 780.2717,312.695 L 770.2915,312.7041" fill="none" stroke="black" stroke-width="1.0"/>
  <path d="M 899.5512,222.8335 L 909.4658,222.4994" fill="none" stroke="black" stroke-width="1.0"/>
  <path d="M 884.4559,492.6461 L 884.4559,499.1049 L 891.7537,499.0587" fill="none" stroke="black" stroke-width="1.0"/>
  <path d="M 889.6242,499.0722 L 889.6242,527.6897" fill="none" stroke="black" stroke-width="1.0"/>
  <path d="M 891.7537,529.1874 L 891.7537,548.5559 L 902.9055,548.428" fill="none" stroke="black" stroke-width="1.0"/>
  <path d="M 891.7537,548.5559 L 884.4559,548.6221" fill="none" stroke="black" stroke-width="1.0"/>
  <path d="M 876.5093,548.3913 L 866.9879,548.1385" fill="none" stroke="black" stroke-width="1.0"/>
  <path d="M 857.4603,547.9091 L 847.9291,547.7032 L 847.9291,528.4358 L 857.4603,528.6173" fill="none" stroke="black" stroke-width="1.0"/>
  <path d="M 859.7946,526.9995 L 849.8435,526.8122 L 849.8435,498.4929" fill="none" stroke="black" stroke-width="1.0"/>
  <path d="M 847.9291,498.4641 L 838.3968,498.3368 L 838.3968,491.9215" fill="none" stroke="black" stroke-width="1.0"/>
  <path d="M 838.3968,498.3368 L 828.8659,498.2259" fill="none" stroke="black" stroke-width="1.0"/>
  <path d="M 829.9444,498.2384 L 829.9444,526.5015 L 839.8927,526.6462 L 839.8927,498.3568" fill="none" stroke="black" stroke-width="1.0"/>
  <path d="M 839.8927,526.6462 L 849.8435,526.8122" fill="none" stroke="black" stroke-width="1.0"/>
  <path d="M 847.9291,528.4358 L 838.3968,528.2749 L 838.3968,547.5208 L 847.9291,547.7032" fill="none" stroke="black" stroke-width="1.0"/>
  <path d="M 838.3968,547.5208 L 828.8659,547.3616" fill="none" stroke="black" stroke-width="1.0"/>
  <path d="M 828.8659,528.1346 L 838.3968,528.2749" fill="none" stroke="black" stroke-width="1.0"/>
  <path d="M 876.5093,529.0423 L 884.4559,529.2458" fill="none" stroke="black" stroke-width="1.0"/>
  <path d="M 879.6874,527.4382 L 879.6874,499.0083" fill="none" stroke="black" stroke-width="1.0"/>
  <path d="M 876.5093,498.9439 L 884.4559,499.1049" fill="none" stroke="black" stroke-width="1.0"/>
  <path d="M 925.2759,498.7326 L 925.2759,528.7752 L 919.3654,528.5732" fill="none" stroke="black" stroke-width="1.0"/>
  <path d="M 800.1392,526.1945 L 800.1392,497.9897" fill="none" stroke="black" stroke-width="1.0"/>
  <path d="M 800.3062,497.9905 L 790.8055,497.9446" fill="none" stroke="black" stroke-width="1.0"/>
  <path d="M 711.6257,490.5349 L 711.6257,313.2363 L 701.9252,313.17 L 701.9252,490.6323" fill="none" stroke="black" stroke-width="1.0"/>
  <path d="M 698.8563,491.4196 L 698.8563,497.8048 L 687.9957,497.5745 L 677.261,497.3283 L 677.261,490.9701 L 687.9957,491.2023 L 698.8563,491.4196 L 709.8322,491.6216" fill="none" stroke="black" stroke-width="1.0"/>
  <path d="M 517.831,273.582 L 508.884,273.7204" fill="none" stroke="black" stroke-width="1.0"/>
  <path d="M 514.5393,273.633 L 514.5393,226.847" fill="none" stroke="black" stroke-width="1.0"/>
  <path d="M 467.1042,227.5243 L 457.4952,227.59 L 457.4952,274.2057" fill="none" stroke="black" stroke-width="1.0"/>
  <path d="M 457.4952,227.59 L 447.8513,227.6325" fill="none" stroke="black" stroke-width="1.0"/>
</svg>
