<?xml version="1.0" encoding="utf-8" ?>
<svg xmlns="http://www.w3.org/2000/svg" xmlns:ev="http://www.w3.org/2001/xml-events" xmlns:xlink="http://www.w3.org/1999/xlink" baseProfile="full" height="1050px" version="1.1" width="1270px">
  <defs/>
  <path d="M 88.9226,250.2137 L 93.3916,291.2128" fill="none" stroke="black" stroke-width="1.0"/>
  <path d="M 93.3916,291.2128 L 166.2751,959.8525 L 180.5345,985.5164 L 112.2855,343.6026 L 129.8731,358.2288" fill="none" stroke="black" stroke-width="1.0"/>
  <path d="M 176.3357,352.4174 L 232.9308,957.9671 L 244.9039,977.2949 L 187.8546,350.9767" fill="none" stroke="black" stroke-width="1.0"/>
  <path d="M 121.0154,272.2737 L 88.9226,250.2137 L 355.3283,224.9892 L 400.4026,243.9201 L 121.0154,272.2737 L 129.8731,358.2288 L 404.1443,323.924 L 400.4026,243.9201" fill="none" stroke="black" stroke-width="1.0"/>
  <path d="M 380.5468,326.8755 L 410.9594,916.4862 L 375.1467,927.2149" fill="none" stroke="black" stroke-width="1.0"/>
  <path d="M 337.6532,827.5278 L 306.6241,789.6418 L 262.8671,800.7767" fill="none" stroke="black" stroke-width="1.0"/>
  <path d="M 306.6241,789.6418 L 283.4606,474.3064" fill="none" stroke="black" stroke-width="1.0"/>
  <path d="M 339.4502,332.0157 L 375.7746,937.683 L 244.9039,977.2949" fill="none" stroke="black" stroke-width="1.0"/>
  <path d="M 239.1239,967.9643 L 180.5345,985.5164" fill="none" stroke="black" stroke-width="1.0"/>
  <path d="M 266.6847,846.5224 L 337.6532,827.5278 L 313.627,469.3765 L 236.2659,482.019 L 266.6847,846.5224" fill="none" stroke="black" stroke-width="1.0"/>
  <path d="M 600.1078,744.9124 L 645.9843,750.6198" fill="none" stroke="black" stroke-width="1.0"/>
  <path d="M 706.3287,740.6672 L 705.5234,791.69 L 712.677,787.5316" fill="none" stroke="black" stroke-width="1.0"/>
  <path d="M 706.2339,791.6023 L 726.7649,788.8044 L 726.1058,820.9183 L 705.7206,823.7961 L 706.2339,791.6023" fill="none" stroke="black" stroke-width="1.0"/>
  <path d="M 726.7649,788.8044 L 746.993,785.7827" fill="none" stroke="black" stroke-width="1.0"/>
  <path d="M 737.235,774.3895 L 738.0994,736.4658" fill="none" stroke="black" stroke-width="1.0"/>
  <path d="M 748.2633,735.0339 L 727.8093,737.9154 L 707.0472,740.5836" fill="none" stroke="black" stroke-width="1.0"/>
  <path d="M 707.0472,740.5836 L 707.2239,729.4991 L 728.0362,726.8595 L 748.5393,724.0091" fill="none" stroke="black" stroke-width="1.0"/>
  <path d="M 750.6522,734.6673 L 749.7951,768.2051" fill="none" stroke="black" stroke-width="1.0"/>
  <path d="M 762.5352,762.2722 L 775.4505,756.5862 L 776.2599,730.6348" fill="none" stroke="black" stroke-width="1.0"/>
  <path d="M 781.2382,729.8063 L 791.4168,725.1978 L 803.7945,719.9043 L 816.3502,714.835" fill="none" stroke="black" stroke-width="1.0"/>
  <path d="M 816.243,714.8783 L 815.2026,740.9679" fill="none" stroke="black" stroke-width="1.0"/>
  <path d="M 801.7884,745.9381 L 802.7336,720.3581" fill="none" stroke="black" stroke-width="1.0"/>
  <path d="M 803.7945,719.9043 L 804.1983,709.0429" fill="none" stroke="black" stroke-width="1.0"/>
  <path d="M 791.7935,714.279 L 791.4168,725.1978" fill="none" stroke="black" stroke-width="1.0"/>
  <path d="M 789.3886,726.1161 L 788.5364,751.1429" fill="none" stroke="black" stroke-width="1.0"/>
  <path d="M 775.4505,756.5862 L 788.5364,751.1429 L 801.7884,745.9381 L 815.2026,740.9679 L 828.7753,736.2285 L 842.5029,731.7163 L 856.3823,727.4279 L 857.7178,700.085" fill="none" stroke="black" stroke-width="1.0"/>
  <path d="M 855.0418,700.9363 L 855.556,690.2818" fill="none" stroke="black" stroke-width="1.0"/>
  <path d="M 849.8775,688.8399 L 863.871,684.4642 L 878.0222,680.3066 L 878.6519,668.4398 L 868.6273,671.3409 L 884.079,367.8562" fill="none" stroke="black" stroke-width="1.0"/>
  <path d="M 885.0886,367.6661 L 870.999,370.3201" fill="none" stroke="black" stroke-width="1.0"/>
  <path d="M 864.7919,371.5636 L 849.8775,688.8399 L 845.8993,690.1622" fill="none" stroke="black" stroke-width="1.0"/>
  <path d="M 842.4643,694.6515 L 841.978,705.3544 L 855.0418,700.9363 L 868.2673,696.7289 L 868.8096,686.1205" fill="none" stroke="black" stroke-width="1.0"/>
  <path d="M 863.871,684.4642 L 879.6664,368.6874" fill="none" stroke="black" stroke-width="1.0"/>
  <path d="M 860.5637,372.4106 L 845.8993,690.1622 L 806.1578,685.6987 L 803.9865,686.4475 L 790.5724,691.3514 L 777.3251,696.4809 L 764.2488,701.84 L 751.3482,707.4329 L 738.6282,713.2639 L 726.0941,719.3376 L 713.7516,725.6588 L 706.5037,729.5818 L 711.7768,395.4824" fill="none" stroke="black" stroke-width="1.0"/>
  <path d="M 719.4961,394.9016 L 713.7516,725.6588" fill="none" stroke="black" stroke-width="1.0"/>
  <path d="M 726.0941,719.3376 L 732.6229,393.9046" fill="none" stroke="black" stroke-width="1.0"/>
  <path d="M 734.8732,393.7337 L 736.5505,312.0076" fill="none" stroke="black" stroke-width="1.0"/>
  <path d="M 734.3482,307.9087 L 720.9472,311.3528" fill="none" stroke="black" stroke-width="1.0"/>
  <path d="M 747.9423,304.604 L 750.2706,202.449" fill="none" stroke="black" stroke-width="1.0"/>
  <path d="M 736.4132,204.9754 L 734.3482,307.9087 L 747.9423,304.604 L 761.7242,301.4355 L 764.3158,200.0275" fill="none" stroke="black" stroke-width="1.0"/>
  <path d="M 762.0254,188.398 L 762.0677,186.7086" fill="none" stroke="black" stroke-width="1.0"/>
  <path d="M 770.6945,187.5717 L 770.7395,185.8869" fill="none" stroke="black" stroke-width="1.0"/>
  <path d="M 772.7908,177.539 L 772.9246,172.6037" fill="none" stroke="black" stroke-width="1.0"/>
  <path d="M 769.2796,173.5855 L 772.9246,172.6037 L 779.0159,171.8367 L 788.4395,171.3003 L 797.4816,171.4297 L 806.208,172.2268 L 799.4375,173.157 L 794.1754,172.6774 L 788.8664,172.5869 L 783.4879,172.8848 L 779.6683,173.3916 L 777.5393,174.0658" fill="none" stroke="black" stroke-width="1.0"/>
  <path d="M 777.1094,174.9098 L 778.4174,175.9076 L 781.5083,177.0431 L 786.4083,178.3194 L 786.3336,180.8255" fill="none" stroke="black" stroke-width="1.0"/>
  <path d="M 788.208,181.1488 L 788.342,176.7068 L 786.9813,177.2088" fill="none" stroke="black" stroke-width="1.0"/>
  <path d="M 786.3303,177.9211 L 785.1443,177.9902" fill="none" stroke="black" stroke-width="1.0"/>
  <path d="M 788.342,176.7068 L 790.357,176.2497" fill="none" stroke="black" stroke-width="1.0"/>
  <path d="M 791.6734,178.1067 L 792.9907,177.5602" fill="none" stroke="black" stroke-width="1.0"/>
  <path d="M 792.9907,177.5602 L 795.3228,177.0902 L 798.6666,176.6962" fill="none" stroke="black" stroke-width="1.0"/>
  <path d="M 796.1239,176.9958 L 796.1714,175.4975 L 802.1239,175.0877 L 808.1212,174.9505 L 814.1806,175.0851 L 820.0118,175.4774 L 825.3197,176.1148 L 830.1146,177.0005 L 834.0907,178.0798 L 836.1705,179.1273" fill="none" stroke="black" stroke-width="1.0"/>
  <path d="M 836.3319,180.1423 L 834.571,181.0802 L 830.8882,181.8958 L 825.2721,182.5869 L 817.8169,183.084 L 810.1898,183.169" fill="none" stroke="black" stroke-width="1.0"/>
  <path d="M 811.7053,183.1521 L 811.7522,181.8042" fill="none" stroke="black" stroke-width="1.0"/>
  <path d="M 813.7524,181.675 L 807.8968,181.5418" fill="none" stroke="black" stroke-width="1.0"/>
  <path d="M 807.112,181.6225 L 802.5345,181.2419 L 798.3729,180.685 L 794.6324,179.954 L 792.4446,179.3176 L 792.3687,181.7666" fill="none" stroke="black" stroke-width="1.0"/>
  <path d="M 790.1982,181.4443 L 790.357,176.2497 L 792.9671,175.8467" fill="none" stroke="black" stroke-width="1.0"/>
  <path d="M 794.6324,179.954 L 794.5652,182.0928" fill="none" stroke="black" stroke-width="1.0"/>
  <path d="M 794.6833,182.1103 L 802.4237,182.8413" fill="none" stroke="black" stroke-width="1.0"/>
  <path d="M 802.4817,182.8439 L 802.5345,181.2419" fill="none" stroke="black" stroke-width="1.0"/>
  <path d="M 798.3729,180.685 L 798.316,182.4534" fill="none" stroke="black" stroke-width="1.0"/>
  <path d="M 794.6833,182.1103 L 787.1314,180.989 L 779.7973,179.4865 L 773.3066,177.7469 L 769.4238,176.1821 L 768.0989,174.7866" fill="none" stroke="black" stroke-width="1.0"/>
  <path d="M 778.4174,175.9076 L 778.3276,179.0926" fill="none" stroke="black" stroke-width="1.0"/>
  <path d="M 781.4282,179.8206 L 781.5083,177.0431" fill="none" stroke="black" stroke-width="1.0"/>
  <path d="M 788.3999,172.6128 L 788.4395,171.3003" fill="none" stroke="black" stroke-width="1.0"/>
  <path d="M 797.4816,171.4297 L 797.4323,172.9742" fill="none" stroke="black" stroke-width="1.0"/>
  <path d="M 802.1239,175.0877 L 802.0736,176.6192" fill="none" stroke="black" stroke-width="1.0"/>
  <path d="M 808.069,176.4837 L 808.1212,174.9505" fill="none" stroke="black" stroke-width="1.0"/>
  <path d="M 810.9046,176.4197 L 814.8589,176.7064 L 818.5716,177.1792 L 822.0487,177.84 L 824.802,178.5789 L 826.3323,179.2838" fill="none" stroke="black" stroke-width="1.0"/>
  <path d="M 825.2202,178.7716 L 825.3197,176.1148" fill="none" stroke="black" stroke-width="1.0"/>
  <path d="M 825.6239,172.7243 L 827.6227,170.8817 L 820.0416,171.5735 L 821.6179,171.8742 L 824.1947,172.4135 L 827.7849,173.1943 L 856.1179,179.4298 L 864.2206,178.6575 L 843.1472,174.0615 L 840.226,173.3211 L 838.5079,172.6375" fill="none" stroke="black" stroke-width="1.0"/>
  <path d="M 838.4638,172.5849 L 838.3465,175.5187" fill="none" stroke="black" stroke-width="1.0"/>
  <path d="M 834.6439,174.7038 L 834.81,170.4714 L 836.3726,170.0787 L 838.5781,169.7274" fill="none" stroke="black" stroke-width="1.0"/>
  <path d="M 838.6072,171.4586 L 840.3386,171.004 L 843.1734,170.6451" fill="none" stroke="black" stroke-width="1.0"/>
  <path d="M 844.8919,170.653 L 844.9539,169.1485 L 841.425,169.4173" fill="none" stroke="black" stroke-width="1.0"/>
  <path d="M 844.9539,169.1485 L 848.3292,169.0019 L 851.5555,168.9769 L 854.7092,169.0768 L 854.6392,170.6976" fill="none" stroke="black" stroke-width="1.0"/>
  <path d="M 854.6936,170.6978 L 857.7131,171.1493 L 861.038,171.7941 L 884.261,176.7474 L 892.1659,175.9939 L 870.8362,171.484 L 867.8446,170.7545 L 866.0471,170.0844 L 865.9222,172.8359" fill="none" stroke="black" stroke-width="1.0"/>
  <path d="M 863.2829,172.2729 L 863.4921,167.6094 L 865.7475,167.2451 L 868.6687,166.9253 L 873.2805,166.6007 L 877.6796,166.4899 L 881.8769,166.5925 L 886.046,166.9212 L 890.3622,167.4903 L 894.8377,168.3028 L 919.5857,173.3805 L 911.8294,174.1198 L 888.3363,169.2585 L 884.9785,168.6256 L 881.9423,168.1824 L 879.2198,167.9273 L 876.5429,167.8421" fill="none" stroke="black" stroke-width="1.0"/>
  <path d="M 873.6457,167.9098 L 870.523,168.1307 L 867.6828,168.4886" fill="none" stroke="black" stroke-width="1.0"/>
  <path d="M 865.7475,167.2451 L 865.6374,169.6758" fill="none" stroke="black" stroke-width="1.0"/>
  <path d="M 863.4921,167.6094 L 861.9042,168.0187" fill="none" stroke="black" stroke-width="1.0"/>
  <path d="M 860.9851,168.4876 L 860.9334,169.6511" fill="none" stroke="black" stroke-width="1.0"/>
  <path d="M 861.0362,169.6627 L 857.8662,169.3053 L 857.7848,171.1632" fill="none" stroke="black" stroke-width="1.0"/>
  <path d="M 859.9503,171.5832 L 861.0362,169.6627" fill="none" stroke="black" stroke-width="1.0"/>
  <path d="M 851.5555,168.9769 L 851.483,170.6832" fill="none" stroke="black" stroke-width="1.0"/>
  <path d="M 848.2593,170.6684 L 848.3292,169.0019" fill="none" stroke="black" stroke-width="1.0"/>
  <path d="M 843.1472,174.0615 L 843.0452,176.5528" fill="none" stroke="black" stroke-width="1.0"/>
  <path d="M 834.0907,178.0798 L 833.9679,181.2138" fill="none" stroke="black" stroke-width="1.0"/>
  <path d="M 829.9221,182.0147 L 830.1146,177.0005" fill="none" stroke="black" stroke-width="1.0"/>
  <path d="M 830.2325,173.733 L 830.3217,171.4091" fill="none" stroke="black" stroke-width="1.0"/>
  <path d="M 832.3825,171.8281 L 832.291,174.186" fill="none" stroke="black" stroke-width="1.0"/>
  <path d="M 833.8565,172.1319 L 833.9034,170.9326" fill="none" stroke="black" stroke-width="1.0"/>
  <path d="M 825.6961,180.5624 L 823.5348,181.0801 L 820.1413,181.5066" fill="none" stroke="black" stroke-width="1.0"/>
  <path d="M 820.0893,182.9324 L 820.1413,181.5066 L 816.0986,181.7655 L 811.7522,181.8042 L 807.112,181.6225 L 807.0635,183.0542" fill="none" stroke="black" stroke-width="1.0"/>
  <path d="M 814.0508,181.6865 L 815.3015,181.7726" fill="none" stroke="black" stroke-width="1.0"/>
  <path d="M 816.0986,181.7655 L 816.0509,183.1036" fill="none" stroke="black" stroke-width="1.0"/>
  <path d="M 814.1254,176.6532 L 814.1806,175.0851" fill="none" stroke="black" stroke-width="1.0"/>
  <path d="M 820.0118,175.4774 L 819.9404,177.4393" fill="none" stroke="black" stroke-width="1.0"/>
  <path d="M 823.5348,181.0801 L 823.4744,182.7068" fill="none" stroke="black" stroke-width="1.0"/>
  <path d="M 825.6217,182.5439 L 825.6961,180.5624" fill="none" stroke="black" stroke-width="1.0"/>
  <path d="M 822.28,191.3447 L 837.1967,189.4142 L 852.2769,187.576 L 867.5176,185.8283 L 882.9166,184.1694 L 898.4715,182.5977 L 914.1804,181.1117 L 930.0416,179.71 L 946.0538,178.3913 L 962.2159,177.1544 L 978.5269,175.9981 L 994.9862,174.9214 L 1011.5934,173.9231 L 1028.3481,173.0024 L 1045.2505,172.1585 L 1062.3006,171.3905 L 1079.4989,170.6978 L 1096.8459,170.0797 L 1107.3293,169.7537 L 1111.6368,168.8548 L 1042.5464,156.6558 L 975.298,154.2548 L 980.3528,145.6744 L 970.4464,143.9253 L 587.5749,177.1017 L 592.8165,738.8799 L 600.1078,744.9124 L 595.7372,179.3562 L 665.7301,182.2527 L 647.3411,193.6096 L 645.9059,782.8034 L 696.8274,824.9332 L 705.4048,209.6472 L 714.7162,209.2462 L 722.749,207.6093 L 736.4132,204.9754 L 750.2706,202.449 L 764.3158,200.0275 L 778.5438,197.7085 L 792.9499,195.4898 L 807.5299,193.3692 L 822.28,191.3447 L 818.6324,290.0657" fill="none" stroke="black" stroke-width="1.0"/>
  <path d="M 819.3202,302.3099 L 832.9185,299.5875 L 829.7459,379.1018" fill="none" stroke="black" stroke-width="1.0"/>
  <path d="M 817.5203,382.0291 L 806.1578,685.6987" fill="none" stroke="black" stroke-width="1.0"/>
  <path d="M 803.9865,686.4475 L 815.2134,382.5976" fill="none" stroke="black" stroke-width="1.0"/>
  <path d="M 816.3458,382.3103 L 819.3202,302.3099 L 805.9052,305.156 L 803.1283,385.6638 L 816.3458,382.3103 L 829.7459,379.1018 L 843.3241,376.0357 L 857.0763,373.1092" fill="none" stroke="black" stroke-width="1.0"/>
  <path d="M 843.3241,376.0357 L 846.6959,296.9864 L 860.6484,294.5043 L 874.7724,292.1392" fill="none" stroke="black" stroke-width="1.0"/>
  <path d="M 878.2037,280.6601 L 893.4898,278.5987" fill="none" stroke="black" stroke-width="1.0"/>
  <path d="M 889.0644,289.889 L 903.5216,287.7517 L 899.6562,359.3269" fill="none" stroke="black" stroke-width="1.0"/>
  <path d="M 897.9176,359.6306 L 882.9497,638.6056 L 917.8623,658.3987 L 907.4842,660.8633 L 906.7869,672.6332 L 921.3954,669.1112 L 936.1517,665.7951" fill="none" stroke="black" stroke-width="1.0"/>
  <path d="M 937.394,668.34 L 936.7084,678.75 L 922.7211,681.9468 L 908.8807,685.3406 L 895.1898,688.9338 L 881.6511,692.729 L 882.2216,682.1645" fill="none" stroke="black" stroke-width="1.0"/>
  <path d="M 878.0222,680.3066 L 892.3284,676.364 L 892.9918,664.5469 L 907.4842,660.8633" fill="none" stroke="black" stroke-width="1.0"/>
  <path d="M 917.8623,658.3987 L 936.3594,357.4898 L 940.1663,358.7766 L 940.5241,353.0306 L 928.6744,354.727 L 914.086,356.9633" fill="none" stroke="black" stroke-width="1.0"/>
  <path d="M 928.6744,354.727 L 932.9202,283.8089" fill="none" stroke="black" stroke-width="1.0"/>
  <path d="M 924.5186,274.8101 L 940.2578,273.0796 L 956.1451,271.456 L 962.2159,177.1544" fill="none" stroke="black" stroke-width="1.0"/>
  <path d="M 966.3078,163.7105 L 966.4411,161.6606" fill="none" stroke="black" stroke-width="1.0"/>
  <path d="M 961.8653,160.8875 L 961.7403,162.8366" fill="none" stroke="black" stroke-width="1.0"/>
  <path d="M 957.3994,162.0539 L 957.5075,160.3459 L 961.8653,160.8875 L 966.4411,161.6606 L 991.8806,166.4898 L 984.5077,167.1926 L 960.3465,162.5699 L 956.9075,161.9677 L 953.831,161.5461 L 951.1091,161.3033 L 948.4757,161.2222 L 945.667,161.2867" fill="none" stroke="black" stroke-width="1.0"/>
  <path d="M 945.667,161.2867 L 942.6785,161.4969 L 940.0012,161.8374" fill="none" stroke="black" stroke-width="1.0"/>
  <path d="M 940.47,161.7778 L 940.5556,160.3498" fill="none" stroke="black" stroke-width="1.0"/>
  <path d="M 937.7892,160.6541 L 937.4959,165.5942" fill="none" stroke="black" stroke-width="1.0"/>
  <path d="M 938.6744,165.826 L 938.8216,163.3556 L 940.7492,163.9929" fill="none" stroke="black" stroke-width="1.0"/>
  <path d="M 940.6163,166.2081 L 940.7492,163.9929 L 943.8565,164.6867 L 965.8207,168.9737 L 958.3102,169.6895 L 934.3825,164.9816 L 930.9718,164.3684 L 927.9091,163.939 L 925.1866,163.6918 L 922.5374,163.6093 L 919.697,163.6749 L 916.6604,163.8889 L 913.99,164.2302 L 912.4211,164.6626" fill="none" stroke="black" stroke-width="1.0"/>
  <path d="M 914.5537,164.1582 L 914.6325,162.721" fill="none" stroke="black" stroke-width="1.0"/>
  <path d="M 918.0039,162.4653 L 921.2576,162.3258" fill="none" stroke="black" stroke-width="1.0"/>
  <path d="M 917.5316,167.1372 L 917.4079,169.3674" fill="none" stroke="black" stroke-width="1.0"/>
  <path d="M 912.4932,168.372 L 912.6342,165.7835 L 914.4891,166.4334 L 917.5316,167.1372 L 939.2741,171.5039" fill="none" stroke="black" stroke-width="1.0"/>
  <path d="M 939.2741,171.5039 L 931.5793,172.2373 L 902.3255,166.3129 L 898.6188,165.5706 L 895.9635,165.0577 L 894.3468,164.7718 L 901.557,164.1139 L 901.4486,166.1373" fill="none" stroke="black" stroke-width="1.0"/>
  <path d="M 904.2183,166.6962 L 904.3283,164.6155" fill="none" stroke="black" stroke-width="1.0"/>
  <path d="M 906.4483,165.0139 L 906.3358,167.1251" fill="none" stroke="black" stroke-width="1.0"/>
  <path d="M 908.2549,167.5137 L 908.4583,163.7237" fill="none" stroke="black" stroke-width="1.0"/>
  <path d="M 908.4583,163.7237 L 909.8788,163.3502 L 911.9374,163.016 L 911.6556,168.2024" fill="none" stroke="black" stroke-width="1.0"/>
  <path d="M 908.089,165.3262 L 906.4483,165.0139" fill="none" stroke="black" stroke-width="1.0"/>
  <path d="M 894.8377,168.3028 L 894.7215,170.5798" fill="none" stroke="black" stroke-width="1.0"/>
  <path d="M 890.2536,169.6553 L 890.3622,167.4903" fill="none" stroke="black" stroke-width="1.0"/>
  <path d="M 886.046,166.9212 L 885.953,168.8093" fill="none" stroke="black" stroke-width="1.0"/>
  <path d="M 881.8005,168.1691 L 881.8769,166.5925" fill="none" stroke="black" stroke-width="1.0"/>
  <path d="M 873.2805,166.6007 L 873.2178,167.9401" fill="none" stroke="black" stroke-width="1.0"/>
  <path d="M 870.8362,171.484 L 870.726,173.8605" fill="none" stroke="black" stroke-width="1.0"/>
  <path d="M 867.5176,185.8283 L 863.0724,282.8355" fill="none" stroke="black" stroke-width="1.0"/>
  <path d="M 860.6484,294.5043 L 857.0763,373.1092 L 870.999,370.3201 L 874.7724,292.1392 L 889.0644,289.889 L 885.0886,367.6661 L 887.9096,367.167 L 888.2115,361.3264 L 899.6562,359.3269 L 914.086,356.9633 L 918.141,285.7256 L 932.9202,283.8089 L 947.8571,282.0 L 943.0581,358.3574 L 957.941,356.3476 L 972.9761,354.4612 L 978.1959,278.6995 L 962.9495,280.2973 L 947.8571,282.0" fill="none" stroke="black" stroke-width="1.0"/>
  <path d="M 940.2578,273.0796 L 946.0538,178.3913" fill="none" stroke="black" stroke-width="1.0"/>
  <path d="M 943.7271,166.8202 L 943.8565,164.6867" fill="none" stroke="black" stroke-width="1.0"/>
  <path d="M 944.8913,161.3412 L 944.9704,160.0408 L 940.5556,160.3498 L 937.7892,160.6541 L 935.6841,161.0008 L 935.4371,165.1891" fill="none" stroke="black" stroke-width="1.0"/>
  <path d="M 933.7112,164.8609 L 933.8244,162.9544 L 930.6392,162.6145" fill="none" stroke="black" stroke-width="1.0"/>
  <path d="M 930.6392,162.6145 L 930.541,164.308" fill="none" stroke="black" stroke-width="1.0"/>
  <path d="M 927.4143,163.8941 L 927.5002,162.397" fill="none" stroke="black" stroke-width="1.0"/>
  <path d="M 934.2419,161.3903 L 935.6841,161.0008" fill="none" stroke="black" stroke-width="1.0"/>
  <path d="M 949.2334,159.9354 L 953.3549,160.033 L 953.2636,161.4955" fill="none" stroke="black" stroke-width="1.0"/>
  <path d="M 979.7627,154.4142 L 980.3528,145.6744" fill="none" stroke="black" stroke-width="1.0"/>
  <path d="M 978.5269,175.9981 L 972.1794,269.9381 L 956.1451,271.456" fill="none" stroke="black" stroke-width="1.0"/>
  <path d="M 962.9495,280.2973 L 957.941,356.3476" fill="none" stroke="black" stroke-width="1.0"/>
  <path d="M 956.4228,356.5526 L 936.1517,665.7951 L 940.4679,664.8936 L 944.1973,649.5074 L 963.908,355.5989" fill="none" stroke="black" stroke-width="1.0"/>
  <path d="M 966.4124,355.2847 L 946.562,649.0584 L 961.6074,646.4206 L 982.3532,353.3717" fill="none" stroke="black" stroke-width="1.0"/>
  <path d="M 988.1617,352.6968 L 993.5946,277.2051 L 978.1959,278.6995" fill="none" stroke="black" stroke-width="1.0"/>
  <path d="M 972.1794,269.9381 L 988.3598,268.5243 L 994.9862,174.9214" fill="none" stroke="black" stroke-width="1.0"/>
  <path d="M 1011.5934,173.9231 L 1004.6858,267.2134 L 1021.1568,266.0043 L 1037.7727,264.8958 L 1054.5335,263.887 L 1071.4392,262.9769 L 1088.4903,262.1648 L 1098.794,261.7365 L 1107.3293,169.7537" fill="none" stroke="black" stroke-width="1.0"/>
  <path d="M 1111.6368,168.8548 L 1060.3449,716.7214 L 1056.0049,719.3533 L 1058.7134,690.1417 L 1048.0896,695.9876 L 1045.4296,725.3756 L 1056.0049,719.3533" fill="none" stroke="black" stroke-width="1.0"/>
  <path d="M 1045.4296,725.3756 L 1034.3017,731.3339 L 1036.9082,701.7718 L 1025.1702,707.4864 L 1017.2047,711.1389 L 1014.6973,740.9816 L 1022.6219,737.2199 L 1025.1702,707.4864" fill="none" stroke="black" stroke-width="1.0"/>
  <path d="M 1017.2047,711.1389 L 1004.928,712.9466 L 990.3768,715.3035 L 988.0335,745.2706 L 1002.4957,742.8433 L 1004.928,712.9466" fill="none" stroke="black" stroke-width="1.0"/>
  <path d="M 990.3768,715.3035 L 975.9617,717.8567 L 961.6843,720.608 L 959.5162,750.733 L 945.4647,753.7718 L 947.5463,723.5592 L 933.5497,726.7124 L 931.5538,757.0185 L 917.7857,760.4753 L 904.1628,764.1447 L 890.6876,768.029 L 877.363,772.131 L 864.1919,776.4535 L 851.1775,780.9996 L 852.6734,750.0077 L 865.7695,745.591 L 864.1919,776.4535" fill="none" stroke="black" stroke-width="1.0"/>
  <path d="M 851.1775,780.9996 L 838.3235,785.7722 L 839.738,754.6449 L 852.6734,750.0077" fill="none" stroke="black" stroke-width="1.0"/>
  <path d="M 839.738,754.6449 L 826.9672,759.5059 L 814.3648,764.594 L 801.9352,769.9128 L 800.7615,801.4835 L 788.5885,807.197 L 789.683,775.466 L 801.9352,769.9128" fill="none" stroke="black" stroke-width="1.0"/>
  <path d="M 789.683,775.466 L 779.6082,780.3 L 778.5794,812.1701 L 765.9525,814.4782 L 746.1914,817.8101 L 746.993,785.7827 L 766.8932,782.5437 L 765.9525,814.4782" fill="none" stroke="black" stroke-width="1.0"/>
  <path d="M 778.5794,812.1701 L 788.5885,807.197" fill="none" stroke="black" stroke-width="1.0"/>
  <path d="M 800.7615,801.4835 L 813.1113,796.0107 L 814.3648,764.594" fill="none" stroke="black" stroke-width="1.0"/>
  <path d="M 826.9672,759.5059 L 825.6334,790.7748 L 813.1113,796.0107" fill="none" stroke="black" stroke-width="1.0"/>
  <path d="M 825.6334,790.7748 L 838.3235,785.7722" fill="none" stroke="black" stroke-width="1.0"/>
  <path d="M 877.363,772.131 L 879.0231,741.3917 L 865.7695,745.591" fill="none" stroke="black" stroke-width="1.0"/>
  <path d="M 879.0231,741.3917 L 892.4307,737.4069 L 890.6876,768.029" fill="none" stroke="black" stroke-width="1.0"/>
  <path d="M 904.1628,764.1447 L 905.9895,733.6338 L 919.6967,730.0698 L 917.7857,760.4753" fill="none" stroke="black" stroke-width="1.0"/>
  <path d="M 931.5538,757.0185 L 945.4647,753.7718" fill="none" stroke="black" stroke-width="1.0"/>
  <path d="M 959.5162,750.733 L 973.7064,747.8999 L 988.0335,745.2706" fill="none" stroke="black" stroke-width="1.0"/>
  <path d="M 973.7064,747.8999 L 975.9617,717.8567" fill="none" stroke="black" stroke-width="1.0"/>
  <path d="M 961.6843,720.608 L 947.5463,723.5592" fill="none" stroke="black" stroke-width="1.0"/>
  <path d="M 933.5497,726.7124 L 919.6967,730.0698" fill="none" stroke="black" stroke-width="1.0"/>
  <path d="M 905.9895,733.6338 L 892.4307,737.4069" fill="none" stroke="black" stroke-width="1.0"/>
  <path d="M 884.5851,719.5098 L 870.4106,723.3601 L 856.3823,727.4279" fill="none" stroke="black" stroke-width="1.0"/>
  <path d="M 842.5029,731.7163 L 843.7382,704.7591" fill="none" stroke="black" stroke-width="1.0"/>
  <path d="M 841.978,705.3544 L 829.0794,709.9862 L 816.3502,714.835 L 816.7814,704.0287" fill="none" stroke="black" stroke-width="1.0"/>
  <path d="M 829.5381,699.2327 L 829.0794,709.9862" fill="none" stroke="black" stroke-width="1.0"/>
  <path d="M 829.9122,709.6871 L 828.7753,736.2285" fill="none" stroke="black" stroke-width="1.0"/>
  <path d="M 870.4106,723.3601 L 871.8481,695.6587" fill="none" stroke="black" stroke-width="1.0"/>
  <path d="M 868.2673,696.7289 L 881.6511,692.729" fill="none" stroke="black" stroke-width="1.0"/>
  <path d="M 886.1262,691.4745 L 884.5851,719.5098" fill="none" stroke="black" stroke-width="1.0"/>
  <path d="M 884.5851,719.5098 L 898.9033,715.874 L 913.363,712.4501 L 927.9622,709.2353 L 942.6991,706.2274 L 957.5719,703.4239 L 972.5794,700.8229 L 987.7202,698.4223 L 1002.9933,696.2204 L 1018.3978,694.2154 L 1020.9386,663.9576" fill="none" stroke="black" stroke-width="1.0"/>
  <path d="M 1021.1717,663.9253 L 1022.0325,653.6803 L 1030.0762,650.2432 L 1029.2015,660.4493 L 1021.1717,663.9253 L 1008.7762,665.6457 L 1009.6112,655.3815 L 994.889,657.5999 L 980.3045,660.0031 L 965.8594,662.5929 L 951.5553,665.3712 L 937.394,668.34 L 923.3776,671.5014 L 909.5084,674.8576 L 895.7888,678.4112 L 882.2216,682.1645 L 868.8096,686.1205 L 855.556,690.2818 L 842.4643,694.6515 L 829.5381,699.2327 L 816.7814,704.0287 L 804.1983,709.0429 L 791.7935,714.279 L 781.5922,718.8377 L 781.2382,729.8063 L 768.3837,731.9455 L 768.7075,720.9539 L 748.5393,724.0091 L 748.2633,735.0339 L 768.3837,731.9455" fill="none" stroke="black" stroke-width="1.0"/>
  <path d="M 763.3733,732.7146 L 762.5352,762.2722 L 749.7951,768.2051 L 737.235,774.3895 L 724.8604,780.83 L 712.677,787.5316 L 713.5068,739.7535" fill="none" stroke="black" stroke-width="1.0"/>
  <path d="M 725.716,738.1844 L 724.8604,780.83" fill="none" stroke="black" stroke-width="1.0"/>
  <path d="M 726.1058,820.9183 L 746.1914,817.8101" fill="none" stroke="black" stroke-width="1.0"/>
  <path d="M 766.8932,782.5437 L 779.6082,780.3" fill="none" stroke="black" stroke-width="1.0"/>
  <path d="M 768.7075,720.9539 L 781.5922,718.8377" fill="none" stroke="black" stroke-width="1.0"/>
  <path d="M 777.3251,696.4809 L 786.9112,389.1115" fill="none" stroke="black" stroke-width="1.0"/>
  <path d="M 792.2531,388.586 L 803.1283,385.6638" fill="none" stroke="black" stroke-width="1.0"/>
  <path d="M 800.962,386.2459 L 790.5724,691.3514" fill="none" stroke="black" stroke-width="1.0"/>
  <path d="M 764.2488,701.84 L 773.079,390.4313" fill="none" stroke="black" stroke-width="1.0"/>
  <path d="M 778.4582,389.9432 L 756.8522,391.9037 L 758.8909,310.4535" fill="none" stroke="black" stroke-width="1.0"/>
  <path d="M 758.8909,310.4535 L 780.8488,308.7889 L 778.4582,389.9432 L 792.2531,388.586 L 794.8662,307.6366 L 780.8488,308.7889" fill="none" stroke="black" stroke-width="1.0"/>
  <path d="M 775.6886,298.4001 L 761.7242,301.4355" fill="none" stroke="black" stroke-width="1.0"/>
  <path d="M 758.8909,310.4535 L 736.5505,312.0076 L 713.8565,313.4476 L 712.5496,395.4292 L 734.8732,393.7337 L 756.8522,391.9037" fill="none" stroke="black" stroke-width="1.0"/>
  <path d="M 759.418,391.6709 L 751.3482,707.4329" fill="none" stroke="black" stroke-width="1.0"/>
  <path d="M 738.6282,713.2639 L 745.9319,392.8129" fill="none" stroke="black" stroke-width="1.0"/>
  <path d="M 794.8662,307.6366 L 805.9052,305.156" fill="none" stroke="black" stroke-width="1.0"/>
  <path d="M 804.1468,292.7179 L 818.6324,290.0657 L 833.2839,287.5361 L 837.1967,189.4142" fill="none" stroke="black" stroke-width="1.0"/>
  <path d="M 852.2769,187.576 L 848.0983,285.1268 L 863.0724,282.8355 L 878.2037,280.6601 L 882.9166,184.1694" fill="none" stroke="black" stroke-width="1.0"/>
  <path d="M 898.4715,182.5977 L 893.4898,278.5987 L 908.9287,276.6492" fill="none" stroke="black" stroke-width="1.0"/>
  <path d="M 903.5216,287.7517 L 918.141,285.7256" fill="none" stroke="black" stroke-width="1.0"/>
  <path d="M 848.0983,285.1268 L 833.2839,287.5361" fill="none" stroke="black" stroke-width="1.0"/>
  <path d="M 832.9185,299.5875 L 846.6959,296.9864" fill="none" stroke="black" stroke-width="1.0"/>
  <path d="M 789.8309,295.4952 L 775.6886,298.4001" fill="none" stroke="black" stroke-width="1.0"/>
  <path d="M 775.6886,298.4001 L 778.5438,197.7085" fill="none" stroke="black" stroke-width="1.0"/>
  <path d="M 786.9863,186.0189 L 787.0365,184.3426" fill="none" stroke="black" stroke-width="1.0"/>
  <path d="M 792.0713,185.5342 L 749.6496,189.5776 L 744.7225,188.3522 L 762.0677,186.7086 L 727.996,178.4064 L 719.8325,181.4943 L 714.6465,180.2076 L 723.4751,177.0689 L 731.2622,176.3645 L 756.0974,182.355 L 770.7395,185.8869 L 787.0365,184.3426 L 792.0713,185.5342" fill="none" stroke="black" stroke-width="1.0"/>
  <path d="M 792.9499,195.4898 L 789.8309,295.4952 L 804.1468,292.7179 L 807.5299,193.3692" fill="none" stroke="black" stroke-width="1.0"/>
  <path d="M 731.2087,179.1893 L 731.2622,176.3645" fill="none" stroke="black" stroke-width="1.0"/>
  <path d="M 723.4751,177.0689 L 723.4217,180.1367" fill="none" stroke="black" stroke-width="1.0"/>
  <path d="M 722.749,207.6093 L 720.9472,311.3528 L 713.0709,313.4927 L 714.7162,209.2462" fill="none" stroke="black" stroke-width="1.0"/>
  <path d="M 705.4048,209.6472 L 647.3411,193.6096" fill="none" stroke="black" stroke-width="1.0"/>
  <path d="M 595.7372,179.3562 L 587.5749,177.1017" fill="none" stroke="black" stroke-width="1.0"/>
  <path d="M 914.1804,181.1117 L 908.9287,276.6492 L 924.5186,274.8101 L 930.0416,179.71" fill="none" stroke="black" stroke-width="1.0"/>
  <path d="M 1028.3481,173.0024 L 1021.1568,266.0043" fill="none" stroke="black" stroke-width="1.0"/>
  <path d="M 1024.8443,274.5217 L 1009.1444,275.8129" fill="none" stroke="black" stroke-width="1.0"/>
  <path d="M 1004.6858,267.2134 L 988.3598,268.5243" fill="none" stroke="black" stroke-width="1.0"/>
  <path d="M 993.5946,277.2051 L 1009.1444,275.8129 L 1003.4964,351.0528" fill="none" stroke="black" stroke-width="1.0"/>
  <path d="M 998.4378,351.5951 L 976.7888,643.9735 L 992.1051,641.7151 L 1014.6655,349.9528" fill="none" stroke="black" stroke-width="1.0"/>
  <path d="M 1018.9791,349.5279 L 1034.6087,348.121 L 1047.797,347.0423" fill="none" stroke="black" stroke-width="1.0"/>
  <path d="M 1047.549,347.0626 L 1023.1387,637.7578 L 1038.8544,636.0558" fill="none" stroke="black" stroke-width="1.0"/>
  <path d="M 1041.9257,644.8662 L 1053.2091,639.4248 L 1063.9257,633.9263 L 1062.9966,643.947 L 1052.2964,649.5081 L 1053.2091,639.4248" fill="none" stroke="black" stroke-width="1.0"/>
  <path d="M 1054.7021,634.5365 L 1064.2758,633.735 L 1092.0496,334.4206" fill="none" stroke="black" stroke-width="1.0"/>
  <path d="M 1081.6401,337.6595 L 1054.7021,634.5365 L 1038.8544,636.0558 L 1064.4842,342.608" fill="none" stroke="black" stroke-width="1.0"/>
  <path d="M 1068.6779,341.4592 L 1056.2486,344.8641 L 1062.6157,270.5733" fill="none" stroke="black" stroke-width="1.0"/>
  <path d="M 1054.0672,272.4172 L 1047.797,347.0423 L 1056.2486,344.8641" fill="none" stroke="black" stroke-width="1.0"/>
  <path d="M 1034.6087,348.121 L 1040.6934,273.3304" fill="none" stroke="black" stroke-width="1.0"/>
  <path d="M 1037.7727,264.8958 L 1045.2505,172.1585" fill="none" stroke="black" stroke-width="1.0"/>
  <path d="M 1062.3006,171.3905 L 1054.5335,263.887" fill="none" stroke="black" stroke-width="1.0"/>
  <path d="M 1071.4392,262.9769 L 1079.4989,170.6978" fill="none" stroke="black" stroke-width="1.0"/>
  <path d="M 1096.8459,170.0797 L 1088.4903,262.1648" fill="none" stroke="black" stroke-width="1.0"/>
  <path d="M 1087.1185,264.7786 L 1080.4897,338.0166 L 1091.6845,334.5414 L 1098.4255,261.8387 L 1087.1185,264.7786 L 1075.1822,267.6915 L 1062.6157,270.5733 L 1054.0672,272.4172 L 1040.6934,273.3304 L 1024.8443,274.5217 L 1018.9791,349.5279 L 1003.4964,351.0528 L 988.1617,352.6968 L 972.9761,354.4612" fill="none" stroke="black" stroke-width="1.0"/>
  <path d="M 961.0047,355.9632 L 940.4679,664.8936" fill="none" stroke="black" stroke-width="1.0"/>
  <path d="M 951.5553,665.3712 L 950.8403,675.7479 L 936.7084,678.75" fill="none" stroke="black" stroke-width="1.0"/>
  <path d="M 929.8235,680.3235 L 927.9622,709.2353" fill="none" stroke="black" stroke-width="1.0"/>
  <path d="M 913.363,712.4501 L 915.116,683.8116" fill="none" stroke="black" stroke-width="1.0"/>
  <path d="M 908.8807,685.3406 L 909.5084,674.8576" fill="none" stroke="black" stroke-width="1.0"/>
  <path d="M 906.7869,672.6332 L 892.3284,676.364" fill="none" stroke="black" stroke-width="1.0"/>
  <path d="M 895.7888,678.4112 L 895.1898,688.9338" fill="none" stroke="black" stroke-width="1.0"/>
  <path d="M 900.5496,687.5271 L 898.9033,715.874" fill="none" stroke="black" stroke-width="1.0"/>
  <path d="M 922.7211,681.9468 L 923.3776,671.5014" fill="none" stroke="black" stroke-width="1.0"/>
  <path d="M 921.3954,669.1112 L 940.7606,358.6904" fill="none" stroke="black" stroke-width="1.0"/>
  <path d="M 940.1663,358.7766 L 943.0581,358.3574" fill="none" stroke="black" stroke-width="1.0"/>
  <path d="M 1031.036,348.4426 L 1007.5553,639.6438 L 992.1051,641.7151" fill="none" stroke="black" stroke-width="1.0"/>
  <path d="M 976.7888,643.9735 L 961.6074,646.4206" fill="none" stroke="black" stroke-width="1.0"/>
  <path d="M 946.562,649.0584 L 944.1973,649.5074" fill="none" stroke="black" stroke-width="1.0"/>
  <path d="M 965.8594,662.5929 L 965.1149,672.9384" fill="none" stroke="black" stroke-width="1.0"/>
  <path d="M 965.1149,672.9384 L 950.8403,675.7479" fill="none" stroke="black" stroke-width="1.0"/>
  <path d="M 944.67,677.0587 L 942.6991,706.2274" fill="none" stroke="black" stroke-width="1.0"/>
  <path d="M 957.5719,703.4239 L 959.654,674.0132" fill="none" stroke="black" stroke-width="1.0"/>
  <path d="M 965.1149,672.9384 L 979.5301,670.3194 L 994.0844,667.8891 L 994.889,657.5999" fill="none" stroke="black" stroke-width="1.0"/>
  <path d="M 994.0844,667.8891 L 1008.7762,665.6457" fill="none" stroke="black" stroke-width="1.0"/>
  <path d="M 1005.4173,666.1586 L 1002.9933,696.2204" fill="none" stroke="black" stroke-width="1.0"/>
  <path d="M 987.7202,698.4223 L 990.0289,668.5663" fill="none" stroke="black" stroke-width="1.0"/>
  <path d="M 979.5301,670.3194 L 980.3045,660.0031" fill="none" stroke="black" stroke-width="1.0"/>
  <path d="M 974.7741,671.1835 L 972.5794,700.8229" fill="none" stroke="black" stroke-width="1.0"/>
  <path d="M 1018.3978,694.2154 L 1033.9328,692.4059" fill="none" stroke="black" stroke-width="1.0"/>
  <path d="M 1036.9082,701.7718 L 1048.0896,695.9876" fill="none" stroke="black" stroke-width="1.0"/>
  <path d="M 1049.5978,690.7905 L 1059.0606,689.9383 L 1063.3461,643.7535" fill="none" stroke="black" stroke-width="1.0"/>
  <path d="M 1053.3955,648.9369 L 1049.5978,690.7905 L 1033.9328,692.4059 L 1037.0385,656.8468" fill="none" stroke="black" stroke-width="1.0"/>
  <path d="M 1041.0312,655.0114 L 1052.2964,649.5081" fill="none" stroke="black" stroke-width="1.0"/>
  <path d="M 1030.0762,650.2432 L 1041.9257,644.8662 L 1041.0312,655.0114 L 1029.2015,660.4493" fill="none" stroke="black" stroke-width="1.0"/>
  <path d="M 1022.0325,653.6803 L 1009.6112,655.3815" fill="none" stroke="black" stroke-width="1.0"/>
  <path d="M 1007.5553,639.6438 L 1023.1387,637.7578" fill="none" stroke="black" stroke-width="1.0"/>
  <path d="M 1034.3017,731.3339 L 1022.6219,737.2199" fill="none" stroke="black" stroke-width="1.0"/>
  <path d="M 1014.6973,740.9816 L 1002.4957,742.8433" fill="none" stroke="black" stroke-width="1.0"/>
  <path d="M 892.9918,664.5469 L 878.6519,668.4398" fill="none" stroke="black" stroke-width="1.0"/>
  <path d="M 870.1289,641.849 L 882.9497,638.6056" fill="none" stroke="black" stroke-width="1.0"/>
  <path d="M 728.0362,726.8595 L 727.8093,737.9154" fill="none" stroke="black" stroke-width="1.0"/>
  <path d="M 705.7206,823.7961 L 696.8274,824.9332" fill="none" stroke="black" stroke-width="1.0"/>
  <path d="M 1080.4897,338.0166 L 1068.6779,341.4592 L 1075.1822,267.6915" fill="none" stroke="black" stroke-width="1.0"/>
</svg>
